<svg width="22" height="22" viewBox="0 0 22 22" fill="none" xmlns="http://www.w3.org/2000/svg">
<path d="M17 11C17 12.1867 16.6481 13.3467 15.9888 14.3334C15.3295 15.3201 14.3925 16.0891 13.2961 16.5433C12.1997 16.9974 10.9933 17.1162 9.82946 16.8847C8.66557 16.6532 7.59648 16.0817 6.75736 15.2426C5.91825 14.4035 5.3468 13.3344 5.11529 12.1705C4.88378 11.0067 5.0026 9.80025 5.45673 8.7039C5.91085 7.60754 6.67989 6.67047 7.66658 6.01118C8.65328 5.35189 9.81331 5 11 5C12.5913 5 14.1174 5.63214 15.2426 6.75736C16.3679 7.88258 17 9.4087 17 11Z" fill="#174153"/>
</svg>
