<svg width="63" height="13" viewBox="0 0 63 13" fill="none" xmlns="http://www.w3.org/2000/svg">
<g clip-path="url(#clip0_132_373)">
<path d="M4.88914 1.89454C4.15345 1.89454 3.94074 2.22084 3.94074 2.94053V4.13442H5.90311L5.70641 6.06324H3.9415V11.9168H1.58651V6.06324H0V4.13442H1.58651V2.97331C1.58651 1.02772 2.371 3.02087e-05 4.55979 3.02087e-05C5.01844 -0.00103712 5.47679 0.0261792 5.93208 0.0816043V1.89683L4.88914 1.89454Z" fill="#1877F2"/>
<path d="M6.06641 7.7801C6.06641 5.60579 7.09638 3.9682 9.25468 3.9682C10.4318 3.9682 11.1507 4.57353 11.4946 5.32524V4.1344H13.7504V11.9168H11.4946V10.7397C11.1675 11.4921 10.4318 12.0807 9.25468 12.0807C7.09638 12.0807 6.06641 10.4454 6.06641 8.26879V7.7801ZM8.42064 8.30386C8.42064 9.4642 8.84528 10.2327 9.94082 10.2327C10.906 10.2327 11.3962 9.52976 11.3962 8.41821V7.63677C11.3962 6.52522 10.906 5.82231 9.94082 5.82231C8.84528 5.82231 8.42064 6.59079 8.42064 7.75113V8.30386Z" fill="#1877F2"/>
<path d="M18.6556 3.97052C19.5705 3.97052 20.4373 4.16721 20.9115 4.49351L20.3885 6.1616C19.898 5.92801 19.362 5.80511 18.8188 5.80176C17.5433 5.80176 16.9891 6.53745 16.9891 7.79691V8.25433C16.9891 9.51379 17.5448 10.2495 18.8188 10.2495C19.362 10.246 19.898 10.1232 20.3885 9.88964L20.9115 11.557C20.4373 11.884 19.5712 12.0807 18.6556 12.0807C15.892 12.0807 14.6333 10.5926 14.6333 8.20554V7.8457C14.6333 5.45868 15.892 3.97052 18.6556 3.97052Z" fill="#1877F2"/>
<path d="M21.2217 8.32292V7.63678C21.2217 5.42969 22.4804 3.97736 25.0481 3.97736C27.4679 3.97736 28.5306 5.44875 28.5306 7.60705V8.84973H23.5751C23.6247 9.91248 24.0989 10.3867 25.4049 10.3867C26.2885 10.3867 27.2201 10.2068 27.907 9.91249L28.3377 11.5249C27.7164 11.8527 26.4409 12.0975 25.3134 12.0975C22.3332 12.0967 21.2217 10.6101 21.2217 8.32292ZM23.5759 7.30896H26.4211V7.11303C26.4211 6.26297 26.078 5.58827 25.0488 5.58827C23.9853 5.58903 23.5759 6.25992 23.5759 7.30591V7.30896Z" fill="#1877F2"/>
<path d="M37.2573 8.2711C37.2573 10.4454 36.2113 12.083 34.0553 12.083C32.8782 12.083 32.0609 11.4944 31.7338 10.742V11.9191H29.5107V0.226467L31.865 0.0130005V5.21243C32.208 4.52629 32.9605 3.96975 34.0561 3.96975C36.2143 3.96975 37.258 5.60506 37.258 7.78165L37.2573 8.2711ZM34.9031 7.73133C34.9031 6.63579 34.4784 5.81852 33.3501 5.81852C32.3849 5.81852 31.8619 6.50467 31.8619 7.61698V8.43425C31.8619 9.5458 32.3849 10.2327 33.3501 10.2327C34.4784 10.2327 34.9031 9.41543 34.9031 8.31989V7.73133Z" fill="#1877F2"/>
<path d="M38.0449 8.22155V7.82969C38.0449 5.58905 39.3204 3.97052 41.9201 3.97052C44.5198 3.97052 45.796 5.58905 45.796 7.82969V8.22155C45.796 10.4614 44.5206 12.0807 41.9209 12.0807C39.3211 12.0807 38.0449 10.4614 38.0449 8.22155ZM43.441 7.66578C43.441 6.6358 43.0156 5.81853 41.9163 5.81853C40.8169 5.81853 40.3953 6.6358 40.3953 7.66578V8.38546C40.3953 9.41544 40.8207 10.2327 41.9163 10.2327C43.0118 10.2327 43.441 9.41544 43.441 8.38546V7.66578Z" fill="#1877F2"/>
<path d="M46.5791 8.22155V7.82969C46.5791 5.58905 47.8546 3.97052 50.4543 3.97052C53.054 3.97052 54.3295 5.58905 54.3295 7.82969V8.22155C54.3295 10.4614 53.054 12.0807 50.4543 12.0807C47.8546 12.0807 46.5791 10.4614 46.5791 8.22155ZM51.9752 7.66578C51.9752 6.6358 51.5498 5.81853 50.4543 5.81853C49.3587 5.81853 48.9341 6.6358 48.9341 7.66578V8.38546C48.9341 9.41544 49.3587 10.2327 50.4543 10.2327C51.5498 10.2327 51.9752 9.41544 51.9752 8.38546V7.66578Z" fill="#1877F2"/>
<path d="M57.5664 7.84569L59.8879 4.13443H62.3892L59.9534 7.97682L62.4876 11.9168H59.9862L57.5664 8.1049V11.9168H55.2114V0.226467L57.5664 0.0130005V7.84569Z" fill="#1877F2"/>
</g>
<defs>
<clipPath id="clip0_132_373">
<rect width="62.488" height="12.094" fill="white"/>
</clipPath>
</defs>
</svg>
