<svg width="500" height="383" viewBox="0 0 500 383" fill="none" xmlns="http://www.w3.org/2000/svg">
<g clip-path="url(#clip0_117_47)">
<path d="M378.59 51.1976C378.59 51.1976 329.641 -2.43161 252.146 0.133741C174.65 2.69909 108.547 54.6626 53.8967 95.3191C-0.753805 135.976 -15.4043 199.125 16.3647 248.425C48.1337 297.726 98.7599 276.973 163.21 308.973C227.66 340.973 239.903 359.149 311.696 351.368C383.489 343.587 438.14 264 429.994 179.222C421.848 94.4438 378.59 51.1976 378.59 51.1976Z" fill="#B9FA02" fill-opacity="0.55"/>
<path opacity="0.7" d="M378.59 51.1976C378.59 51.1976 329.641 -2.43161 252.146 0.133741C174.65 2.69909 108.547 54.6626 53.8967 95.3191C-0.753807 135.976 -15.4043 199.125 16.3647 248.426C48.1337 297.726 98.7599 276.973 163.21 308.973C227.66 340.973 239.903 359.149 311.696 351.368C383.489 343.587 438.14 264 429.994 179.222C421.848 94.4438 378.59 51.1976 378.59 51.1976Z" fill="white"/>
<path d="M258.505 382.395C391.805 382.395 499.866 376.5 499.866 369.228C499.866 361.956 391.805 356.061 258.505 356.061C125.204 356.061 17.1429 361.956 17.1429 369.228C17.1429 376.5 125.204 382.395 258.505 382.395Z" fill="#B9FA02"/>
<path opacity="0.3" d="M258.505 382.395C391.805 382.395 499.866 376.5 499.866 369.228C499.866 361.956 391.805 356.061 258.505 356.061C125.204 356.061 17.1429 361.956 17.1429 369.228C17.1429 376.5 125.204 382.395 258.505 382.395Z" fill="white"/>
<path d="M380.207 24.6201H250.31C244.992 24.6201 240.681 28.9312 240.681 34.2493V353.009C240.681 358.327 244.992 362.638 250.31 362.638H380.207C385.525 362.638 389.836 358.327 389.836 353.009V34.2493C389.836 28.9312 385.525 24.6201 380.207 24.6201Z" fill="white" stroke="#263238" stroke-linecap="round" stroke-linejoin="round"/>
<path d="M384.851 83.7934C384.326 83.7934 383.821 83.5846 383.45 83.213C383.078 82.8413 382.869 82.3372 382.869 81.8116V55.2463C382.909 54.7459 383.135 54.2788 383.503 53.938C383.872 53.5972 384.355 53.408 384.857 53.408C385.359 53.408 385.843 53.5972 386.211 53.938C386.58 54.2788 386.806 54.7459 386.845 55.2463V81.763C386.85 82.0279 386.802 82.2911 386.704 82.5373C386.606 82.7834 386.46 83.0075 386.274 83.1966C386.088 83.3856 385.867 83.5357 385.623 83.6382C385.378 83.7407 385.116 83.7935 384.851 83.7934Z" fill="#263238"/>
<path d="M384.851 108.401C384.326 108.401 383.821 108.193 383.45 107.821C383.078 107.449 382.869 106.945 382.869 106.42V91.5746C382.909 91.0742 383.135 90.607 383.503 90.2662C383.872 89.9255 384.355 89.7362 384.857 89.7362C385.359 89.7362 385.843 89.9255 386.211 90.2662C386.58 90.607 386.806 91.0742 386.845 91.5746V106.42C386.842 106.946 386.63 107.45 386.257 107.822C385.883 108.193 385.378 108.401 384.851 108.401Z" fill="#263238"/>
<path d="M368.961 24.6201H239.064C233.746 24.6201 229.435 28.9312 229.435 34.2493V353.009C229.435 358.327 233.746 362.638 239.064 362.638H368.961C374.279 362.638 378.59 358.327 378.59 353.009V34.2493C378.59 28.9312 374.279 24.6201 368.961 24.6201Z" fill="#263238" stroke="#263238" stroke-linecap="round" stroke-linejoin="round"/>
<path d="M368.657 47.1246H239.368V337.046H368.657V47.1246Z" fill="#B9FA02"/>
<path d="M284.815 37.8602H319.234" stroke="white" stroke-width="3" stroke-linecap="round" stroke-linejoin="round"/>
<path d="M299.38 347.307C299.38 349.678 297.897 351.599 296.061 351.599C294.225 351.599 292.754 349.678 292.754 347.307C292.754 344.936 294.237 343.003 296.061 343.003C297.885 343.003 299.38 344.924 299.38 347.307Z" fill="white"/>
<path d="M304.012 119.271C316.394 119.271 326.432 107.567 326.432 93.1308C326.432 78.6942 316.394 66.991 304.012 66.991C291.63 66.991 281.593 78.6942 281.593 93.1308C281.593 107.567 291.63 119.271 304.012 119.271Z" fill="white"/>
<path d="M304.012 92.8025C308.713 92.8025 312.523 88.3553 312.523 82.8694C312.523 77.3835 308.713 72.9363 304.012 72.9363C299.312 72.9363 295.502 77.3835 295.502 82.8694C295.502 88.3553 299.312 92.8025 304.012 92.8025Z" fill="#263238" stroke="#263238" stroke-linecap="round" stroke-linejoin="round"/>
<path d="M304.012 95.4408C295.502 95.4408 288.535 101.97 288.535 110.03C288.542 110.781 288.611 111.529 288.742 112.268C290.63 114.471 292.972 116.24 295.608 117.452C298.244 118.665 301.111 119.293 304.012 119.293C306.914 119.293 309.781 118.665 312.417 117.452C315.053 116.24 317.395 114.471 319.283 112.268C319.403 111.528 319.468 110.78 319.477 110.03C319.477 101.97 312.547 95.4408 304.012 95.4408Z" fill="#263238" stroke="#263238" stroke-linecap="round" stroke-linejoin="round"/>
<path d="M331.271 206.991H276.754C275.311 206.934 273.95 206.307 272.97 205.246C271.989 204.186 271.47 202.78 271.526 201.337V167.684C271.526 148.292 286.115 132.511 304.012 132.511C321.909 132.511 336.486 148.316 336.486 167.684V201.313C336.517 202.029 336.407 202.743 336.161 203.416C335.916 204.089 335.54 204.706 335.056 205.234C334.571 205.761 333.988 206.188 333.338 206.489C332.689 206.791 331.986 206.961 331.271 206.991ZM281.97 195.684H326.043V167.72C326.043 154.565 316.158 143.854 304.012 143.854C291.866 143.854 281.97 154.565 281.97 167.72V195.684Z" fill="#263238"/>
<path d="M341.86 184.024H266.164V255.635H341.86V184.024Z" fill="white"/>
<path d="M315.04 233.325L309.422 219.818C310.665 218.879 311.669 217.661 312.355 216.263C313.042 214.865 313.39 213.326 313.374 211.769C313.374 206.383 309.35 202.043 304.377 202.043C299.404 202.043 295.392 206.395 295.392 211.769C295.373 213.325 295.72 214.864 296.404 216.262C297.088 217.66 298.091 218.878 299.331 219.818L293.726 233.325H315.04Z" fill="#263238" stroke="#263238" stroke-linecap="round" stroke-linejoin="round"/>
<path d="M280.948 319.988C281.065 320.073 281.205 320.12 281.35 320.122C281.453 320.121 281.555 320.096 281.646 320.047C281.737 319.998 281.815 319.928 281.872 319.842L368.657 201.799V199.562L280.851 319.064C280.797 319.131 280.756 319.208 280.732 319.291C280.707 319.373 280.699 319.46 280.708 319.546C280.717 319.632 280.743 319.715 280.784 319.791C280.826 319.867 280.881 319.934 280.948 319.988Z" fill="white"/>
<path d="M351.198 89.6536C351.146 89.7236 351.109 89.8032 351.088 89.8877C351.067 89.9723 351.064 90.0601 351.077 90.1461C351.091 90.2321 351.121 90.3145 351.167 90.3886C351.213 90.4627 351.273 90.5269 351.343 90.5776C351.486 90.6789 351.663 90.7204 351.835 90.6931C352.008 90.6658 352.163 90.572 352.267 90.4317L368.657 68.146V65.9575L351.198 89.6536Z" fill="white"/>
<path d="M239.368 244.024L346.505 98.3345C346.608 98.1926 346.65 98.0155 346.623 97.8422C346.596 97.669 346.501 97.5136 346.359 97.4104C346.217 97.3073 346.04 97.2647 345.866 97.292C345.693 97.3194 345.538 97.4145 345.435 97.5564L239.416 241.787L239.368 244.024Z" fill="white"/>
<path d="M270.881 334.359C270.985 334.357 271.087 334.332 271.179 334.286C271.272 334.239 271.353 334.173 271.416 334.091L277.495 325.872C277.547 325.802 277.584 325.723 277.605 325.638C277.626 325.554 277.63 325.466 277.616 325.38C277.602 325.294 277.572 325.211 277.526 325.137C277.48 325.063 277.42 324.999 277.35 324.948C277.207 324.847 277.031 324.806 276.858 324.833C276.685 324.86 276.53 324.954 276.426 325.094L270.347 333.301C270.294 333.37 270.256 333.449 270.234 333.533C270.213 333.617 270.208 333.705 270.221 333.791C270.233 333.877 270.262 333.959 270.307 334.034C270.352 334.109 270.41 334.173 270.48 334.225C270.594 334.315 270.736 334.363 270.881 334.359Z" fill="white"/>
<path d="M368.657 225.435L297.41 322.347C297.338 322.445 297.295 322.561 297.285 322.683C297.275 322.804 297.299 322.926 297.355 323.035C297.41 323.143 297.495 323.234 297.599 323.297C297.704 323.36 297.823 323.393 297.945 323.392C298.05 323.394 298.153 323.371 298.246 323.324C298.339 323.278 298.419 323.209 298.48 323.125L368.657 227.66V225.435Z" fill="white"/>
</g>
<defs>
<clipPath id="clip0_117_47">
<rect width="500" height="382.219" fill="white"/>
</clipPath>
</defs>
</svg>
