<svg width="500" height="471" viewBox="0 0 500 471" fill="none" xmlns="http://www.w3.org/2000/svg">
<path d="M78.8272 413.441C41.9356 413.441 12.0289 396.17 12.0289 374.867C12.0289 353.563 41.9356 336.292 78.8272 336.292C115.719 336.292 145.625 353.563 145.625 374.867C145.625 396.17 115.719 413.441 78.8272 413.441Z" fill="#E0E0E0"/>
<path d="M317.98 458.204L483.704 362.523C486.421 360.956 486.421 358.413 483.704 356.834L244.122 218.515C242.598 217.736 240.911 217.33 239.199 217.33C237.487 217.33 235.8 217.736 234.276 218.515L68.598 314.172C65.881 315.74 65.881 318.283 68.598 319.85L308.134 458.204C309.659 458.977 311.346 459.38 313.057 459.38C314.767 459.38 316.454 458.977 317.98 458.204Z" fill="#E0E0E0"/>
<path d="M473.475 349.356C473.342 351.159 472.788 352.905 471.856 354.454C470.924 356.003 469.641 357.312 468.11 358.273L317.759 445.083C316.094 445.924 314.255 446.363 312.389 446.363C310.523 446.363 308.684 445.924 307.019 445.083L84.1916 316.436C82.5737 315.577 81.2202 314.294 80.2763 312.724C79.3324 311.154 78.8338 309.356 78.8338 307.524C78.8338 305.692 79.3324 303.895 80.2763 302.325C81.2202 300.755 82.5737 299.472 84.1916 298.612L234.543 211.768C236.206 210.921 238.046 210.479 239.913 210.479C241.78 210.479 243.62 210.921 245.283 211.768L468.11 340.449C469.641 341.409 470.924 342.715 471.856 344.262C472.788 345.809 473.342 347.554 473.475 349.356Z" fill="#37474F"/>
<path d="M312.337 434.713V446.325C314.205 446.367 316.052 445.927 317.701 445.048L468.11 358.273C469.681 357.444 471.005 356.213 471.946 354.706C472.886 353.2 473.411 351.47 473.467 349.694C473.522 347.919 473.106 346.16 472.261 344.597C471.416 343.035 470.172 341.724 468.656 340.798C471.059 342.516 470.874 345.048 468.11 346.604L317.747 433.424C316.086 434.316 314.221 434.76 312.337 434.713Z" fill="#263238"/>
<path d="M478.514 340.658C480.008 339.642 481.241 338.289 482.115 336.707C482.988 335.125 483.477 333.36 483.542 331.555V152.096C483.44 150.235 482.901 148.424 481.969 146.81C481.037 145.197 479.738 143.825 478.177 142.807L255.35 14.1604C253.746 13.3076 251.964 12.8452 250.149 12.8109C248.333 12.7766 246.535 13.1713 244.9 13.963C243.408 14.9811 242.176 16.3353 241.303 17.9164C240.43 19.4975 239.94 21.2615 239.872 23.0665V202.479C239.973 204.34 240.512 206.151 241.444 207.765C242.376 209.379 243.675 210.751 245.237 211.768L468.11 340.449C469.707 341.297 471.48 341.758 473.287 341.794C475.094 341.831 476.885 341.442 478.514 340.658Z" fill="#455A64"/>
<path d="M468.737 340.775C470.279 341.464 471.953 341.808 473.641 341.784C475.33 341.76 476.993 341.368 478.514 340.635C480.008 339.619 481.241 338.265 482.115 336.684C482.988 335.102 483.477 333.337 483.542 331.532V152.096C483.482 150.228 482.938 148.407 481.962 146.812L471.907 152.618C472.868 154.214 473.407 156.028 473.475 157.89V337.349C473.475 340.519 471.408 341.947 468.737 340.775Z" fill="#263238"/>
<path d="M473.475 157.913V337.349C473.475 340.833 471.071 342.156 468.11 340.449L245.283 211.768C243.722 210.751 242.422 209.379 241.49 207.765C240.558 206.151 240.02 204.34 239.919 202.479V23.0665C239.919 19.6527 242.311 18.2593 245.283 19.9778L468.11 148.612C469.671 149.633 470.97 151.007 471.902 152.623C472.834 154.239 473.373 156.051 473.475 157.913Z" fill="#174153"/>
<path d="M468.11 346.638L317.759 433.459C316.094 434.301 314.255 434.74 312.389 434.74C310.523 434.74 308.684 434.301 307.019 433.459L84.1917 304.813C81.2309 303.095 81.2309 300.319 84.1917 298.612L234.543 211.768C236.206 210.921 238.046 210.479 239.913 210.479C241.78 210.479 243.62 210.921 245.283 211.768L468.11 340.449C471.071 342.156 471.071 344.932 468.11 346.638Z" fill="#174153"/>
<path d="M465.219 155.51L249.777 31.1482C248 30.1264 246.549 30.9624 246.549 33.0177V198.566C246.611 199.683 246.935 200.77 247.496 201.739C248.057 202.707 248.838 203.53 249.777 204.139L465.219 328.501C466.996 329.523 468.447 328.687 468.447 326.631V161.083C468.385 159.966 468.061 158.879 467.5 157.91C466.939 156.942 466.158 156.12 465.219 155.51Z" fill="#B9FA02"/>
<path opacity="0.4" d="M465.219 155.51L249.777 31.1482C248 30.1264 246.549 30.9624 246.549 33.0177V198.566C246.611 199.683 246.935 200.77 247.496 201.739C248.057 202.707 248.838 203.53 249.777 204.139L465.219 328.501C466.996 329.523 468.447 328.687 468.447 326.631V161.083C468.385 159.966 468.061 158.879 467.5 157.91C466.939 156.942 466.158 156.12 465.219 155.51Z" fill="black"/>
<path d="M450.659 341.994L242.589 221.882C241.759 221.458 240.84 221.237 239.907 221.237C238.975 221.237 238.056 221.458 237.225 221.882L227.46 227.514C225.986 228.373 225.986 229.755 227.46 230.614L435.553 350.714C436.384 351.138 437.303 351.359 438.235 351.359C439.168 351.359 440.087 351.138 440.918 350.714L450.659 345.094C452.134 344.235 452.134 342.853 450.659 341.994Z" fill="#37474F"/>
<path d="M425.486 356.532L217.428 236.409C216.598 235.985 215.679 235.763 214.746 235.763C213.814 235.763 212.895 235.985 212.064 236.409L151.989 271.093C150.502 271.952 150.502 273.345 151.989 274.193L359.826 394.165C360.66 394.586 361.58 394.805 362.514 394.805C363.448 394.805 364.368 394.586 365.202 394.165L425.475 359.62C426.961 358.773 426.973 357.379 425.486 356.532Z" fill="#263238"/>
<path d="M242.671 287.488L236.122 283.703C235.843 283.541 235.832 283.285 236.122 283.122L242.996 279.116C243.152 279.042 243.322 279.004 243.495 279.004C243.668 279.004 243.838 279.042 243.994 279.116L250.554 282.902C250.821 283.064 250.833 283.32 250.554 283.471L243.588 287.465C243.445 287.531 243.289 287.567 243.132 287.571C242.974 287.575 242.817 287.547 242.671 287.488ZM253.898 273.438L260.447 277.224C260.506 277.245 260.557 277.283 260.593 277.334C260.629 277.385 260.648 277.446 260.648 277.508C260.648 277.571 260.629 277.631 260.593 277.682C260.557 277.733 260.506 277.772 260.447 277.793L253.48 281.787C253.324 281.861 253.154 281.9 252.981 281.9C252.808 281.9 252.638 281.861 252.482 281.787L245.922 278.002C245.859 277.984 245.803 277.946 245.764 277.893C245.724 277.841 245.703 277.777 245.703 277.711C245.703 277.646 245.724 277.582 245.764 277.53C245.803 277.477 245.859 277.439 245.922 277.421L252.888 273.427C253.044 273.356 253.212 273.32 253.383 273.322C253.554 273.324 253.722 273.364 253.875 273.438H253.898ZM275.065 285.654L286.142 292.052C286.421 292.214 286.433 292.482 286.142 292.632L279.176 296.627C279.02 296.701 278.849 296.74 278.676 296.74C278.504 296.74 278.333 296.701 278.177 296.627L267.089 290.229C266.81 290.066 266.81 289.811 267.089 289.648L274.055 285.665C274.207 285.585 274.376 285.542 274.547 285.54C274.719 285.538 274.889 285.577 275.042 285.654H275.065ZM263.454 278.965L270.015 282.751C270.293 282.913 270.293 283.169 270.015 283.32L263.048 287.314C262.892 287.389 262.721 287.427 262.549 287.427C262.376 287.427 262.205 287.389 262.049 287.314L255.501 283.529C255.222 283.366 255.222 283.111 255.501 282.948L262.467 278.954C262.62 278.88 262.787 278.843 262.956 278.845C263.126 278.847 263.292 278.888 263.443 278.965H263.454ZM289.115 293.805L295.663 297.579C295.942 297.742 295.942 298.009 295.663 298.16L288.697 302.154C288.541 302.228 288.37 302.267 288.197 302.267C288.025 302.267 287.854 302.228 287.698 302.154L281.15 298.38C280.871 298.218 280.871 297.962 281.15 297.8L288.116 293.805C288.272 293.731 288.443 293.692 288.615 293.692C288.788 293.692 288.959 293.731 289.115 293.805ZM298.682 299.332L305.242 303.118C305.301 303.139 305.352 303.177 305.388 303.228C305.424 303.279 305.443 303.34 305.443 303.402C305.443 303.465 305.424 303.526 305.388 303.576C305.352 303.627 305.301 303.666 305.242 303.687L298.404 307.681C298.249 307.762 298.078 307.804 297.904 307.804C297.73 307.804 297.559 307.762 297.405 307.681L290.856 303.907C290.578 303.745 290.578 303.489 290.856 303.327L297.765 299.332C297.915 299.265 298.077 299.23 298.241 299.23C298.405 299.23 298.567 299.265 298.717 299.332H298.682ZM271.536 315.589L264.987 311.803C264.708 311.641 264.708 311.385 264.987 311.234L271.896 307.24C272.051 307.166 272.222 307.127 272.395 307.127C272.568 307.127 272.738 307.166 272.894 307.24L279.454 311.025C279.517 311.043 279.573 311.082 279.612 311.134C279.652 311.186 279.673 311.25 279.673 311.316C279.673 311.381 279.652 311.445 279.612 311.498C279.573 311.55 279.517 311.588 279.454 311.606L272.546 315.6C272.392 315.669 272.225 315.704 272.057 315.702C271.888 315.7 271.722 315.661 271.57 315.589H271.536ZM281.115 321.116L274.554 317.331C274.276 317.168 274.276 316.913 274.554 316.762L281.498 312.79C281.654 312.716 281.824 312.678 281.997 312.678C282.17 312.678 282.34 312.716 282.496 312.79L289.045 316.576C289.324 316.738 289.324 316.994 289.045 317.156L282.136 321.151C281.98 321.218 281.81 321.25 281.639 321.244C281.469 321.238 281.301 321.194 281.15 321.116H281.115ZM290.682 326.643L284.134 322.858C284.075 322.837 284.024 322.798 283.988 322.747C283.952 322.696 283.933 322.636 283.933 322.573C283.933 322.511 283.952 322.45 283.988 322.399C284.024 322.348 284.075 322.31 284.134 322.289L291.1 318.294C291.254 318.214 291.426 318.172 291.599 318.172C291.773 318.172 291.945 318.214 292.099 318.294L298.624 322.08C298.903 322.242 298.903 322.498 298.624 322.66L291.658 326.655C291.509 326.719 291.348 326.75 291.186 326.748C291.024 326.746 290.864 326.711 290.717 326.643H290.682ZM300.261 332.17L293.713 328.385C293.434 328.234 293.422 327.967 293.713 327.816L300.679 323.822C300.835 323.747 301.006 323.709 301.179 323.709C301.351 323.709 301.522 323.747 301.678 323.822L308.226 327.595C308.505 327.758 308.517 328.013 308.226 328.176L301.318 332.17C301.159 332.248 300.984 332.289 300.807 332.289C300.63 332.289 300.455 332.248 300.296 332.17H300.261ZM252.226 293.05L245.666 289.265C245.603 289.247 245.548 289.209 245.508 289.157C245.469 289.104 245.447 289.04 245.447 288.975C245.447 288.909 245.469 288.845 245.508 288.793C245.548 288.741 245.603 288.702 245.666 288.684L252.633 284.702C252.787 284.621 252.958 284.579 253.132 284.579C253.306 284.579 253.477 284.621 253.631 284.702L260.087 288.406C260.366 288.568 260.366 288.824 260.087 288.975L253.179 292.969C253.035 293.05 252.875 293.098 252.711 293.112C252.547 293.126 252.382 293.105 252.226 293.05ZM261.991 310.096L247.385 301.655C247.106 301.492 247.106 301.237 247.385 301.086L264.174 291.39C264.33 291.316 264.501 291.277 264.673 291.277C264.846 291.277 265.017 291.316 265.173 291.39L272.732 295.756C273.01 295.919 273.01 296.174 272.732 296.337L263.837 301.469C263.779 301.49 263.728 301.528 263.692 301.579C263.656 301.63 263.637 301.691 263.637 301.753C263.637 301.816 263.656 301.877 263.692 301.928C263.728 301.979 263.779 302.017 263.837 302.038L269.887 305.521C270.165 305.684 270.165 305.939 269.887 306.102L262.92 310.085C262.773 310.15 262.614 310.182 262.453 310.178C262.292 310.174 262.135 310.134 261.991 310.062V310.096ZM308.296 304.894L314.845 308.68C314.903 308.701 314.954 308.739 314.99 308.79C315.026 308.841 315.046 308.902 315.046 308.964C315.046 309.027 315.026 309.088 314.99 309.138C314.954 309.189 314.903 309.228 314.845 309.249L307.936 313.243C307.78 313.318 307.61 313.356 307.437 313.356C307.264 313.356 307.094 313.318 306.938 313.243L300.377 309.458C300.314 309.44 300.259 309.402 300.219 309.349C300.18 309.297 300.158 309.233 300.158 309.168C300.158 309.102 300.18 309.038 300.219 308.986C300.259 308.933 300.314 308.895 300.377 308.877L307.286 304.883C307.442 304.803 307.613 304.76 307.788 304.756C307.963 304.752 308.137 304.787 308.296 304.86V304.894ZM317.864 310.422L324.424 314.207C324.703 314.37 324.703 314.625 324.424 314.776L317.457 318.77C317.301 318.845 317.131 318.883 316.958 318.883C316.785 318.883 316.615 318.845 316.459 318.77L309.91 314.985C309.631 314.822 309.631 314.567 309.91 314.404L316.877 310.41C317.028 310.329 317.196 310.284 317.367 310.28C317.539 310.276 317.709 310.313 317.864 310.387V310.422ZM368.314 370.849C368.158 370.923 367.987 370.962 367.814 370.962C367.642 370.962 367.471 370.923 367.315 370.849L360.766 367.064C360.488 366.901 360.476 366.646 360.766 366.483L367.733 362.5C367.887 362.42 368.058 362.378 368.232 362.378C368.406 362.378 368.577 362.42 368.732 362.5L375.28 366.286C375.559 366.448 375.57 366.704 375.28 366.855L368.314 370.849ZM394.462 354.593L401.01 358.366C401.289 358.529 401.3 358.784 401.01 358.947L394.102 362.941C393.946 363.016 393.775 363.054 393.602 363.054C393.43 363.054 393.259 363.016 393.103 362.941L386.554 359.156C386.276 359.005 386.264 358.738 386.554 358.587L393.521 354.593C393.668 354.522 393.828 354.485 393.991 354.485C394.154 354.485 394.315 354.522 394.462 354.593ZM380.703 366.599C380.548 366.679 380.377 366.721 380.203 366.721C380.029 366.721 379.858 366.679 379.704 366.599L373.155 362.814C372.877 362.651 372.877 362.396 373.155 362.245L380.122 358.25C380.276 358.17 380.447 358.128 380.621 358.128C380.795 358.128 380.966 358.17 381.121 358.25L387.669 362.036C387.948 362.198 387.948 362.454 387.669 362.616L380.703 366.599ZM352.395 373.636L345.846 369.85C345.787 369.829 345.737 369.791 345.701 369.74C345.665 369.689 345.645 369.628 345.645 369.566C345.645 369.503 345.665 369.443 345.701 369.392C345.737 369.341 345.787 369.302 345.846 369.281L352.813 365.287C352.969 365.213 353.139 365.174 353.312 365.174C353.485 365.174 353.655 365.213 353.811 365.287L360.36 369.061C360.639 369.223 360.639 369.479 360.36 369.641L353.393 373.636C353.239 373.714 353.069 373.756 352.897 373.76C352.724 373.764 352.552 373.73 352.395 373.659V373.636ZM362.972 379.175C362.816 379.249 362.646 379.287 362.473 379.287C362.3 379.287 362.13 379.249 361.974 379.175L355.425 375.389C355.147 375.238 355.135 374.971 355.425 374.82L362.264 370.849C362.42 370.775 362.591 370.736 362.763 370.736C362.936 370.736 363.107 370.775 363.263 370.849L369.811 374.623C370.09 374.785 370.102 375.041 369.811 375.203L362.972 379.175ZM384.882 349.054L391.443 352.839C391.506 352.857 391.561 352.895 391.601 352.948C391.64 353 391.662 353.064 391.662 353.129C391.662 353.195 391.64 353.259 391.601 353.311C391.561 353.364 391.506 353.402 391.443 353.42L384.534 357.414C384.378 357.488 384.208 357.527 384.035 357.527C383.862 357.527 383.692 357.488 383.536 357.414L376.987 353.629C376.708 353.466 376.708 353.211 376.987 353.06L383.954 349.065C384.1 348.999 384.259 348.965 384.419 348.967C384.58 348.969 384.738 349.007 384.882 349.077V349.054ZM337.022 321.418L343.57 325.203C343.849 325.366 343.849 325.621 343.57 325.772L336.604 329.767C336.45 329.847 336.278 329.889 336.105 329.889C335.931 329.889 335.759 329.847 335.605 329.767L329.057 325.981C328.778 325.819 328.778 325.563 329.057 325.401L336.023 321.418C336.179 321.341 336.352 321.303 336.525 321.307C336.699 321.311 336.87 321.357 337.022 321.441V321.418ZM375.338 343.48L381.887 347.266C382.165 347.428 382.165 347.684 381.887 347.846L374.978 351.829C374.824 351.909 374.653 351.951 374.479 351.951C374.305 351.951 374.134 351.909 373.98 351.829L367.419 348.044C367.141 347.881 367.141 347.626 367.419 347.475L374.328 343.48C374.488 343.418 374.659 343.393 374.829 343.405C375 343.417 375.166 343.466 375.315 343.55L375.338 343.48ZM327.431 315.914L333.991 319.757C334.27 319.92 334.282 320.175 333.991 320.326L327.083 324.321C326.929 324.401 326.757 324.443 326.583 324.443C326.41 324.443 326.238 324.401 326.084 324.321L319.536 320.535C319.257 320.373 319.245 320.117 319.536 319.955L326.502 315.972C326.643 315.894 326.799 315.848 326.96 315.838C327.121 315.828 327.282 315.854 327.431 315.914ZM346.578 326.968L353.126 330.754C353.405 330.916 353.417 331.172 353.126 331.334L346.16 335.317C346.006 335.398 345.834 335.439 345.66 335.439C345.487 335.439 345.315 335.398 345.161 335.317L338.613 331.532C338.334 331.369 338.322 331.114 338.613 330.951L345.521 326.968C345.684 326.876 345.868 326.827 346.055 326.827C346.242 326.827 346.427 326.876 346.589 326.968H346.578ZM356.168 332.53L362.717 336.316C362.996 336.478 362.996 336.734 362.717 336.896L355.75 340.879C355.596 340.96 355.425 341.001 355.251 341.001C355.077 341.001 354.906 340.96 354.752 340.879L348.203 337.094C347.925 336.931 347.925 336.676 348.203 336.525L355.17 332.53C355.324 332.45 355.495 332.408 355.669 332.408C355.843 332.408 356.014 332.45 356.168 332.53ZM365.747 338.023L372.285 341.82C372.563 341.982 372.575 342.238 372.285 342.4L365.376 346.383C365.222 346.463 365.051 346.505 364.877 346.505C364.703 346.505 364.532 346.463 364.377 346.383L357.829 342.598C357.55 342.435 357.538 342.18 357.829 342.029L364.737 338.034C364.894 337.956 365.066 337.915 365.241 337.913C365.416 337.911 365.589 337.948 365.747 338.023ZM319.454 343.225L312.906 339.451C312.627 339.288 312.615 339.033 312.906 338.87L319.791 334.853C319.947 334.778 320.118 334.74 320.29 334.74C320.463 334.74 320.634 334.778 320.79 334.853L327.338 338.626C327.617 338.789 327.628 339.044 327.338 339.207L320.372 343.201C320.227 343.269 320.069 343.306 319.91 343.31C319.75 343.314 319.591 343.285 319.443 343.225H319.454ZM232.72 261.223L239.269 264.997C239.547 265.159 239.559 265.415 239.269 265.577L232.36 269.572C232.204 269.646 232.033 269.684 231.861 269.684C231.688 269.684 231.517 269.646 231.361 269.572L224.813 265.786C224.534 265.635 224.523 265.368 224.813 265.217L231.721 261.223C231.874 261.144 232.043 261.103 232.215 261.103C232.386 261.103 232.556 261.144 232.708 261.223H232.72ZM244.331 267.911L250.798 271.697C250.857 271.717 250.908 271.756 250.944 271.807C250.98 271.858 250.999 271.919 250.999 271.981C250.999 272.043 250.98 272.104 250.944 272.155C250.908 272.206 250.857 272.245 250.798 272.266L243.89 276.26C243.734 276.334 243.563 276.373 243.39 276.373C243.218 276.373 243.047 276.334 242.891 276.26L236.343 272.486C236.064 272.324 236.064 272.068 236.343 271.906L243.309 267.911C243.464 267.839 243.632 267.801 243.803 267.801C243.973 267.801 244.142 267.839 244.296 267.911H244.331ZM223.176 255.684L229.724 259.469C230.003 259.632 230.003 259.887 229.724 260.05L222.758 264.044C222.602 264.119 222.431 264.157 222.258 264.157C222.086 264.157 221.915 264.119 221.759 264.044L215.21 260.259C214.932 260.096 214.932 259.841 215.21 259.69L222.177 255.696C222.328 255.625 222.491 255.587 222.658 255.585C222.824 255.583 222.989 255.617 223.141 255.684H223.176ZM274.392 305.823L267.843 302.038C267.785 302.017 267.734 301.979 267.698 301.928C267.662 301.877 267.642 301.816 267.642 301.753C267.642 301.691 267.662 301.63 267.698 301.579C267.734 301.528 267.785 301.49 267.843 301.469L274.81 297.475C274.966 297.4 275.136 297.362 275.309 297.362C275.482 297.362 275.652 297.4 275.808 297.475L282.369 301.26C282.432 301.278 282.487 301.316 282.527 301.368C282.566 301.421 282.588 301.485 282.588 301.55C282.588 301.616 282.566 301.68 282.527 301.732C282.487 301.784 282.432 301.823 282.369 301.841L275.46 305.835C275.294 305.919 275.11 305.961 274.925 305.959C274.739 305.957 274.556 305.911 274.392 305.823ZM212.563 250.168C212.719 250.094 212.89 250.056 213.062 250.056C213.235 250.056 213.406 250.094 213.562 250.168L220.11 253.954C220.389 254.116 220.401 254.372 220.11 254.534L213.202 258.529C213.046 258.603 212.875 258.642 212.702 258.642C212.53 258.642 212.359 258.603 212.203 258.529L205.655 254.743C205.376 254.581 205.364 254.325 205.655 254.174L212.563 250.168ZM309.864 337.709L303.315 333.935C303.036 333.773 303.036 333.506 303.315 333.355L310.282 329.36C310.438 329.286 310.608 329.247 310.781 329.247C310.954 329.247 311.124 329.286 311.28 329.36L317.829 333.134C318.107 333.297 318.107 333.552 317.829 333.715L310.862 337.709C310.705 337.782 310.534 337.818 310.362 337.816C310.189 337.814 310.019 337.774 309.864 337.698V337.709ZM192.464 269.92L185.904 266.135C185.845 266.114 185.795 266.075 185.759 266.024C185.723 265.973 185.703 265.912 185.703 265.85C185.703 265.788 185.723 265.727 185.759 265.676C185.795 265.625 185.845 265.586 185.904 265.566L192.871 261.571C193.027 261.497 193.197 261.458 193.37 261.458C193.543 261.458 193.713 261.497 193.869 261.571L200.418 265.345C200.697 265.508 200.697 265.763 200.418 265.926L193.451 269.92C193.298 269.996 193.128 270.034 192.957 270.032C192.785 270.03 192.617 269.988 192.464 269.908V269.92ZM211.913 269.746L205.353 265.96C205.294 265.94 205.243 265.901 205.207 265.85C205.171 265.799 205.152 265.738 205.152 265.676C205.152 265.614 205.171 265.553 205.207 265.502C205.243 265.451 205.294 265.412 205.353 265.391L212.261 261.397C212.417 261.323 212.588 261.284 212.761 261.284C212.933 261.284 213.104 261.323 213.26 261.397L219.808 265.182C220.087 265.345 220.099 265.6 219.808 265.763L212.9 269.757C212.744 269.826 212.574 269.86 212.404 269.856C212.233 269.852 212.066 269.81 211.913 269.734V269.746ZM202.694 255.893C202.847 255.815 203.016 255.775 203.187 255.775C203.359 255.775 203.528 255.815 203.681 255.893L210.241 259.678C210.304 259.696 210.36 259.735 210.399 259.787C210.439 259.839 210.46 259.903 210.46 259.969C210.46 260.034 210.439 260.098 210.399 260.151C210.36 260.203 210.304 260.241 210.241 260.259L203.332 264.253C203.176 264.328 203.006 264.366 202.833 264.366C202.66 264.366 202.49 264.328 202.334 264.253L195.785 260.468C195.726 260.447 195.676 260.409 195.64 260.358C195.604 260.307 195.584 260.246 195.584 260.184C195.584 260.121 195.604 260.06 195.64 260.009C195.676 259.958 195.726 259.92 195.785 259.899L202.694 255.893ZM200.673 254.732L183.884 264.428C183.728 264.502 183.557 264.54 183.385 264.54C183.212 264.54 183.041 264.502 182.885 264.428L176.337 260.642C176.058 260.491 176.046 260.224 176.337 260.073L193.126 250.377C193.282 250.303 193.453 250.265 193.626 250.265C193.798 250.265 193.969 250.303 194.125 250.377L200.673 254.163C200.94 254.279 200.94 254.534 200.673 254.732ZM222.839 266.924L229.388 270.698C229.666 270.861 229.666 271.116 229.388 271.279L222.421 275.273C222.265 275.347 222.094 275.386 221.922 275.386C221.749 275.386 221.578 275.347 221.422 275.273L214.874 271.499C214.595 271.337 214.595 271.07 214.874 270.919L221.84 266.924C221.996 266.85 222.167 266.811 222.34 266.811C222.512 266.811 222.683 266.85 222.839 266.924ZM294.92 308.529L301.469 312.303C301.747 312.465 301.747 312.721 301.469 312.883L294.502 316.878C294.346 316.952 294.176 316.991 294.003 316.991C293.83 316.991 293.66 316.952 293.504 316.878L286.955 313.104C286.676 312.941 286.676 312.674 286.955 312.523L293.922 308.529C294.078 308.455 294.248 308.416 294.421 308.416C294.594 308.416 294.764 308.455 294.92 308.529ZM203.054 275.447C202.898 275.521 202.727 275.56 202.554 275.56C202.382 275.56 202.211 275.521 202.055 275.447L195.507 271.673C195.228 271.511 195.228 271.244 195.507 271.093L202.415 267.098C202.571 267.024 202.742 266.985 202.914 266.985C203.087 266.985 203.258 267.024 203.414 267.098L209.974 270.872C210.037 270.89 210.092 270.928 210.132 270.981C210.172 271.033 210.193 271.097 210.193 271.162C210.193 271.228 210.172 271.292 210.132 271.344C210.092 271.397 210.037 271.435 209.974 271.453L203.054 275.447ZM285.341 303.002L291.89 306.776C292.168 306.938 292.168 307.194 291.89 307.356L284.981 311.351C284.825 311.425 284.655 311.463 284.482 311.463C284.309 311.463 284.139 311.425 283.983 311.351L277.422 307.565C277.364 307.544 277.313 307.506 277.277 307.455C277.241 307.404 277.222 307.343 277.222 307.281C277.222 307.218 277.241 307.157 277.277 307.107C277.313 307.056 277.364 307.017 277.422 306.996L284.389 303.002C284.534 302.933 284.693 302.897 284.853 302.897C285.014 302.897 285.173 302.933 285.318 303.002H285.341ZM358.781 365.345C358.625 365.419 358.454 365.458 358.282 365.458C358.109 365.458 357.938 365.419 357.782 365.345L351.234 361.56C350.955 361.397 350.955 361.142 351.234 360.979L358.2 356.985C358.353 356.907 358.522 356.867 358.694 356.867C358.865 356.867 359.034 356.907 359.187 356.985L365.747 360.77C366.026 360.933 366.026 361.188 365.747 361.339L358.781 365.345ZM371.553 352.746L378.102 356.532C378.38 356.694 378.392 356.95 378.102 357.101L371.135 361.095C370.981 361.176 370.81 361.217 370.636 361.217C370.462 361.217 370.291 361.176 370.136 361.095L363.588 357.31C363.309 357.147 363.298 356.892 363.588 356.729L370.554 352.746C370.7 352.677 370.858 352.641 371.019 352.641C371.18 352.641 371.338 352.677 371.483 352.746H371.553ZM348.238 359.806L341.678 356.032C341.615 356.014 341.559 355.976 341.52 355.924C341.48 355.872 341.459 355.808 341.459 355.742C341.459 355.677 341.48 355.613 341.52 355.56C341.559 355.508 341.615 355.47 341.678 355.452L348.586 351.457C348.742 351.383 348.913 351.345 349.086 351.345C349.258 351.345 349.429 351.383 349.585 351.457L356.134 355.243C356.192 355.264 356.243 355.302 356.279 355.353C356.315 355.404 356.334 355.465 356.334 355.527C356.334 355.59 356.315 355.65 356.279 355.701C356.243 355.752 356.192 355.791 356.134 355.812L349.225 359.806C349.064 359.897 348.882 359.944 348.697 359.944C348.512 359.944 348.33 359.897 348.168 359.806H348.238ZM338.659 354.279L332.11 350.505C331.832 350.343 331.82 350.087 332.11 349.925L339.019 345.93C339.175 345.856 339.345 345.817 339.518 345.817C339.691 345.817 339.861 345.856 340.017 345.93L346.578 349.716C346.636 349.737 346.687 349.775 346.723 349.826C346.759 349.877 346.779 349.938 346.779 350C346.779 350.063 346.759 350.123 346.723 350.174C346.687 350.225 346.636 350.264 346.578 350.285L339.669 354.279C339.505 354.374 339.319 354.424 339.129 354.424C338.94 354.424 338.753 354.374 338.589 354.279H338.659ZM329.08 348.752L322.531 344.978C322.253 344.816 322.253 344.56 322.531 344.397L329.498 340.403C329.654 340.329 329.824 340.29 329.997 340.29C330.17 340.29 330.34 340.329 330.496 340.403L336.917 344.142C337.196 344.305 337.196 344.572 336.917 344.723L329.951 348.717C329.808 348.794 329.65 348.84 329.488 348.852C329.326 348.864 329.163 348.842 329.01 348.787L329.08 348.752ZM361.986 347.219L368.534 351.005C368.813 351.167 368.813 351.423 368.534 351.574L361.568 355.568C361.413 355.648 361.242 355.69 361.068 355.69C360.894 355.69 360.723 355.648 360.569 355.568L354.02 351.783C353.742 351.62 353.742 351.364 354.02 351.202L360.987 347.219C361.132 347.15 361.291 347.114 361.451 347.114C361.612 347.114 361.771 347.15 361.916 347.219H361.986ZM352.406 341.692L358.955 345.477C359.234 345.64 359.245 345.895 358.955 346.046L352.046 350.041C351.891 350.115 351.72 350.154 351.547 350.154C351.374 350.154 351.204 350.115 351.048 350.041L344.488 346.255C344.221 346.093 344.209 345.837 344.488 345.675L351.454 341.692C351.593 341.63 351.743 341.598 351.896 341.598C352.048 341.598 352.198 341.63 352.337 341.692H352.406ZM314.09 319.63L320.639 323.404C320.917 323.566 320.917 323.833 320.639 323.984L313.672 327.979C313.516 328.053 313.345 328.091 313.173 328.091C313 328.091 312.829 328.053 312.673 327.979L306.125 324.205C305.846 324.042 305.846 323.787 306.125 323.624L313.091 319.63C313.238 319.555 313.398 319.512 313.563 319.504C313.727 319.496 313.891 319.523 314.044 319.583L314.09 319.63ZM323.658 325.157L330.206 328.942C330.485 329.093 330.496 329.36 330.206 329.511L323.24 333.506C323.085 333.586 322.914 333.628 322.74 333.628C322.566 333.628 322.395 333.586 322.241 333.506L315.692 329.732C315.414 329.569 315.402 329.314 315.692 329.151L322.601 325.157C322.755 325.073 322.926 325.026 323.101 325.018C323.276 325.01 323.45 325.041 323.611 325.11L323.658 325.157ZM304.511 314.103L311.06 317.876C311.338 318.039 311.35 318.294 311.06 318.457L304.093 322.451C303.937 322.526 303.766 322.564 303.594 322.564C303.421 322.564 303.25 322.526 303.094 322.451L296.546 318.678C296.267 318.515 296.255 318.26 296.546 318.097L303.512 314.103C303.659 314.028 303.819 313.985 303.983 313.977C304.148 313.969 304.312 313.996 304.464 314.056L304.511 314.103ZM342.827 336.165L349.388 339.95C349.666 340.113 349.666 340.368 349.388 340.519L342.479 344.514C342.323 344.588 342.152 344.626 341.98 344.626C341.807 344.626 341.636 344.588 341.48 344.514L334.932 340.728C334.653 340.566 334.653 340.31 334.932 340.148L341.898 336.153C342.176 336.047 342.483 336.051 342.758 336.165H342.827ZM333.26 330.638L339.808 334.423C339.867 334.444 339.918 334.482 339.954 334.533C339.99 334.584 340.009 334.645 340.009 334.708C340.009 334.77 339.99 334.831 339.954 334.882C339.918 334.933 339.867 334.971 339.808 334.992L332.842 338.986C332.689 339.064 332.52 339.104 332.348 339.104C332.177 339.104 332.008 339.064 331.855 338.986L325.295 335.201C325.016 335.038 325.016 334.783 325.295 334.62L332.261 330.626C332.415 330.557 332.582 330.522 332.75 330.524C332.919 330.526 333.085 330.565 333.237 330.638H333.26ZM342.897 368.132L336.337 364.346C336.278 364.326 336.227 364.287 336.191 364.236C336.155 364.185 336.136 364.124 336.136 364.062C336.136 364 336.155 363.939 336.191 363.888C336.227 363.837 336.278 363.798 336.337 363.777L343.245 359.783C343.399 359.703 343.571 359.661 343.745 359.661C343.918 359.661 344.09 359.703 344.244 359.783L350.792 363.557C351.071 363.719 351.071 363.975 350.792 364.137L343.884 368.132C343.72 368.215 343.539 368.259 343.356 368.259C343.172 368.259 342.991 368.215 342.827 368.132H342.897ZM396.192 364.126L403.158 360.131C403.314 360.057 403.485 360.019 403.658 360.019C403.83 360.019 404.001 360.057 404.157 360.131L410.589 363.882C410.868 364.044 410.868 364.3 410.589 364.463L403.623 368.457C403.467 368.531 403.296 368.57 403.123 368.57C402.951 368.57 402.78 368.531 402.624 368.457L396.076 364.672C396.026 364.643 395.985 364.601 395.958 364.55C395.931 364.499 395.92 364.441 395.925 364.384C395.929 364.326 395.951 364.272 395.986 364.226C396.021 364.18 396.068 364.145 396.122 364.126H396.192ZM382.792 367.795L389.701 363.801C389.855 363.72 390.026 363.678 390.2 363.678C390.374 363.678 390.545 363.72 390.7 363.801L400.778 369.606C401.057 369.769 401.068 370.025 400.778 370.187L393.811 374.182C393.655 374.256 393.485 374.294 393.312 374.294C393.139 374.294 392.969 374.256 392.813 374.182L382.734 368.376C382.456 368.201 382.444 367.946 382.723 367.795H382.792ZM406.665 356.334L413.631 352.34C413.787 352.266 413.958 352.227 414.131 352.227C414.303 352.227 414.474 352.266 414.63 352.34L422.688 356.985C422.967 357.147 422.978 357.403 422.688 357.565L415.721 361.56C415.565 361.634 415.395 361.672 415.222 361.672C415.049 361.672 414.879 361.634 414.723 361.56L406.595 356.915C406.328 356.741 406.328 356.485 406.595 356.334H406.665ZM400.488 352.758C400.334 352.838 400.162 352.88 399.988 352.88C399.815 352.88 399.643 352.838 399.489 352.758L392.941 348.973C392.662 348.81 392.662 348.554 392.941 348.392L399.907 344.409C400.059 344.329 400.229 344.287 400.401 344.287C400.573 344.287 400.742 344.329 400.894 344.409L407.454 348.195C407.733 348.357 407.733 348.613 407.454 348.763L400.488 352.758ZM370.322 372.01L377.289 368.027C377.443 367.947 377.614 367.905 377.788 367.905C377.962 367.905 378.133 367.947 378.287 368.027L390.885 375.296C391.164 375.459 391.164 375.726 390.885 375.877L383.919 379.871C383.763 379.946 383.592 379.984 383.419 379.984C383.247 379.984 383.076 379.946 382.92 379.871L370.322 372.602C370.055 372.451 370.055 372.196 370.322 372.01ZM364.981 380.336L371.948 376.341C372.104 376.267 372.274 376.228 372.447 376.228C372.62 376.228 372.79 376.267 372.946 376.341L381.004 380.986C381.063 381.007 381.114 381.045 381.15 381.096C381.186 381.147 381.205 381.208 381.205 381.27C381.205 381.333 381.186 381.394 381.15 381.445C381.114 381.496 381.063 381.534 381.004 381.555L374.038 385.549C373.884 385.63 373.712 385.672 373.539 385.672C373.365 385.672 373.193 385.63 373.039 385.549L364.981 380.905C364.714 380.777 364.714 380.522 364.981 380.359V380.336ZM329.231 311.629C329.075 311.704 328.904 311.742 328.732 311.742C328.559 311.742 328.388 311.704 328.232 311.629L321.684 307.844C321.625 307.823 321.574 307.784 321.538 307.733C321.502 307.683 321.483 307.622 321.483 307.559C321.483 307.497 321.502 307.436 321.538 307.385C321.574 307.334 321.625 307.296 321.684 307.275L328.65 303.28C328.806 303.206 328.977 303.168 329.15 303.168C329.322 303.168 329.493 303.206 329.649 303.28L336.197 307.054C336.476 307.217 336.476 307.472 336.197 307.635L329.231 311.629ZM348.331 322.718C348.178 322.796 348.009 322.836 347.837 322.836C347.666 322.836 347.497 322.796 347.344 322.718L340.784 318.945C340.721 318.927 340.665 318.889 340.626 318.836C340.586 318.784 340.565 318.72 340.565 318.654C340.565 318.589 340.586 318.525 340.626 318.473C340.665 318.42 340.721 318.382 340.784 318.364L347.75 314.37C347.906 314.295 348.077 314.257 348.25 314.257C348.422 314.257 348.593 314.295 348.749 314.37L355.298 318.143C355.576 318.306 355.576 318.561 355.298 318.724L348.331 322.718ZM390.804 347.231C390.65 347.311 390.479 347.353 390.305 347.353C390.131 347.353 389.96 347.311 389.806 347.231L383.245 343.445C383.182 343.427 383.127 343.389 383.087 343.337C383.048 343.284 383.026 343.221 383.026 343.155C383.026 343.089 383.048 343.026 383.087 342.973C383.127 342.921 383.182 342.883 383.245 342.865L390.154 338.882C390.308 338.802 390.479 338.76 390.653 338.76C390.827 338.76 390.998 338.802 391.152 338.882L397.701 342.667C397.98 342.83 397.98 343.085 397.701 343.236L390.804 347.231ZM338.763 317.191C338.607 317.266 338.437 317.304 338.264 317.304C338.091 317.304 337.921 317.266 337.765 317.191L331.216 313.417C330.938 313.255 330.926 312.988 331.216 312.837L338.183 308.842C338.339 308.768 338.509 308.73 338.682 308.73C338.855 308.73 339.025 308.768 339.181 308.842L345.73 312.616C346.009 312.779 346.02 313.034 345.73 313.197L338.763 317.191ZM357.91 328.246C357.754 328.32 357.584 328.358 357.411 328.358C357.238 328.358 357.067 328.32 356.911 328.246L350.363 324.472C350.084 324.309 350.084 324.054 350.363 323.891L357.271 319.897C357.427 319.822 357.598 319.784 357.771 319.784C357.943 319.784 358.114 319.822 358.27 319.897L364.83 323.682C364.889 323.703 364.94 323.742 364.976 323.793C365.012 323.843 365.031 323.904 365.031 323.967C365.031 324.029 365.012 324.09 364.976 324.141C364.94 324.192 364.889 324.23 364.83 324.251L357.91 328.246ZM359.942 380.905C360.098 380.83 360.268 380.792 360.441 380.792C360.614 380.792 360.785 380.83 360.941 380.905L371.019 386.711C371.298 386.873 371.309 387.129 371.019 387.28L364.11 391.274C363.954 391.348 363.784 391.387 363.611 391.387C363.438 391.387 363.268 391.348 363.112 391.274L353.033 385.468C352.975 385.447 352.924 385.409 352.888 385.358C352.852 385.307 352.833 385.246 352.833 385.184C352.833 385.121 352.852 385.06 352.888 385.009C352.924 384.959 352.975 384.92 353.033 384.899L359.942 380.905ZM371.634 336.176C371.478 336.251 371.308 336.289 371.135 336.289C370.962 336.289 370.792 336.251 370.636 336.176L364.087 332.391C363.808 332.228 363.808 331.973 364.087 331.81L371.054 327.816C371.21 327.742 371.38 327.703 371.553 327.703C371.726 327.703 371.896 327.742 372.052 327.816L378.601 331.601C378.88 331.764 378.88 332.019 378.601 332.17L371.634 336.176ZM381.213 341.704C381.059 341.784 380.888 341.826 380.714 341.826C380.54 341.826 380.369 341.784 380.215 341.704L373.666 337.918C373.388 337.756 373.376 337.5 373.666 337.338L380.575 333.355C380.729 333.274 380.9 333.232 381.074 333.232C381.248 333.232 381.419 333.274 381.573 333.355L388.18 337.175C388.447 337.338 388.459 337.593 388.18 337.744L381.213 341.704ZM182.572 278.489C182.728 278.415 182.898 278.377 183.071 278.377C183.244 278.377 183.414 278.415 183.57 278.489L199.698 287.779C199.757 287.8 199.808 287.838 199.844 287.889C199.88 287.94 199.899 288.001 199.899 288.063C199.899 288.126 199.88 288.186 199.844 288.237C199.808 288.288 199.757 288.327 199.698 288.348L192.732 292.342C192.577 292.423 192.406 292.465 192.232 292.465C192.058 292.465 191.887 292.423 191.733 292.342L175.617 283.053C175.338 282.89 175.327 282.635 175.617 282.472L182.572 278.489ZM203.797 290.728C203.951 290.648 204.122 290.606 204.296 290.606C204.47 290.606 204.641 290.648 204.795 290.728L211.321 294.502C211.599 294.665 211.599 294.92 211.321 295.083L204.412 299.065C204.258 299.146 204.087 299.188 203.913 299.188C203.739 299.188 203.568 299.146 203.414 299.065L196.853 295.28C196.79 295.262 196.735 295.224 196.695 295.171C196.656 295.119 196.634 295.055 196.634 294.99C196.634 294.924 196.656 294.86 196.695 294.808C196.735 294.755 196.79 294.717 196.853 294.699L203.797 290.728ZM333.237 362.605L326.688 358.819C326.409 358.657 326.398 358.401 326.688 358.25L333.597 354.256C333.753 354.182 333.923 354.143 334.096 354.143C334.269 354.143 334.439 354.182 334.595 354.256L341.155 358.076C341.422 358.239 341.434 358.494 341.155 358.657L334.247 362.651C334.086 362.72 333.911 362.752 333.736 362.744C333.561 362.736 333.391 362.688 333.237 362.605ZM222.932 301.771C223.088 301.697 223.258 301.658 223.431 301.658C223.604 301.658 223.774 301.697 223.93 301.771L230.479 305.556C230.758 305.719 230.769 305.974 230.479 306.137L223.57 310.12C223.416 310.2 223.245 310.242 223.071 310.242C222.897 310.242 222.726 310.2 222.572 310.12L216.023 306.334C215.745 306.172 215.733 305.916 216.023 305.765L222.932 301.771ZM173.004 272.962C173.16 272.888 173.331 272.849 173.504 272.849C173.676 272.849 173.847 272.888 174.003 272.962L180.61 276.794C180.668 276.815 180.719 276.854 180.755 276.904C180.791 276.955 180.81 277.016 180.81 277.079C180.81 277.141 180.791 277.202 180.755 277.253C180.719 277.304 180.668 277.342 180.61 277.363L173.643 281.357C173.487 281.432 173.316 281.47 173.144 281.47C172.971 281.47 172.8 281.432 172.644 281.357L166.096 277.584C165.817 277.421 165.817 277.166 166.096 277.003L173.004 272.962ZM156.517 271.429L173.364 261.699C173.52 261.625 173.691 261.586 173.864 261.586C174.036 261.586 174.207 261.625 174.363 261.699L180.911 265.473C181.19 265.635 181.19 265.891 180.911 266.053L164.122 275.749C163.966 275.823 163.795 275.862 163.623 275.862C163.45 275.862 163.279 275.823 163.123 275.749L156.575 271.975C156.308 271.848 156.296 271.592 156.575 271.429H156.517ZM258.694 322.428C258.848 322.348 259.019 322.306 259.193 322.306C259.367 322.306 259.538 322.348 259.692 322.428L267.762 327.073C268.041 327.235 268.041 327.491 267.762 327.653L260.795 331.648C260.639 331.722 260.469 331.761 260.296 331.761C260.123 331.761 259.953 331.722 259.797 331.648L251.739 327.003C251.46 326.841 251.448 326.585 251.739 326.434L258.694 322.428ZM234.508 308.494C234.664 308.42 234.835 308.381 235.007 308.381C235.18 308.381 235.351 308.42 235.507 308.494L245.585 314.3C245.864 314.462 245.875 314.718 245.585 314.869L238.618 318.863C238.462 318.938 238.292 318.976 238.119 318.976C237.946 318.976 237.776 318.938 237.62 318.863L227.541 313.057C227.263 312.907 227.251 312.639 227.541 312.488L234.508 308.494ZM280.871 335.259C281.027 335.185 281.197 335.146 281.37 335.146C281.543 335.146 281.713 335.185 281.869 335.259L335.779 366.39C336.058 366.553 336.07 366.808 335.779 366.959L328.871 370.953C328.717 371.034 328.545 371.076 328.372 371.076C328.198 371.076 328.026 371.034 327.872 370.953L274.02 339.799C273.957 339.781 273.902 339.743 273.862 339.691C273.823 339.638 273.801 339.575 273.801 339.509C273.801 339.443 273.823 339.38 273.862 339.327C273.902 339.275 273.957 339.237 274.02 339.219L280.871 335.259ZM337.765 368.143C337.919 368.063 338.09 368.021 338.264 368.021C338.438 368.021 338.609 368.063 338.763 368.143L346.822 372.788C347.1 372.951 347.112 373.206 346.822 373.369L339.855 377.352C339.701 377.432 339.529 377.474 339.356 377.474C339.182 377.474 339.01 377.432 338.856 377.352L330.729 372.707C330.666 372.689 330.61 372.651 330.571 372.598C330.531 372.546 330.51 372.482 330.51 372.417C330.51 372.351 330.531 372.287 330.571 372.235C330.61 372.182 330.666 372.144 330.729 372.126L337.765 368.143ZM269.736 328.861C269.89 328.781 270.061 328.739 270.235 328.739C270.409 328.739 270.58 328.781 270.734 328.861L278.792 333.506C279.071 333.668 279.083 333.924 278.792 334.086L271.826 338.081C271.67 338.155 271.499 338.194 271.327 338.194C271.154 338.194 270.983 338.155 270.827 338.081L262.769 333.436C262.491 333.285 262.479 333.018 262.769 332.867L269.736 328.861ZM348.853 374.541C349.009 374.467 349.18 374.429 349.353 374.429C349.525 374.429 349.696 374.467 349.852 374.541L357.91 379.186C358.189 379.349 358.189 379.604 357.91 379.767L350.943 383.761C350.79 383.839 350.621 383.879 350.45 383.879C350.278 383.879 350.109 383.839 349.956 383.761L341.887 379.116C341.608 378.954 341.608 378.698 341.887 378.548L348.853 374.541ZM247.57 316.065C247.725 315.985 247.896 315.943 248.07 315.943C248.244 315.943 248.415 315.985 248.569 316.065L256.627 320.71C256.906 320.872 256.906 321.128 256.627 321.29L249.66 325.273C249.506 325.353 249.335 325.395 249.161 325.395C248.987 325.395 248.816 325.353 248.662 325.273L240.604 320.628C240.325 320.466 240.325 320.21 240.604 320.048L247.57 316.065ZM213.306 296.325C213.46 296.245 213.632 296.203 213.806 296.203C213.979 296.203 214.151 296.245 214.305 296.325L220.923 300.018C221.202 300.18 221.202 300.436 220.923 300.598L213.956 304.581C213.802 304.661 213.631 304.703 213.457 304.703C213.283 304.703 213.112 304.661 212.958 304.581L206.409 300.796C206.131 300.633 206.131 300.377 206.409 300.227L213.306 296.325ZM192.093 281.23L185.533 277.456C185.254 277.293 185.254 277.038 185.533 276.875L192.499 272.881C192.655 272.807 192.826 272.768 192.999 272.768C193.171 272.768 193.342 272.807 193.498 272.881L200.046 276.655C200.325 276.817 200.325 277.084 200.046 277.235L193.08 281.23C192.929 281.282 192.769 281.301 192.611 281.285C192.452 281.269 192.299 281.218 192.163 281.137L192.093 281.23ZM232.999 282.043L226.45 278.269C226.171 278.106 226.171 277.851 226.45 277.688L233.417 273.694C233.573 273.619 233.743 273.581 233.916 273.581C234.089 273.581 234.259 273.619 234.415 273.694L240.964 277.479C241.242 277.642 241.242 277.897 240.964 278.048L233.997 282.043C233.845 282.098 233.683 282.118 233.522 282.102C233.361 282.086 233.206 282.034 233.068 281.95L232.999 282.043ZM256.604 318.387L237.457 307.321C237.398 307.3 237.348 307.262 237.312 307.211C237.276 307.16 237.256 307.099 237.256 307.037C237.256 306.974 237.276 306.914 237.312 306.863C237.348 306.812 237.398 306.773 237.457 306.752L244.424 302.758C244.578 302.677 244.749 302.636 244.923 302.636C245.097 302.636 245.268 302.677 245.422 302.758L264.569 313.812C264.628 313.833 264.679 313.872 264.715 313.923C264.75 313.974 264.77 314.034 264.77 314.097C264.77 314.159 264.75 314.22 264.715 314.271C264.679 314.322 264.628 314.36 264.569 314.381L257.602 318.376C257.447 318.452 257.277 318.492 257.104 318.494C256.932 318.496 256.761 318.46 256.604 318.387ZM202.682 286.676C202.526 286.75 202.356 286.789 202.183 286.789C202.01 286.789 201.84 286.75 201.684 286.676L195.135 282.902C194.856 282.739 194.856 282.484 195.135 282.321L202.102 278.327C202.258 278.253 202.428 278.214 202.601 278.214C202.774 278.214 202.944 278.253 203.1 278.327L209.66 282.112C209.719 282.133 209.77 282.172 209.806 282.223C209.842 282.274 209.861 282.334 209.861 282.397C209.861 282.459 209.842 282.52 209.806 282.571C209.77 282.622 209.719 282.66 209.66 282.681L202.682 286.676ZM211.565 280.963L205.004 277.189C204.737 277.026 204.726 276.771 205.004 276.608L211.913 272.614C212.069 272.54 212.239 272.501 212.412 272.501C212.585 272.501 212.756 272.54 212.911 272.614L219.448 276.399C219.727 276.562 219.739 276.817 219.448 276.98L212.54 280.974C212.393 281.036 212.234 281.067 212.074 281.065C211.914 281.063 211.757 281.028 211.611 280.963H211.565ZM266.136 323.926L259.588 320.141C259.309 319.978 259.309 319.723 259.588 319.56L266.554 315.566C266.71 315.491 266.881 315.453 267.054 315.453C267.226 315.453 267.397 315.491 267.553 315.566L274.113 319.351C274.392 319.514 274.392 319.769 274.113 319.92L267.205 323.914C267.052 323.985 266.885 324.022 266.717 324.022C266.549 324.022 266.382 323.985 266.229 323.914L266.136 323.926ZM223.896 298.856C223.741 298.937 223.57 298.979 223.396 298.979C223.222 298.979 223.051 298.937 222.897 298.856L216.348 295.071C216.07 294.908 216.058 294.653 216.348 294.49L223.257 290.508C223.411 290.427 223.582 290.385 223.756 290.385C223.93 290.385 224.101 290.427 224.255 290.508L230.804 294.293C231.083 294.456 231.094 294.711 230.804 294.874L223.896 298.856ZM314.102 351.515L307.553 347.73C307.274 347.567 307.263 347.312 307.553 347.161L314.462 343.167C314.616 343.086 314.787 343.044 314.961 343.044C315.135 343.044 315.306 343.086 315.46 343.167L322.009 346.952C322.287 347.115 322.299 347.37 322.009 347.533L315.042 351.515C314.898 351.592 314.739 351.635 314.576 351.641C314.413 351.647 314.251 351.616 314.102 351.55V351.515ZM304.523 345.988L297.974 342.203C297.695 342.04 297.695 341.785 297.974 341.634L304.941 337.639C305.095 337.559 305.266 337.517 305.44 337.517C305.614 337.517 305.785 337.559 305.939 337.639L312.488 341.425C312.766 341.587 312.766 341.843 312.488 342.005L305.521 345.988C305.37 346.074 305.2 346.122 305.026 346.128C304.852 346.134 304.679 346.098 304.523 346.023V345.988ZM323.669 357.043L317.12 353.257C316.842 353.095 316.842 352.839 317.12 352.688L324.087 348.694C324.243 348.62 324.414 348.581 324.586 348.581C324.759 348.581 324.93 348.62 325.086 348.694L331.634 352.479C331.913 352.642 331.913 352.897 331.634 353.06L324.668 357.054C324.513 357.132 324.344 357.175 324.171 357.179C323.998 357.183 323.827 357.148 323.669 357.077V357.043ZM285.353 334.98L278.804 331.195C278.525 331.032 278.525 330.777 278.804 330.614L285.771 326.632C285.923 326.551 286.092 326.509 286.264 326.509C286.436 326.509 286.606 326.551 286.758 326.632L293.318 330.417C293.597 330.58 293.597 330.835 293.318 330.986L286.351 334.98C286.199 335.055 286.032 335.093 285.862 335.091C285.693 335.089 285.526 335.047 285.376 334.969L285.353 334.98ZM294.92 340.496L288.372 336.711C288.093 336.548 288.081 336.293 288.372 336.13L295.338 332.147C295.492 332.067 295.664 332.025 295.837 332.025C296.011 332.025 296.183 332.067 296.337 332.147L302.885 335.933C303.164 336.095 303.176 336.351 302.885 336.513L295.919 340.496C295.765 340.576 295.593 340.618 295.419 340.618C295.246 340.618 295.074 340.576 294.92 340.496ZM275.774 329.442L269.213 325.656C269.15 325.638 269.095 325.6 269.055 325.548C269.016 325.495 268.994 325.431 268.994 325.366C268.994 325.3 269.016 325.236 269.055 325.184C269.095 325.132 269.15 325.094 269.213 325.076L276.18 321.093C276.334 321.012 276.505 320.97 276.679 320.97C276.853 320.97 277.024 321.012 277.179 321.093L283.727 324.878C284.006 325.041 284.006 325.296 283.727 325.447L276.819 329.442C276.663 329.524 276.49 329.567 276.314 329.567C276.137 329.567 275.964 329.524 275.808 329.442H275.774ZM227.739 250.087C227.585 250.168 227.413 250.21 227.239 250.21C227.066 250.21 226.894 250.168 226.74 250.087L220.18 246.302C219.901 246.139 219.901 245.884 220.18 245.733L222.015 244.664C222.17 244.59 222.341 244.552 222.514 244.552C222.687 244.552 222.857 244.59 223.013 244.664L229.562 248.45C229.84 248.612 229.84 248.868 229.562 249.03L227.739 250.087ZM275.077 280.394C274.924 280.471 274.755 280.512 274.583 280.512C274.412 280.512 274.243 280.471 274.09 280.394L267.53 276.608C267.251 276.446 267.251 276.19 267.53 276.028L274.496 272.033C274.652 271.959 274.823 271.92 274.996 271.92C275.168 271.92 275.339 271.959 275.495 272.033L282.044 275.819C282.102 275.84 282.153 275.878 282.189 275.929C282.225 275.98 282.244 276.041 282.244 276.103C282.244 276.166 282.225 276.226 282.189 276.277C282.153 276.328 282.102 276.367 282.044 276.388L275.077 280.394ZM255.93 269.339C255.774 269.414 255.604 269.452 255.431 269.452C255.258 269.452 255.088 269.414 254.932 269.339L248.383 265.566C248.105 265.403 248.105 265.148 248.383 264.985L255.35 260.991C255.506 260.916 255.676 260.878 255.849 260.878C256.022 260.878 256.192 260.916 256.348 260.991L262.897 264.776C262.956 264.797 263.007 264.835 263.043 264.886C263.078 264.937 263.098 264.998 263.098 265.06C263.098 265.123 263.078 265.184 263.043 265.235C263.007 265.286 262.956 265.324 262.897 265.345L255.93 269.339ZM286.792 287.14C286.638 287.221 286.467 287.262 286.293 287.262C286.119 287.262 285.948 287.221 285.794 287.14L279.245 283.355C278.967 283.192 278.967 282.937 279.245 282.774L286.212 278.791C286.366 278.711 286.537 278.669 286.711 278.669C286.885 278.669 287.056 278.711 287.21 278.791L293.678 282.6C293.956 282.763 293.956 283.018 293.678 283.181L286.792 287.14ZM265.533 274.867C265.379 274.947 265.207 274.989 265.033 274.989C264.86 274.989 264.688 274.947 264.534 274.867L257.986 271.093C257.707 270.93 257.695 270.675 257.986 270.512L264.952 266.518C265.108 266.443 265.279 266.405 265.451 266.405C265.624 266.405 265.795 266.443 265.951 266.518L272.499 270.303C272.778 270.454 272.79 270.721 272.499 270.872L265.533 274.867ZM305.939 298.194C305.787 298.275 305.618 298.317 305.446 298.317C305.274 298.317 305.104 298.275 304.952 298.194L298.392 294.409C298.113 294.247 298.113 293.991 298.392 293.84L305.359 289.846C305.513 289.765 305.684 289.723 305.858 289.723C306.032 289.723 306.203 289.765 306.357 289.846L312.906 293.631C313.184 293.794 313.184 294.049 312.906 294.212L305.939 298.194ZM296.372 292.667C296.217 292.748 296.046 292.79 295.872 292.79C295.698 292.79 295.527 292.748 295.373 292.667L288.824 288.882C288.546 288.719 288.534 288.464 288.824 288.313L295.733 284.318C295.887 284.238 296.058 284.196 296.232 284.196C296.406 284.196 296.577 284.238 296.732 284.318L303.28 288.104C303.559 288.266 303.57 288.522 303.28 288.684L296.372 292.667ZM246.909 261.176C246.754 261.257 246.583 261.299 246.409 261.299C246.235 261.299 246.064 261.257 245.91 261.176L239.35 257.391C239.083 257.228 239.071 256.973 239.35 256.822L241.184 255.754C241.34 255.679 241.511 255.641 241.684 255.641C241.856 255.641 242.027 255.679 242.183 255.754L248.732 259.527C249.01 259.69 249.022 259.946 248.732 260.108L246.909 261.176ZM218.183 244.595C218.029 244.675 217.857 244.717 217.684 244.717C217.51 244.717 217.338 244.675 217.184 244.595L210.636 240.809C210.357 240.647 210.345 240.391 210.636 240.229L212.482 239.172C212.638 239.098 212.808 239.059 212.981 239.059C213.154 239.059 213.324 239.098 213.48 239.172L220.041 242.958C220.104 242.976 220.159 243.014 220.199 243.066C220.238 243.118 220.26 243.182 220.26 243.248C220.26 243.313 220.238 243.377 220.199 243.43C220.159 243.482 220.104 243.52 220.041 243.538L218.183 244.595ZM203.657 252.978C203.503 253.059 203.332 253.101 203.158 253.101C202.984 253.101 202.813 253.059 202.659 252.978L196.11 249.193C195.832 249.031 195.832 248.775 196.11 248.624L203.077 244.63C203.229 244.549 203.398 244.507 203.57 244.507C203.742 244.507 203.912 244.549 204.064 244.63L210.624 248.415C210.903 248.578 210.903 248.833 210.624 248.996L203.657 252.978ZM182.583 275.633L176.035 271.859C175.756 271.697 175.745 271.441 176.035 271.279L182.943 267.284C183.099 267.21 183.27 267.171 183.443 267.171C183.615 267.171 183.786 267.21 183.942 267.284L190.421 271.046C190.7 271.209 190.711 271.464 190.421 271.627L183.512 275.621C183.367 275.687 183.209 275.722 183.049 275.724C182.889 275.726 182.731 275.695 182.583 275.633ZM237.306 255.672C237.152 255.753 236.981 255.795 236.807 255.795C236.633 255.795 236.462 255.753 236.308 255.672L229.759 251.887C229.48 251.724 229.48 251.469 229.759 251.318L231.605 250.25C231.759 250.169 231.931 250.127 232.105 250.127C232.278 250.127 232.45 250.169 232.604 250.25L239.187 254.012C239.466 254.174 239.466 254.43 239.187 254.593L237.306 255.672ZM315.495 303.745C315.341 303.825 315.17 303.867 314.996 303.867C314.822 303.867 314.651 303.825 314.496 303.745L307.948 299.959C307.669 299.797 307.669 299.541 307.948 299.39L314.845 295.373C315.001 295.299 315.171 295.26 315.344 295.26C315.517 295.26 315.687 295.299 315.843 295.373L322.404 299.158C322.671 299.321 322.682 299.576 322.404 299.739L315.495 303.745Z" fill="#455A64"/>
<path d="M280.43 360.015L221.423 325.946C220.425 325.442 219.324 325.18 218.206 325.18C217.089 325.18 215.987 325.442 214.99 325.946L181.132 345.477C179.356 346.511 179.356 348.171 181.132 349.205L240.128 383.262C241.126 383.772 242.23 384.037 243.35 384.037C244.47 384.037 245.575 383.772 246.572 383.262L280.407 363.731C282.148 362.721 282.148 361.037 280.43 360.015Z" fill="#263238"/>
<path d="M290.415 101.736C308.853 118.306 324.784 117.435 334.746 109.76C344.697 128.942 360.627 148.195 379.065 152.92L389.596 181.369C389.596 181.369 383.953 187.872 383.953 203.431C384.009 209.952 384.887 216.44 386.566 222.742C388.482 230.417 390.955 238.359 390.955 251.632C390.955 260.619 389.794 269.363 385.219 277.317C382.458 282.13 378.483 286.134 373.689 288.928L389.701 279.639C394.75 276.846 398.945 272.732 401.834 267.737C406.386 259.771 407.547 251.039 407.547 242.04C407.547 228.78 405.074 220.826 403.158 213.139C401.488 206.84 400.622 200.356 400.581 193.84C400.581 178.28 406.223 171.778 406.223 171.778L395.704 143.329C377.266 138.603 361.335 119.351 351.385 100.168C341.422 107.844 325.492 108.715 307.054 92.1448L290.415 101.736Z" fill="#B9FA02"/>
<path opacity="0.8" d="M345.521 103.547L351.326 100.168C349.548 101.545 347.596 102.682 345.521 103.547Z" fill="white"/>
<path opacity="0.85" d="M307.03 92.168C322.206 105.8 335.675 107.623 345.521 103.571L334.746 109.783C324.784 117.458 308.853 118.329 290.415 101.759L307.03 92.168Z" fill="white"/>
<path opacity="0.65" d="M351.361 100.168C361.312 119.351 377.242 138.603 395.681 143.329L379.065 152.92C360.627 148.194 344.697 128.942 334.746 109.76L351.361 100.168Z" fill="white"/>
<path opacity="0.55" d="M395.681 143.329L406.2 171.778L389.596 181.369L379.065 152.92L395.681 143.329Z" fill="white"/>
<path opacity="0.4" d="M385.219 277.317C389.771 269.363 390.955 260.619 390.955 251.632C390.955 238.359 388.482 230.417 386.566 222.742C384.887 216.44 384.009 209.952 383.953 203.431C383.953 187.872 389.596 181.369 389.596 181.369L406.2 171.778C406.2 171.778 400.557 178.28 400.557 193.84C400.614 200.358 401.496 206.842 403.181 213.139C405.097 220.826 407.57 228.78 407.57 242.04C407.57 251.039 406.409 259.771 401.834 267.725C398.945 272.72 394.75 276.834 389.701 279.627L373.689 288.917C378.481 286.125 382.457 282.125 385.219 277.317Z" fill="white"/>
<path opacity="0.05" d="M385.219 277.317C389.771 269.363 390.955 260.619 390.955 251.632C390.955 238.359 388.482 230.417 386.566 222.742C384.887 216.44 384.009 209.952 383.953 203.431C383.953 187.872 389.596 181.369 389.596 181.369L406.2 171.778C406.2 171.778 400.557 178.28 400.557 193.84C400.614 200.358 401.496 206.842 403.181 213.139C405.097 220.826 407.57 228.78 407.57 242.04C407.57 251.039 406.409 259.771 401.834 267.725C398.945 272.72 394.75 276.834 389.701 279.627L373.689 288.917C378.481 286.125 382.457 282.125 385.219 277.317Z" fill="black"/>
<path d="M334.746 296.801C362.287 297.115 378.067 289.834 385.231 277.317C389.77 269.363 390.955 260.619 390.955 251.62C390.955 238.359 388.493 230.429 386.566 222.742C384.887 216.444 384.009 209.96 383.953 203.443C383.953 187.883 389.596 181.381 389.596 181.381L379.065 152.921C360.627 148.195 344.696 128.931 334.746 109.76C324.784 117.435 308.853 118.306 290.415 101.736L279.884 117.992C283.502 127.091 285.419 136.778 285.538 146.569C285.636 152.101 284.747 157.605 282.914 162.825C280.998 168.283 278.525 173.38 278.525 186.641C278.555 197.663 280.496 208.597 284.261 218.956C291.437 239.811 307.193 265.299 334.746 296.801Z" fill="#B9FA02"/>
<path opacity="0.75" d="M334.746 296.801C362.287 297.115 378.067 289.834 385.231 277.317C389.77 269.363 390.955 260.619 390.955 251.62C390.955 238.359 388.493 230.429 386.566 222.742C384.887 216.444 384.009 209.96 383.953 203.443C383.953 187.883 389.596 181.381 389.596 181.381L379.065 152.921C360.627 148.195 344.696 128.931 334.746 109.76C324.784 117.435 308.853 118.306 290.415 101.736L279.884 117.992C283.502 127.091 285.419 136.778 285.538 146.569C285.636 152.101 284.747 157.605 282.914 162.825C280.998 168.283 278.525 173.38 278.525 186.641C278.555 197.663 280.496 208.597 284.261 218.956C291.437 239.811 307.193 265.299 334.746 296.801Z" fill="white"/>
<path d="M338.009 289.649C359.338 289.393 373.132 284.052 379.007 273.775C382.328 267.969 383.802 261.142 383.802 251.62C383.803 243.318 382.631 235.058 380.319 227.085C380.099 226.202 379.866 225.343 379.657 224.472C377.822 217.612 376.87 210.545 376.824 203.443C376.824 192.099 379.541 184.679 381.701 180.568L373.573 158.738C353.834 151.876 339.564 132.379 332.006 119.595C327.934 121.326 323.553 122.211 319.129 122.196C310.212 122.196 301.144 118.875 292.087 112.314L287.849 118.887C290.935 127.811 292.566 137.173 292.679 146.615C292.782 152.965 291.76 159.282 289.66 165.275C289.44 165.902 289.207 166.53 288.975 167.157C287.28 171.801 285.678 176.179 285.678 186.711C285.717 196.938 287.524 207.081 291.019 216.692C298.067 237.152 313.869 261.699 338.009 289.649Z" fill="#B9FA02"/>
<path opacity="0.4" d="M338.009 289.649C359.338 289.393 373.132 284.052 379.007 273.775C382.328 267.969 383.802 261.142 383.802 251.62C383.803 243.318 382.631 235.058 380.319 227.085C380.099 226.202 379.866 225.343 379.657 224.472C377.822 217.612 376.87 210.545 376.824 203.443C376.824 192.099 379.541 184.679 381.701 180.568L373.573 158.738C353.834 151.876 339.564 132.379 332.006 119.595C327.934 121.326 323.553 122.211 319.129 122.196C310.212 122.196 301.144 118.875 292.087 112.314L287.849 118.887C290.935 127.811 292.566 137.173 292.679 146.615C292.782 152.965 291.76 159.282 289.66 165.275C289.44 165.902 289.207 166.53 288.975 167.157C287.28 171.801 285.678 176.179 285.678 186.711C285.717 196.938 287.524 207.081 291.019 216.692C298.067 237.152 313.869 261.699 338.009 289.649Z" fill="white"/>
<path opacity="0.15" d="M338.009 289.649C359.338 289.393 373.132 284.052 379.007 273.775C382.328 267.969 383.802 261.142 383.802 251.62C383.803 243.318 382.631 235.058 380.319 227.085C380.099 226.202 379.866 225.343 379.657 224.472C377.822 217.612 376.87 210.545 376.824 203.443C376.824 192.099 379.541 184.679 381.701 180.568L373.573 158.738C353.834 151.876 339.564 132.379 332.006 119.595C327.934 121.326 323.553 122.211 319.129 122.196C310.212 122.196 301.144 118.875 292.087 112.314L287.849 118.887C290.935 127.811 292.566 137.173 292.679 146.615C292.782 152.965 291.76 159.282 289.66 165.275C289.44 165.902 289.207 166.53 288.975 167.157C287.28 171.801 285.678 176.179 285.678 186.711C285.717 196.938 287.524 207.081 291.019 216.692C298.067 237.152 313.869 261.699 338.009 289.649Z" fill="black"/>
<path opacity="0.8" d="M374.119 279.686C366.85 286.095 354.775 289.451 338.009 289.648L348.702 283.552C357.329 283.669 365.917 282.363 374.119 279.686Z" fill="white"/>
<path opacity="0.15" d="M293.434 115.67L287.861 118.887L292.099 112.314L294.525 113.987L293.434 115.67Z" fill="black"/>
<path d="M295.245 162.059C297.345 156.066 298.367 149.748 298.264 143.399C298.151 133.957 296.52 124.594 293.434 115.67L294.525 113.986C302.769 119.432 311.013 122.196 319.141 122.196C323.565 122.211 327.946 121.326 332.017 119.595C339.576 132.368 353.846 151.875 373.585 158.738L381.713 180.568C379.553 184.678 376.836 192.098 376.836 203.443C376.882 210.545 377.834 217.611 379.669 224.472C379.878 225.343 380.11 226.202 380.331 227.084C382.642 235.058 383.815 243.318 383.814 251.62C383.814 261.142 382.34 267.969 379.019 273.775C377.27 276.766 374.893 279.341 372.052 281.323C364.923 284.574 355.425 286.277 343.559 286.432C319.431 258.471 303.628 233.935 296.581 213.475C293.084 203.865 291.277 193.721 291.239 183.494C291.239 172.962 292.853 168.585 294.549 163.94C294.792 163.313 295.025 162.686 295.245 162.059Z" fill="#174153"/>
<path d="M373.585 158.738L381.713 180.568C379.553 184.679 376.836 192.098 376.836 203.443C376.882 210.545 377.834 217.611 379.669 224.472C379.878 225.343 380.11 226.202 380.331 227.085C382.642 235.058 383.815 243.318 383.814 251.62C383.814 261.142 382.34 267.969 379.019 273.775C377.27 276.766 374.893 279.341 372.052 281.323C364.923 284.574 355.425 286.277 343.559 286.432V205.963L331.948 202.479V119.595C335.375 125.405 339.258 130.934 343.559 136.13C351.303 145.454 361.405 154.5 373.585 158.738Z" fill="#174153"/>
<path d="M315.681 176.26C315.805 176.032 315.953 175.818 316.122 175.621L316.18 175.552C316.519 175.183 316.91 174.866 317.341 174.611L321.207 172.382C321.906 171.99 322.656 171.701 323.437 171.522C323.904 171.42 324.377 171.346 324.853 171.302V159.853C324.853 154.105 327.025 149.565 330.81 147.382C334.595 145.199 338.937 145.57 343.384 148.171C351.652 152.944 358.119 164.59 358.119 174.681V188.197L365.829 192.644C366.058 192.776 366.275 192.928 366.479 193.097L366.688 193.259C367.003 193.512 367.261 193.829 367.443 194.19C367.625 194.55 367.728 194.946 367.744 195.35V241.715C367.74 241.915 367.713 242.114 367.663 242.307C367.42 243.088 366.905 243.755 366.212 244.188L365.782 244.467L363.89 245.559L361.904 246.72C361.129 247.149 360.29 247.45 359.419 247.614C357.044 248.139 354.559 247.819 352.395 246.708L317.294 226.446C316.752 226.205 316.283 225.825 315.936 225.343C315.589 224.861 315.377 224.296 315.321 223.705V177.363C315.348 176.971 315.472 176.593 315.681 176.26ZM350.572 174.681C350.572 167.296 345.556 158.169 339.622 154.743C337.602 153.582 335.791 153.28 334.641 153.954C333.283 154.732 332.482 156.938 332.482 159.853V173.369L342.456 179.174L350.583 183.819L350.572 174.681Z" fill="#263238"/>
<path d="M311.315 179.407C311.37 178.816 311.582 178.25 311.929 177.768C312.276 177.286 312.746 176.906 313.289 176.667L317.156 174.425C318.628 173.673 320.257 173.281 321.91 173.281C323.563 173.281 325.193 173.673 326.665 174.425L361.765 194.688C362.309 194.93 362.778 195.313 363.125 195.797C363.472 196.28 363.684 196.847 363.739 197.44V243.805C363.687 244.399 363.477 244.968 363.129 245.452C362.782 245.936 362.311 246.318 361.765 246.557L357.899 248.798C356.424 249.543 354.796 249.93 353.144 249.93C351.492 249.93 349.864 249.543 348.389 248.798L313.289 228.524C312.747 228.284 312.278 227.903 311.931 227.422C311.584 226.94 311.371 226.375 311.315 225.784V179.407Z" fill="#B9FA02"/>
<path opacity="0.4" d="M357.898 202.479L361.765 200.157C364.401 198.647 364.401 196.186 361.765 194.665L326.665 174.402C325.193 173.65 323.563 173.258 321.91 173.258C320.257 173.258 318.627 173.65 317.155 174.402L313.289 176.643C310.665 178.153 310.665 180.614 313.289 182.124L348.331 202.479C349.813 203.233 351.452 203.626 353.115 203.626C354.777 203.626 356.416 203.233 357.898 202.479Z" fill="white"/>
<path opacity="0.1" d="M353.138 203.559V249.925C354.798 249.95 356.437 249.55 357.899 248.764L361.777 246.604C362.323 246.363 362.793 245.979 363.139 245.492C363.484 245.006 363.691 244.435 363.739 243.84V197.44C363.686 198.03 363.476 198.596 363.131 199.078C362.786 199.559 362.319 199.94 361.777 200.18L357.899 202.421C356.436 203.205 354.797 203.597 353.138 203.559Z" fill="black"/>
<path d="M327.594 226.492L335.977 231.334L334.676 216.169C335.675 215.635 336.313 214.335 336.313 212.465C336.313 209.121 334.293 205.243 331.785 203.803C329.277 202.363 327.257 203.884 327.257 207.287C327.308 209.263 327.872 211.191 328.894 212.883L327.594 226.492Z" fill="#455A64"/>
<path d="M327.593 226.492L335.187 222.115L335.977 231.334L327.593 226.492Z" fill="#37474F"/>
<path d="M331.785 203.803C333.61 205.035 334.971 206.841 335.652 208.935L328.894 212.837C327.872 211.145 327.308 209.216 327.257 207.24C327.257 203.884 329.277 202.352 331.785 203.803Z" fill="#37474F"/>
<path d="M320.801 180.417V161.838C320.801 156.032 322.973 151.55 326.758 149.367C330.543 147.184 334.885 147.568 339.332 150.157C347.6 154.929 354.067 166.576 354.067 176.666V195.303C354.033 195.644 353.907 195.968 353.703 196.243C353.498 196.517 353.223 196.73 352.906 196.859C352.075 197.277 351.159 197.494 350.229 197.494C349.3 197.494 348.383 197.277 347.553 196.859C347.236 196.73 346.961 196.517 346.756 196.243C346.552 195.968 346.426 195.644 346.392 195.303V176.725C346.392 169.34 341.376 160.213 335.443 156.787C333.422 155.626 331.6 155.336 330.45 155.998C329.103 156.776 328.29 158.982 328.29 161.896V180.475C328.254 180.812 328.127 181.132 327.922 181.402C327.718 181.672 327.444 181.882 327.129 182.008C326.299 182.426 325.382 182.643 324.453 182.643C323.524 182.643 322.607 182.426 321.777 182.008C321.465 181.877 321.194 181.667 320.99 181.398C320.786 181.129 320.657 180.81 320.616 180.475L320.801 180.417Z" fill="#E0E0E0"/>
<path d="M275.681 261.943L270.572 258.993L268.551 256.532L273.66 259.481L275.681 261.943Z" fill="#B9FA02"/>
<path opacity="0.4" d="M275.681 261.943L270.572 258.993L268.551 256.532L273.66 259.481L275.681 261.943Z" fill="black"/>
<path d="M261.782 269.967L256.673 267.017L252.401 263.232L257.509 266.181L261.782 269.967Z" fill="#B9FA02"/>
<path opacity="0.4" d="M261.782 269.967L256.673 267.017L252.401 263.232L257.509 266.181L261.782 269.967Z" fill="black"/>
<path d="M218.287 280.162C217.078 281.782 216.346 283.709 216.174 285.724C217.374 284.098 218.104 282.174 218.287 280.162ZM206.409 280.313C208.128 268.608 214.409 257.089 221.91 252.7C225.509 250.621 228.877 250.552 231.501 252.108L236.308 254.883L236.586 255.046C236.801 255.162 237.006 255.294 237.202 255.44C237.613 255.71 238.001 256.013 238.363 256.346L238.525 256.497C238.676 256.648 238.827 256.822 238.967 256.985C239.106 257.147 239.326 257.403 239.477 257.612C239.824 258.069 240.138 258.55 240.418 259.052C240.557 259.307 240.708 259.574 240.836 259.853L282.856 235.596L287.965 238.534V241.797L287.524 242.04L287.117 242.284V242.969L287.965 243.457V245.35L281.788 258.413L275.681 261.896L273.66 259.435L268.273 262.663L265.184 267.958L261.771 269.92L257.509 266.135L252.273 269.165L250.508 276.423L241.73 281.497C241.284 283.347 240.73 285.169 240.07 286.955L239.872 287.523C236.946 295.187 232.302 301.759 227.1 304.79C226.467 305.153 225.807 305.468 225.126 305.731C224.765 305.874 224.397 305.998 224.023 306.102C223.702 306.192 223.376 306.266 223.048 306.323C222.019 306.515 220.964 306.515 219.936 306.323L219.506 306.218C219.303 306.183 219.104 306.125 218.914 306.044L218.461 305.87C218.297 305.809 218.138 305.735 217.985 305.649L217.556 305.429L217.335 305.301L217.231 305.243L212.412 302.468C208.534 300.215 206.014 294.525 206.014 286.478C206.01 284.403 206.162 282.33 206.467 280.278L206.409 280.313Z" fill="#B9FA02"/>
<path d="M219.843 290.032C221.852 288.87 223.489 285.387 223.489 282.31C223.489 279.233 221.852 277.665 219.843 278.826C217.835 279.988 216.186 283.471 216.186 286.56C216.186 289.648 217.823 291.193 219.843 290.032ZM211.565 283.262C213.283 271.557 219.576 259.981 227.077 255.649C230.56 253.652 233.753 253.501 236.366 254.883L236.644 255.046C236.859 255.162 237.065 255.294 237.26 255.44C237.671 255.71 238.059 256.013 238.421 256.346L238.584 256.497C238.734 256.648 238.885 256.822 239.025 256.985C239.164 257.147 239.385 257.403 239.536 257.612C239.882 258.069 240.197 258.55 240.476 259.052C240.615 259.307 240.766 259.574 240.894 259.853C241.648 261.432 242.194 263.103 242.52 264.823L287.954 238.534V241.797L287.512 242.04L287.106 242.284V242.969L287.954 243.457V245.35L281.777 258.413L275.669 261.896L273.649 259.435L268.261 262.663L265.173 267.958L261.759 269.92L257.498 266.135L252.261 269.165L250.496 276.423L241.718 281.497C241.272 283.347 240.718 285.169 240.058 286.955L239.861 287.524C236.935 295.187 232.29 301.759 227.089 304.79C226.455 305.153 225.796 305.468 225.115 305.731C224.754 305.874 224.386 305.998 224.012 306.102C223.691 306.192 223.365 306.266 223.036 306.323C222.008 306.515 220.953 306.515 219.925 306.323L219.495 306.218C219.292 306.183 219.093 306.125 218.903 306.044L218.45 305.87C218.286 305.809 218.127 305.735 217.974 305.649L217.544 305.429L217.324 305.301L217.219 305.243C213.504 302.921 211.112 297.289 211.112 289.428C211.115 287.364 211.267 285.304 211.565 283.262Z" fill="#B9FA02"/>
<path opacity="0.4" d="M216.186 286.513C216.186 289.625 217.823 291.158 219.832 289.997C221.84 288.836 223.489 285.352 223.489 282.275C223.489 279.198 221.852 277.63 219.832 278.791C219.232 279.142 218.707 279.608 218.287 280.162C218.11 282.175 217.378 284.1 216.174 285.724C216.161 285.987 216.165 286.251 216.186 286.513Z" fill="black"/>
<path opacity="0.4" d="M205.991 286.513C205.991 294.56 208.511 300.25 212.389 302.503L217.208 305.278C213.492 302.955 211.1 297.324 211.1 289.463C211.106 287.387 211.261 285.315 211.565 283.262C213.283 271.557 219.576 259.98 227.077 255.649C230.56 253.652 233.753 253.501 236.366 254.883L231.559 252.108C228.888 250.552 225.567 250.621 221.968 252.7C214.467 257.054 208.186 268.666 206.467 280.278C206.152 282.341 205.993 284.426 205.991 286.513Z" fill="white"/>
<path d="M211.1 289.463C211.1 297.324 213.492 302.932 217.208 305.278L212.389 302.503C208.511 300.25 205.991 294.56 205.991 286.513C205.991 286.211 205.991 285.909 205.991 285.619L211.088 288.569C211.112 288.859 211.1 289.161 211.1 289.463Z" fill="#B9FA02"/>
<path opacity="0.1" d="M211.1 289.463C211.1 297.324 213.492 302.932 217.208 305.278L212.389 302.503C208.511 300.25 205.991 294.56 205.991 286.513C205.991 286.211 205.991 285.909 205.991 285.619L211.088 288.569C211.112 288.859 211.1 289.161 211.1 289.463Z" fill="black"/>
<path opacity="0.15" d="M242.276 268.167V269.827L287.965 243.457L287.117 242.969V242.273L242.276 268.167Z" fill="black"/>
<path opacity="0.15" d="M242.276 268.864V269.827L287.965 243.457L287.117 242.969V242.958L242.276 268.864Z" fill="black"/>
<path opacity="0.15" d="M222.398 302.549C224.128 302.502 225.814 301.997 227.286 301.086C234.74 296.778 240.801 283.982 240.801 272.556C240.801 265.891 238.781 260.944 235.263 258.877C232.801 257.461 229.898 257.635 226.856 259.388C219.413 263.696 213.353 276.492 213.353 287.918C213.353 294.583 215.373 299.53 218.891 301.597C219.953 302.224 221.164 302.552 222.398 302.549ZM231.686 258.784C232.771 258.782 233.836 259.067 234.775 259.609C237.98 261.455 239.884 266.297 239.884 272.556C239.884 283.715 234.078 296.174 226.798 300.343C224.035 301.945 221.434 302.119 219.251 300.865C216.046 299.019 214.142 294.177 214.142 287.918C214.142 276.759 219.948 264.288 227.228 260.131C228.587 259.289 230.146 258.824 231.744 258.784H231.686Z" fill="black"/>
<path opacity="0.5" d="M240.836 259.853C241.59 261.432 242.136 263.103 242.462 264.823L287.954 238.534L282.845 235.596L240.836 259.853Z" fill="white"/>
<path d="M67.3438 388.266C67.1696 389.857 66.949 394.316 58.8677 395.431C50.7864 396.546 45.7008 393.863 43.5411 389.973C41.3815 386.083 41.8808 382.913 41.544 379.314C41.2073 375.714 38.2233 373.798 37.3641 371.94C36.1101 369.212 37.9446 364.973 37.9446 364.973L67.3438 388.266Z" fill="#B9FA02"/>
<path d="M126.363 375.656C126.552 376.307 126.604 376.99 126.514 377.662C126.424 378.334 126.194 378.98 125.84 379.558C124.031 380.989 121.948 382.036 119.72 382.635C117.492 383.234 115.165 383.372 112.882 383.041C107.951 382.369 103.253 380.526 99.1813 377.665C96.058 375.573 92.361 374.506 88.6036 374.611C84.7139 374.483 81.8692 373.624 81.5673 372.602C81.0564 370.802 81.0564 369.676 81.904 369.723L126.363 375.656Z" fill="#B9FA02"/>
<path d="M39.8721 358.75C40.8822 366.123 55.1754 365.531 54.0143 359.644L56.5571 341.75L40.383 342.249L39.8721 358.75Z" fill="#FFA8A7"/>
<path d="M66.8097 384.644C66.0898 383.308 64.0114 381.404 63.0941 380.208C58.2486 374.039 55.3251 366.58 54.6877 358.761C54.6877 358.332 54.6064 357.496 54.1652 357.228C53.724 356.961 53.2944 357.333 52.83 357.542C52.0305 357.881 51.1854 358.1 50.322 358.192C47.4657 358.517 44.2959 357.832 43.5876 357.925C42.8793 358.018 42.8561 359.725 42.9025 361.583C41.8808 360.944 41.544 359.667 40.6384 358.924C40.1391 358.517 39.9185 358.506 39.9301 357.844C39.9301 357.414 39.9301 357.02 39.9301 356.59C39.187 356.381 38.5716 359.191 37.9679 361.339C37.2712 363.836 36.4004 366.646 37.3757 369.177C38.0086 370.556 38.7871 371.864 39.6979 373.079C41.2413 375.189 42.2458 377.644 42.6239 380.231C42.74 381.392 42.6239 382.554 42.8096 383.645C43.077 385.544 43.883 387.327 45.1321 388.781C46.3812 390.236 48.0211 391.303 49.8575 391.855C54.7922 393.387 62.1884 393.144 66.531 389.706C68.0404 388.51 67.5295 385.944 66.8097 384.644Z" fill="#174153"/>
<path d="M85.2015 357.519C89.1261 360.561 93.8401 362.349 98.6587 360.155L99.8198 330.045L83.5644 332.96L85.2015 357.519Z" fill="#FFA8A7"/>
<path d="M123.077 370.454C121.997 370.106 120.94 369.723 119.895 369.293C116.976 368.104 114.157 366.683 111.466 365.043C110.305 364.323 109.143 363.568 107.982 362.721C106.821 361.873 105.66 360.956 104.499 360.027C103.895 359.496 103.346 358.904 102.862 358.262C101.884 357.064 101.065 355.745 100.424 354.337C100.327 354.005 100.112 353.72 99.8198 353.536C99.6233 353.467 99.4117 353.452 99.2075 353.493C99.0032 353.534 98.8136 353.629 98.6587 353.768C98.3794 353.996 98.0802 354.198 97.7647 354.372L96.8126 354.767C95.7964 355.182 94.7243 355.444 93.6312 355.545C89.5209 355.905 89.3931 355.08 89.219 356.404C89.1797 356.899 89.1797 357.396 89.219 357.89C87.0477 357.53 85.3409 356.834 85.248 356.009L84.9926 353.385C82.8329 353.188 82.6703 357.054 81.9737 361.397C81.4047 364.881 80.5571 367.447 81.5325 370.036C84.7952 372.881 90.5542 372.196 93.8285 372.73C98.4729 373.496 100.644 376.933 107.088 379.163C117.538 382.763 124.052 378.617 126.003 376.841C127.268 374.6 127.524 371.871 123.077 370.454Z" fill="#174153"/>
<path d="M44.4353 179.465C43.6109 192.238 42.1131 210.944 41.5906 225.703C40.6153 253.431 40.9984 285.05 40.9984 285.05C39.4474 290.865 38.4483 296.813 38.0144 302.816C37.3526 320.535 37.4687 360.317 37.4687 360.317C37.4687 360.317 44.8185 367.714 55.8025 361.908C55.8025 361.908 65.5442 306.172 68.2612 288.661C70.862 271.999 75.936 238.731 75.936 238.731L78.2582 286.014C76.4957 293.443 75.9119 301.104 76.5282 308.715C77.1204 316.843 81.7532 356.915 81.7532 356.915C85.9796 360.875 98.2873 358.715 100.981 355.568C100.981 355.568 105.289 296.348 105.776 287.779C106.81 269.281 109.562 200.296 108.18 189.59C106.798 178.884 44.4353 179.465 44.4353 179.465Z" fill="#151F23"/>
<path d="M75.9359 238.684L79.1638 217.342C79.1638 217.342 88.023 215.67 94.502 210.863C94.502 210.863 91.9823 216.564 82.1826 220.628L78.9548 240.507L78.1884 285.967L75.9359 238.684Z" fill="black"/>
<path d="M57.8344 93.8285C57.2422 96.2321 53.19 95.8606 51.3787 95.4077C50.3043 95.182 49.3497 94.5708 48.6952 93.6894C48.0406 92.808 47.7313 91.7175 47.8257 90.6237C46.9093 90.3787 46.0829 89.8748 45.4454 89.1722C45.0167 88.6058 44.7713 87.9219 44.7423 87.2121C44.7132 86.5023 44.9018 85.8006 45.2829 85.201C44.5474 84.6777 43.9699 83.9623 43.6136 83.1329C43.2573 82.3035 43.1359 81.3921 43.2626 80.4983C43.5108 79.2045 44.2205 78.045 45.2597 77.2354C46.2652 76.421 47.5187 75.9744 48.8126 75.9697C49.2306 75.9697 49.6486 76.8058 49.0448 76.8754C48.1039 77.0579 47.2178 77.4553 46.4556 78.0366C45.6623 78.5915 45.0487 79.3665 44.6907 80.2661C44.4675 80.9803 44.468 81.7457 44.6922 82.4597C44.9163 83.1736 45.3533 83.802 45.9447 84.2605C46.1568 83.9945 46.3939 83.7495 46.653 83.5289C47.4605 82.8065 48.52 82.4311 49.6022 82.4839C50.0021 82.474 50.3967 82.5779 50.74 82.7835C51.0832 82.989 51.3611 83.2878 51.5412 83.6451C51.8199 84.5508 50.8794 85.3172 50.1827 85.712C49.677 85.9979 49.1161 86.1727 48.5375 86.2248C47.9589 86.2768 47.3758 86.2049 46.8271 86.0138C46.7362 85.9841 46.6471 85.9492 46.5601 85.9093C46.4989 86.03 46.4447 86.1541 46.3975 86.2809C45.7705 87.9414 46.7807 88.9748 48.1392 89.4393C48.9636 87.7324 51.1929 86.4899 52.981 87.384C53.2079 87.483 53.4067 87.6367 53.5596 87.8314C53.7126 88.026 53.8149 88.2555 53.8575 88.4994C53.9 88.7433 53.8815 88.9939 53.8035 89.2288C53.7255 89.4638 53.5905 89.6757 53.4106 89.8457C52.667 90.5486 51.682 90.9393 50.6588 90.9372C50.1911 90.9716 49.7215 90.9716 49.2539 90.9372C49.1506 91.6814 49.3241 92.4375 49.7415 93.0622C50.1622 93.5383 50.6838 93.9146 51.2683 94.1637C51.8528 94.4127 52.4855 94.5283 53.1203 94.502C54.5623 94.6176 55.9922 94.1632 57.1029 93.2363C57.4396 92.946 57.9273 93.4686 57.8344 93.8285ZM47.2335 84.9107C47.6113 85.0182 48.0082 85.0406 48.3956 84.9763C48.7831 84.9121 49.1515 84.7628 49.4744 84.5392C49.9621 84.214 50.5078 83.738 49.637 83.6799C49.1685 83.6853 48.7077 83.7992 48.2906 84.0128C47.8736 84.2264 47.5117 84.5337 47.2335 84.9107ZM49.6602 89.7296C50.152 89.7501 50.6442 89.7032 51.1232 89.5903C51.4716 89.509 52.9926 88.731 52.2147 88.4291C51.6225 88.162 50.5775 88.7542 50.1595 89.1258C49.9671 89.3041 49.7992 89.5071 49.6602 89.7296Z" fill="#263238"/>
<path d="M55.0128 48.9144C54.7586 48.9504 54.5067 49.0008 54.2581 49.0653C54.4357 48.2991 54.3487 47.4954 54.0114 46.7849C53.6741 46.0744 53.1063 45.4989 52.4004 45.1522C51.4982 44.7902 50.4905 44.7938 49.5909 45.1623C48.6914 45.5309 47.9708 46.2352 47.5818 47.1262L52.8416 49.5298C51.1329 50.1381 49.7073 51.353 48.8358 52.9436C47.396 55.9162 49.3002 62.233 51.216 70.0128C52.2958 74.9193 53.7119 79.7457 55.4541 84.4578C56.3365 86.7802 57.9272 86.7802 57.9272 86.7802V79.0119L57.5905 72.5674C57.5905 72.5674 61.724 66.9125 62.1768 62.2795C62.769 56.3226 61.515 53.8842 61.515 53.8842L55.0128 48.9144Z" fill="#263238"/>
<path d="M83.5991 42.2376C81.0032 42.2422 78.4669 43.0168 76.3113 44.4635C74.1558 45.9101 72.4777 47.9637 71.4896 50.3644C70.5015 52.7651 70.2477 55.405 70.7604 57.95C71.273 60.495 72.5291 62.8307 74.3696 64.6615C76.2101 66.4924 78.5523 67.7361 81.0998 68.2352C83.6473 68.7344 86.2857 68.4665 88.681 67.4656C91.0762 66.4647 93.1208 64.7757 94.5558 62.6123C95.9909 60.449 96.752 57.9085 96.7428 55.3124C96.7383 53.5908 96.3947 51.887 95.7317 50.2982C95.0687 48.7094 94.0992 47.2668 92.8787 46.0527C91.6582 44.8386 90.2105 43.8768 88.6183 43.2222C87.0261 42.5676 85.3206 42.233 83.5991 42.2376Z" fill="#263238"/>
<path d="M57.8343 71.5454C56.2784 72.8924 55.0128 69.4089 53.7008 68.0619C52.3887 66.715 48.1391 64.8455 46.0259 69.3276C43.9127 73.8097 47.9766 80.0917 51.1696 81.5664C55.814 83.7377 57.9272 79.035 57.9272 79.035V98.4846C62.8387 107.333 73.4628 105.266 78.4903 106.508C79.2404 104.247 79.2404 101.803 78.4903 99.5413V93.2129C80.6051 93.6191 82.7656 93.7324 84.9112 93.5496C89.1609 92.8762 91.4366 89.381 92.7022 84.7828C94.7458 77.3977 95.1754 64.9848 92.3307 50.6444C87.5702 46.9751 71.4889 47.5789 61.5382 53.8492C62.2349 66.6221 59.3902 70.1985 57.8343 71.5454Z" fill="#FFA8A7"/>
<path d="M78.4788 93.213C78.4788 93.213 69.0042 91.3436 65.7066 89.5902C63.7336 88.5942 62.1128 87.0179 61.0622 85.0732C61.5682 87.0123 62.4608 88.8291 63.6863 90.4146C66.113 93.5034 78.4671 95.7444 78.4671 95.7444L78.4788 93.213Z" fill="#F28F8F"/>
<path d="M98.8213 63.8701C98.741 64.6194 98.4377 65.3273 97.9504 65.9022C97.789 66.1217 97.6708 66.37 97.6021 66.6337C97.3575 68.4879 96.9693 70.3203 96.441 72.1144C96.0138 73.3055 95.2239 74.3326 94.1825 75.0512C93.1411 75.7698 91.9005 76.1438 90.6355 76.1205C89.9671 76.1529 89.2972 76.11 88.6384 75.9927C88.5884 76.0006 88.5375 76.0006 88.4874 75.9927C87.9098 75.8785 87.3535 75.6748 86.8387 75.3889H86.7458L86.5948 75.296L86.4323 75.1683C86.3712 75.1404 86.3159 75.101 86.2697 75.0522C86.2006 75.0163 86.1378 74.9692 86.084 74.9128L85.9214 74.7503L85.5963 74.4368C85.0459 73.8262 84.5953 73.1326 84.261 72.3815C83.367 70.4888 83.5412 67.8065 82.1478 67.5394C82.0899 67.5449 82.0316 67.5449 81.9737 67.5394H81.7879C79.8837 67.6091 80.1624 70.512 79.1406 72.6137C78.5749 73.9444 77.6149 75.0696 76.39 75.8378C75.1651 76.606 73.7342 76.9802 72.2901 76.9101H71.7676H71.338C71.0069 76.892 70.6773 76.8532 70.351 76.7939L70.0375 76.7243L69.7356 76.643H69.5499C69.1482 76.5129 68.7595 76.3457 68.3888 76.1437C68.261 76.0508 68.1333 75.9811 68.0056 75.8998C67.7784 75.7266 67.5613 75.5405 67.3554 75.3425C66.8109 74.7915 66.3773 74.1411 66.0782 73.4265C65.5125 71.6689 65.0969 69.8665 64.8358 68.0387C64.7758 67.7617 64.6656 67.498 64.5107 67.2607C64.0038 66.7292 63.668 66.0577 63.547 65.3332C63.5155 64.9544 63.6131 64.5762 63.824 64.2599C64.0348 63.9437 64.3464 63.7081 64.7081 63.5914L65.7066 63.4289C68.9461 62.976 73.1725 62.7205 75.7153 63.3592C78.92 64.1604 80.0462 65.159 81.8111 65.101C83.576 65.0429 84.5049 63.9398 87.5121 62.9063C89.8343 62.0703 93.8517 62.0355 96.8706 62.2445C97.2073 62.2445 97.4976 62.2445 97.8111 62.3141C98.3104 62.2212 98.8677 62.9992 98.8213 63.8701ZM77.9795 66.2621C77.7293 65.9617 77.4161 65.7199 77.0622 65.5538C77.0066 65.5184 76.9484 65.4873 76.888 65.4609H76.8068C76.6526 65.4028 76.5015 65.3369 76.3539 65.2635C76.2262 65.2635 76.0753 65.1706 75.9359 65.1126C75.4884 64.9479 75.0307 64.8122 74.5658 64.7061L74.0201 64.59C73.5673 64.5088 73.0912 64.4391 72.6268 64.3926H72.2901C69.2364 64.2068 67.3438 64.9616 66.6703 65.5538C65.9969 66.146 66.3452 69.0373 66.6703 70.4539C66.6703 70.4539 66.6703 70.5352 66.6703 70.5585C66.66 70.5965 66.66 70.6366 66.6703 70.6746C66.703 70.8673 66.7495 71.0575 66.8097 71.2435C66.8337 71.3664 66.8687 71.4869 66.9142 71.6035C66.9838 71.8009 67.0535 71.9983 67.1348 72.2073C67.1537 72.2781 67.1852 72.345 67.2277 72.4047C67.2371 72.4511 67.257 72.4948 67.2857 72.5324C67.2857 72.5324 67.2857 72.6137 67.2857 72.6602L67.3786 72.8343C67.3786 72.904 67.4483 72.9621 67.4947 73.0201C67.5262 73.0925 67.5693 73.1592 67.6224 73.2175C67.6582 73.2875 67.701 73.3536 67.7502 73.4149C68.239 74.0834 68.8929 74.6135 69.6479 74.9534C70.403 75.2933 71.2334 75.4313 72.0578 75.3541C72.9025 75.4068 73.7485 75.2763 74.5381 74.9717C75.3277 74.6671 76.0422 74.1954 76.6326 73.5891C77.3571 72.7559 77.8496 71.7467 78.0608 70.663C78.4091 69.0025 78.5949 67.1214 77.9795 66.2621ZM95.9185 64.4275C95.7037 64.2196 95.4461 64.0611 95.1638 63.963L94.8387 63.8353H94.6413H94.4671H94.351H94.1768C93.9429 63.7874 93.7064 63.7525 93.4686 63.7308H93.0854H92.8648C92.8034 63.7421 92.7405 63.7421 92.679 63.7308C92.5167 63.7194 92.3537 63.7194 92.1914 63.7308H91.8431C91.3723 63.7554 90.9033 63.8058 90.4381 63.8817C88.2669 64.2417 86.0027 65.2983 85.4337 66.2041C84.8648 67.1098 85.0274 68.956 85.3409 70.5585C85.414 70.9168 85.5109 71.2698 85.6311 71.6151C85.64 71.6415 85.64 71.67 85.6311 71.6964C85.6265 71.735 85.6265 71.7739 85.6311 71.8125C85.6311 71.8125 85.6311 71.8125 85.6311 71.8822C85.6483 71.9257 85.6676 71.9684 85.6892 72.0099C85.6892 72.1028 85.7705 72.1841 85.8169 72.2654C85.8509 72.345 85.8897 72.4226 85.933 72.4976V72.5673L86.0259 72.7298L86.1188 72.8576C86.625 73.5773 87.3199 74.1434 88.127 74.4937C88.9341 74.844 89.8222 74.9649 90.6935 74.8432C91.5038 74.8235 92.2985 74.6169 93.0157 74.2394C95.1522 73.0782 95.6515 70.663 95.8953 69.5947C96.2204 67.8761 96.5803 65.0197 95.9185 64.4275Z" fill="#263238"/>
<path d="M64.9054 63.4871L50.9721 66.6106C52.2298 66.9344 53.3495 67.6552 54.1652 68.6659L64.917 66.6222L64.9054 63.4871Z" fill="#263238"/>
<path d="M96.1255 69.245C95.8732 70.4524 95.3567 72.9518 93.1461 74.0747C92.4041 74.4672 91.5818 74.6821 90.7434 74.7025C89.8418 74.8291 88.923 74.7034 88.0879 74.3391C87.2528 73.9749 86.5338 73.3862 86.01 72.6378L85.9139 72.505L85.8178 72.336V72.2635C85.773 72.1855 85.7329 72.1049 85.6977 72.0221C85.6977 71.9375 85.6136 71.853 85.5655 71.7564C85.5433 71.7132 85.5232 71.6689 85.5054 71.6236C85.5054 71.6236 85.5054 71.6236 85.5054 71.5512C85.5007 71.5111 85.5007 71.4705 85.5054 71.4304C85.5146 71.403 85.5146 71.3733 85.5054 71.3459C85.3811 70.9868 85.2807 70.6197 85.2051 70.2472C84.8807 68.5809 84.7006 66.6249 85.3012 65.7193C85.9019 64.8138 88.2326 63.6667 90.4791 63.3045C90.9605 63.2256 91.4457 63.1732 91.9328 63.1476H92.2932C92.4612 63.1357 92.6298 63.1357 92.7977 63.1476C92.8613 63.1594 92.9264 63.1594 92.99 63.1476H93.2182H93.6147C93.8607 63.1702 94.1054 63.2065 94.3475 63.2562H94.5277H94.6479H94.8281H95.0323L95.3687 63.389C95.6608 63.491 95.9273 63.6559 96.1496 63.872C96.8103 64.7534 96.4379 67.7237 96.1255 69.245Z" fill="#174153"/>
<path d="M78.0608 70.6167C77.8574 71.7169 77.3644 72.743 76.6326 73.5893C76.0568 74.1918 75.3593 74.665 74.5866 74.9773C73.8139 75.2896 72.9835 75.4339 72.1508 75.4007C71.3263 75.4779 70.4959 75.3399 69.7408 75C68.9858 74.6601 68.3318 74.13 67.843 73.4615C67.7939 73.4002 67.7511 73.3341 67.7153 73.2641C67.6622 73.2058 67.6191 73.1391 67.5876 73.0667C67.5876 73.0087 67.5179 72.9506 67.4715 72.8809L67.3786 72.7068C67.3786 72.7068 67.3786 72.6255 67.3786 72.579C67.3499 72.5414 67.33 72.4977 67.3206 72.4513C67.2781 72.3916 67.2466 72.3247 67.2277 72.2539C67.1464 72.0449 67.0767 71.8475 67.007 71.6501C66.9616 71.5335 66.9266 71.413 66.9025 71.2901C66.8424 71.1041 66.7958 70.9139 66.7632 70.7212C66.7529 70.6832 66.7529 70.6431 66.7632 70.6051C66.7632 70.6051 66.7632 70.5354 66.7632 70.5005C66.4497 69.0839 66.0666 66.2507 66.7632 65.6004C67.4599 64.9502 69.3293 64.1954 72.383 64.4392H72.7197C73.1841 64.4392 73.6602 64.5554 74.113 64.6366L74.6587 64.7527C75.1236 64.8588 75.5813 64.9945 76.0288 65.1592C76.1682 65.1592 76.3191 65.2521 76.4468 65.3101C76.5943 65.3835 76.7455 65.4494 76.8997 65.5075H76.9809C77.0413 65.5339 77.0996 65.565 77.1551 65.6004C77.509 65.7665 77.8221 66.0083 78.0724 66.3087C78.5948 67.1215 78.4091 69.0026 78.0608 70.6167Z" fill="#174153"/>
<path d="M95.547 40.5074C95.547 40.3565 95.547 40.1939 95.4889 40.0314C95.4695 39.7313 95.3603 39.444 95.1754 39.2069C94.5368 38.5451 93.2596 40.2171 92.8532 40.6003C92.4186 40.979 91.9652 41.3356 91.4947 41.6686C91.0514 41.8892 90.6246 42.1415 90.2175 42.4234C90.5021 40.8453 90.5021 39.229 90.2175 37.651C90.0201 36.6059 89.7298 34.1674 88.4294 33.9236C87.6631 33.761 86.9896 34.4113 86.4207 34.9454C81.2306 39.7991 74.4497 37.5581 68.203 37.7555C62.9664 37.918 56.6616 40.0778 54.2697 45.1405C53.1899 47.4629 53.0041 49.9129 55.1406 51.5153C56.5107 52.5604 57.8576 52.5139 58.6239 54.1744C58.8097 54.5808 60.0056 59.5274 59.2973 59.481C60.5798 59.6117 61.8671 59.2833 62.9302 58.554C63.9933 57.8246 64.7632 56.7418 65.1029 55.4982C65.2306 54.9524 65.5208 53.9654 65.637 53.4081C65.6655 53.2447 65.7288 53.0893 65.8224 52.9525C65.9161 52.8156 66.038 52.7004 66.1799 52.6145C66.3218 52.5287 66.4805 52.4743 66.6452 52.455C66.8099 52.4356 66.9768 52.4518 67.1348 52.5023C68.7255 52.8507 69.7589 53.5009 71.2567 53.9074C75.5341 55.1375 80.0311 55.4032 84.4236 54.6853C87.5685 54.0884 90.4542 52.54 92.6906 50.2497C93.8258 48.9184 94.667 47.3625 95.1592 45.6836C95.6514 44.0048 95.7836 42.2409 95.547 40.5074Z" fill="#263238"/>
<path d="M75.1465 60.9209L70.5021 61.6292C70.4211 61.0076 70.5838 60.3787 70.9561 59.8744C71.3284 59.3701 71.8813 59.0294 72.4992 58.9236C72.8045 58.8778 73.116 58.8934 73.4152 58.9694C73.7145 59.0454 73.9957 59.1803 74.2422 59.3663C74.4887 59.5523 74.6957 59.7856 74.8509 60.0525C75.0062 60.3194 75.1067 60.6146 75.1465 60.9209Z" fill="#263238"/>
<path d="M76.2146 82.2632L80.0811 83.2734C80.0265 83.531 79.9206 83.775 79.7697 83.9909C79.6188 84.2067 79.426 84.39 79.2029 84.5298C78.9797 84.6696 78.7306 84.763 78.4706 84.8045C78.2105 84.846 77.9448 84.8347 77.6892 84.7713C77.1673 84.6242 76.7226 84.2811 76.4478 83.8137C76.173 83.3463 76.0894 82.7907 76.2146 82.2632Z" fill="#F28F8F"/>
<path d="M92.5398 61.1879L87.8953 60.6769C87.9139 60.3723 87.9942 60.0747 88.1313 59.802C88.2685 59.5294 88.4595 59.2874 88.693 59.0909C88.9265 58.8943 89.1974 58.7473 89.4894 58.6586C89.7814 58.57 90.0884 58.5416 90.3917 58.5752C91.0157 58.6538 91.586 58.9683 91.9855 59.4542C92.3849 59.94 92.5833 60.5604 92.5398 61.1879Z" fill="#263238"/>
<path d="M81.2769 67.5743L81.9039 78.408L87.9417 76.8288L81.9155 67.4466C81.6957 67.4394 81.4771 67.4831 81.2769 67.5743Z" fill="#F28F8F"/>
<path d="M55.3381 75.0988C55.3404 75.6596 55.1762 76.2085 54.8663 76.676C54.5564 77.1434 54.1147 77.5084 53.5973 77.7246C53.0798 77.9408 52.5098 77.9986 51.9595 77.8906C51.4091 77.7826 50.9032 77.5137 50.5059 77.1179C50.1085 76.7221 49.8375 76.2173 49.7272 75.6674C49.617 75.1175 49.6724 74.5472 49.8865 74.0288C50.1006 73.5105 50.4637 73.0673 50.9298 72.7554C51.396 72.4436 51.9442 72.2771 52.505 72.2771C52.8765 72.2756 53.2446 72.3474 53.5883 72.4886C53.932 72.6297 54.2444 72.8373 54.5076 73.0994C54.7708 73.3616 54.9797 73.6732 55.1222 74.0163C55.2647 74.3594 55.3381 74.7272 55.3381 75.0988Z" fill="#263238"/>
<path d="M55.6399 69.9315C55.3968 69.0749 54.9687 68.2822 54.3859 67.6091C54.0902 67.3266 53.7367 67.1118 53.3497 66.9794C52.9628 66.8471 52.5517 66.8005 52.145 66.8428C52.145 66.8428 52.0637 66.9357 52.145 66.9589C52.4585 67.1447 52.6791 67.2492 52.9926 67.4698C53.3051 67.6812 53.5932 67.9266 53.8518 68.2013C54.0791 68.4649 54.2633 68.7627 54.3975 69.0838C54.5642 69.4521 54.6738 69.8437 54.7226 70.245C54.7989 70.877 54.7067 71.5179 54.4555 72.1029C54.3256 72.4271 54.1454 72.7289 53.9214 72.997C53.6802 73.1936 53.4689 73.4244 53.2944 73.6821C53.1203 74.042 53.6196 74.6574 54.0027 74.4484C54.7284 73.9921 55.274 73.2988 55.547 72.4861C55.8873 71.6741 55.9203 70.766 55.6399 69.9315Z" fill="#263238"/>
<path d="M95.8837 108.506C99.8083 111.083 105.231 114.428 106.554 118.062C107.878 121.697 111.698 142.772 112.116 149.565C108.636 151.204 104.909 152.255 101.085 152.677L95.8837 108.506Z" fill="#091A21"/>
<path d="M49.5209 98.4614C39.5819 103.919 29.7821 112.07 27.6689 115.206C27.6689 115.206 33.4745 134.562 38.5949 143.747C43.7154 152.932 46.4556 180.092 46.4556 180.092C46.4556 180.092 81.4745 191.703 92.4469 192.621C103.419 193.538 104.813 188.87 104.813 188.87C104.813 188.87 105.045 158.506 102.49 138.243C99.936 117.981 100.493 111.954 95.8489 108.506C92.8416 106.288 79.8837 100.668 79.8837 100.668V106.474C72.801 106.613 49.5209 98.4614 49.5209 98.4614Z" fill="#174153"/>
<path d="M82.6124 109.585C83.255 108.275 83.5127 106.81 83.3555 105.359L80.4295 103.234V106.915L82.6124 109.585Z" fill="#B9FA02"/>
<path opacity="0.25" d="M82.6124 109.585C83.255 108.275 83.5127 106.81 83.3555 105.359L80.4295 103.234V106.915L82.6124 109.585Z" fill="black"/>
<path d="M76.9229 107.344L69.3525 103.025L63.663 107.53L75.158 112.303L76.9229 107.344Z" fill="#B9FA02"/>
<path opacity="0.25" d="M76.9229 107.344L69.3525 103.025L63.663 107.53L75.158 112.303L76.9229 107.344Z" fill="black"/>
<path d="M57.9274 90.2405V91.7732C58.2176 93.2247 61.0739 96.5921 68.2844 99.8201C75.4948 103.048 78.4905 106.497 78.4905 106.497C76.5428 106.549 74.6153 106.906 72.7778 107.554C69.4919 108.715 64.0347 112.895 62.4789 112.848C60.923 112.802 58.7749 108.506 54.6995 104.221C51.2161 100.621 49.5209 98.4151 49.5209 98.4151C49.5209 98.4151 55.1175 90.2753 57.9274 90.2405Z" fill="#091A21"/>
<path d="M78.4903 106.497C81.1028 106.787 83.5527 108.598 84.1913 107.658C84.8299 106.717 82.6122 97.9738 78.5135 95.3147L78.4903 106.497Z" fill="#091A21"/>
<path d="M103.803 152.317C103.803 152.317 104.116 157.739 104.197 159.597C104.279 161.455 101.178 193.271 101.178 193.271L112.116 197.916C112.116 197.916 113.44 185.654 113.869 178.826C114.223 171.795 113.909 164.746 112.929 157.774C112.07 151.968 111.768 149.739 111.768 149.739C109.208 150.869 106.539 151.733 103.803 152.317Z" fill="#F28F8F"/>
<path d="M111.234 213.464C111.234 213.464 111.234 213.952 111.234 215.786C110.96 218.856 110.344 221.886 109.399 224.82C108.714 226.539 107.077 230.313 106.218 230.754C105.406 231.207 104.465 231.374 103.547 231.23C101.817 231.067 100.006 231.961 98.3686 231.172C97.7344 230.826 97.0648 230.55 96.3715 230.347C95.3613 230.104 94.2002 230.405 93.2946 229.871C92.714 229.535 92.354 228.908 91.7851 228.559C90.9491 228.048 89.8461 228.234 88.952 227.828C88.6001 227.648 88.2882 227.399 88.0348 227.095C87.7815 226.792 87.5919 226.441 87.4774 226.063C86.9665 224.53 87.4774 222.8 87.7793 221.267C87.2427 220.513 86.9693 219.603 87.0014 218.678C86.9673 216.693 87.1976 214.714 87.6864 212.79C88.0696 211.629 96.0115 207.112 96.0115 207.112L97.579 206.079C100.911 205.337 104.401 205.897 107.332 207.646C111.988 210.607 111.234 213.464 111.234 213.464Z" fill="#FFA8A7"/>
<path d="M109.085 213.243C111.187 216.727 109.956 223.009 109.945 223.078C110.603 220.701 111.034 218.268 111.233 215.809C111.233 213.951 111.233 213.487 111.233 213.487C111.233 213.487 111.988 210.584 107.39 207.681C104.459 205.932 100.969 205.371 97.6369 206.114C97.6369 206.114 106.984 209.725 109.085 213.243Z" fill="#F28F8F"/>
<path d="M87.8373 221.232C88.5779 218.967 89.7226 216.854 91.2161 214.997C92.0985 214.184 92.8417 213.15 91.9592 213.499C91.0768 213.847 89.846 214.044 89.3583 213.429C88.8707 212.814 88.7662 213.882 89.3583 214.718C89.9505 215.554 89.4512 216.193 88.8126 217.563C88.3224 218.736 87.9943 219.97 87.8373 221.232Z" fill="#F28F8F"/>
<path d="M30.6992 115.589C27.3901 116.75 26.9489 125.807 27.6687 133.935C28.3886 142.064 34.7283 161.281 37.6194 167.969C40.8589 175.482 42.8211 179.813 44.9808 182.17C47.1405 184.528 51.6572 186.467 57.4394 189.463C62.6644 192.168 66.2406 193.538 75.1579 196.302C85.213 199.425 89.0911 199.611 91.2276 201.109C93.364 202.607 93.9677 205.858 96.0693 207.078L97.6368 206.044C101.172 206.893 104.547 208.304 107.634 210.224C109.017 211.082 110.236 212.179 111.233 213.464V215.786C111.233 215.786 113.776 216.855 115.936 212.303C118.095 207.751 119.082 200.923 116.598 197.939C114.113 194.955 106.241 190.868 99.8545 188.87C93.4685 186.873 90.2987 184.783 82.8444 180.278C74.9024 175.482 69.3872 172.289 65.4278 170.129C63.93 169.258 62.9198 168.202 62.2464 165.484C61.7123 163.301 60.1216 156.845 59.1463 151.992C57.5904 143.875 54.0955 119.328 30.6992 115.589Z" fill="#FFA8A7"/>
<path d="M27.6688 115.206C27.6688 115.206 26.1246 115.473 25.9156 121.906C25.6407 127.992 25.9323 134.092 26.7864 140.124C27.634 145.059 32.5919 159.632 32.5919 159.632C32.5919 159.632 46.8387 164.277 61.4221 158.738C61.4221 158.738 57.9969 137.721 56.708 132.147C55.4192 126.573 37.3641 109.377 27.6688 115.206Z" fill="#091A21"/>
<path d="M78.084 115.624C78.8967 120.849 80.0114 133.262 80.0114 150.784C80.0114 155.08 86.2813 163.801 87.7559 163.615C89.2305 163.429 91.9359 155.231 92.3191 150.47C91.7269 138.952 84.7603 121.081 81.7182 114.973L78.084 115.624Z" fill="#B9FA02"/>
<path opacity="0.15" d="M81.9504 115.473C81.8823 115.302 81.8048 115.135 81.7182 114.973L78.084 115.624L78.3046 117.156C79.6718 117.011 80.9531 116.419 81.9504 115.473Z" fill="black"/>
<path d="M76.9229 107.345C78.0649 107.076 79.2332 106.936 80.4062 106.927C81.3316 107.647 82.0918 108.558 82.6356 109.597C82.7383 111.433 82.433 113.269 81.7415 114.973C81.2197 115.34 80.6241 115.588 79.9963 115.7C79.3686 115.813 78.7238 115.787 78.1073 115.624C76.8274 114.828 75.8099 113.673 75.1813 112.303C75.0924 110.486 75.7175 108.707 76.9229 107.345Z" fill="#B9FA02"/>
</svg>
