<svg width="400" height="400" viewBox="0 0 400 400" fill="none" xmlns="http://www.w3.org/2000/svg">
<g clip-path="url(#clip0_128_2)">
<path d="M257.6 28.3041C257.6 28.3041 148.632 23.0321 59.9999 83.4561C-28.6321 143.88 16.3439 355.408 46.6319 368.8C76.9199 382.192 193.392 405.312 283.296 366C373.2 326.688 402.696 184.312 389.752 143.432C376.808 102.552 351.672 39.9201 257.6 28.3041Z" fill="#B9FA02"/>
<path opacity="0.7" d="M257.6 28.3041C257.6 28.3041 148.632 23.0321 59.9999 83.4561C-28.6321 143.88 16.3439 355.408 46.6319 368.8C76.9199 382.192 193.392 405.312 283.296 366C373.2 326.688 402.696 184.312 389.752 143.432C376.808 102.552 351.672 39.9201 257.6 28.3041Z" fill="white"/>
<g opacity="0.3">
<path d="M80.1519 260.288C79.6159 257.048 75.4719 250.96 75.4719 250.952C75.4719 250.944 72.2719 254.904 72.1199 255.184C70.1599 258.384 68.2639 265.696 70.9999 268.88C71.4708 269.396 72.0454 269.807 72.6861 270.086C73.3268 270.364 74.0192 270.504 74.7178 270.497C75.4165 270.489 76.1056 270.334 76.7402 270.042C77.3747 269.749 77.9403 269.326 78.3999 268.8C80.4239 266.688 80.6079 263.048 80.1519 260.288Z" fill="black"/>
<path d="M96.656 246.544C95.344 243.68 90.168 239.2 89.752 238.848C92.3053 235.893 94.6598 232.771 96.8 229.504C98.064 227.608 99.272 225.656 100.464 223.688C100.056 224.664 99.664 225.544 99.664 225.672C98.624 229.272 98.728 236.872 102.208 239.184C102.796 239.558 103.457 239.803 104.147 239.905C104.836 240.006 105.54 239.961 106.211 239.772C106.882 239.584 107.505 239.256 108.041 238.81C108.577 238.364 109.013 237.81 109.32 237.184C110.72 234.576 109.936 231.016 108.768 228.472C107.6 225.928 103.248 221.992 102.08 220.976C102.536 220.176 102.992 219.456 103.44 218.696C105.576 215.04 107.696 211.376 109.888 207.856C110.688 206.608 111.488 205.416 112.288 204.216C111.92 205.088 111.624 205.816 111.592 205.944C110.544 209.536 110.648 217.104 114.128 219.448C114.716 219.821 115.376 220.066 116.065 220.167C116.754 220.268 117.457 220.224 118.128 220.036C118.798 219.848 119.422 219.521 119.958 219.077C120.494 218.632 120.931 218.08 121.24 217.456C122.64 214.84 121.856 211.28 120.688 208.736C119.52 206.192 115.584 202.64 114.208 201.424C115.072 200.224 115.928 199.024 116.816 197.888C117.432 197.088 117.984 196.36 118.648 195.632L120.568 193.464C121.832 192.128 123.136 190.736 124.408 189.464C125.28 188.576 126.136 187.744 126.992 186.896C126.192 188.128 124.728 190.568 124.592 190.784C122.992 194.184 121.976 201.672 125.056 204.52C125.581 204.978 126.197 205.321 126.863 205.525C127.53 205.73 128.232 205.792 128.924 205.707C129.616 205.623 130.282 205.394 130.88 205.035C131.477 204.676 131.992 204.195 132.392 203.624C134.168 201.224 133.936 197.616 133.192 194.928C132.344 191.968 128.104 186.928 127.592 186.32C129.008 184.936 130.408 183.592 131.744 182.32C132.736 181.4 133.688 180.528 134.616 179.696L133.192 177.504C132.176 178.456 131.128 179.456 130.032 180.52C128.584 181.928 127.064 183.456 125.512 185.04C123.784 183.821 121.987 182.704 120.128 181.696C120.928 178.632 120.2 172.536 120.128 171.752C122.08 171.376 123.976 171.032 125.776 170.736L128.536 170.296L127.032 167.976L125.344 168.288C123.36 168.656 121.248 169.088 119.088 169.568C118.792 168.816 116.376 162.688 114.168 160.528C112.168 158.576 109.072 156.648 106.168 157.088C105.476 157.169 104.809 157.396 104.21 157.751C103.612 158.107 103.094 158.585 102.692 159.154C102.29 159.723 102.012 160.37 101.876 161.053C101.741 161.736 101.75 162.441 101.904 163.12C102.952 167.184 110.04 169.816 113.784 170.04C114 170.04 116.408 169.928 117.928 169.832C117.048 170.024 116.184 170.208 115.28 170.416C113.48 170.824 111.704 171.288 109.784 171.776L107.008 172.576C106.072 172.832 105.12 173.216 104.16 173.536C101.96 174.336 99.776 175.216 97.584 176.168C97.224 174.568 95.856 169.032 94.168 166.792C92.48 164.552 89.72 162.176 86.752 162.176C86.0555 162.152 85.3618 162.274 84.7158 162.536C84.0698 162.797 83.486 163.191 83.0024 163.693C82.5188 164.195 82.1461 164.793 81.9086 165.448C81.6712 166.103 81.5742 166.801 81.624 167.496C82.048 171.664 88.656 175.344 92.32 176.128C92.544 176.176 95.24 176.448 96.72 176.568C95.408 177.152 94.096 177.728 92.792 178.368C89.024 180.2 85.264 182.168 81.504 184.12L78.048 185.88C77.928 185.32 76.448 178.68 74.552 176.16C72.864 173.928 70.104 171.552 67.136 171.544C66.4398 171.52 65.7464 171.642 65.1008 171.904C64.4552 172.165 63.8719 172.56 63.3889 173.062C62.9059 173.563 62.534 174.161 62.2974 174.817C62.0609 175.472 61.965 176.169 62.016 176.864C62.432 181.032 69.04 184.712 72.704 185.496C72.976 185.56 76.848 185.944 77.84 185.992C75.296 187.28 72.76 188.544 70.2 189.688C66.7539 191.249 63.2105 192.585 59.592 193.688C59.536 193.424 57.992 186.488 56.08 183.904C54.4 181.672 51.632 179.288 48.672 179.288C47.9756 179.261 47.2814 179.382 46.6348 179.642C45.9883 179.902 45.4039 180.296 44.9198 180.797C44.4358 181.298 44.0631 181.896 43.826 182.552C43.5889 183.207 43.4928 183.905 43.544 184.6C43.96 188.776 50.568 192.456 54.232 193.24C54.52 193.304 58.688 193.712 59.448 193.736C59.232 193.792 59.024 193.88 58.816 193.944C55.1509 194.953 51.4025 195.631 47.616 195.968C45.536 196.184 43.528 196.272 41.576 196.32C41.424 195 40.672 188.96 39.176 186.448C37.68 183.936 35.264 181.376 32.32 181.048C31.6307 180.946 30.9277 180.991 30.2568 181.179C29.586 181.367 28.9623 181.695 28.4264 182.14C27.8905 182.585 27.4545 183.139 27.1467 183.764C26.8389 184.389 26.6662 185.072 26.64 185.768C26.592 189.96 32.76 194.344 36.312 195.528C36.504 195.592 38.544 196.032 40.032 196.328C39.152 196.328 38.24 196.328 37.392 196.328C34.192 196.328 31.32 196.072 28.752 195.848C27.296 195.712 25.976 195.56 24.752 195.408C23.952 194.184 20.544 189.304 18.112 187.792C15.68 186.28 12.304 185.096 9.53596 186.192C8.87734 186.42 8.27407 186.783 7.76547 187.26C7.25686 187.736 6.85434 188.314 6.58413 188.957C6.31392 189.599 6.18208 190.291 6.19721 190.988C6.21235 191.684 6.37411 192.37 6.67196 193C8.55996 196.736 16.056 197.8 19.752 197.2C20.072 197.144 24.984 195.784 24.944 195.72L24.896 195.648C26.072 195.824 27.344 195.992 28.736 196.152C31.304 196.432 34.208 196.72 37.392 196.824C40.8188 196.971 44.2514 196.918 47.672 196.664C51.5079 196.404 55.3127 195.799 59.04 194.856L59.176 194.816C58.128 195.472 55.28 197.384 55.072 197.56C52.224 199.96 48.136 206.36 49.736 210.224C50.0215 210.86 50.4376 211.429 50.9572 211.894C51.4768 212.359 52.0883 212.71 52.752 212.923C53.4158 213.136 54.117 213.208 54.8102 213.133C55.5034 213.058 56.1731 212.838 56.776 212.488C59.376 211.08 60.688 207.688 61.12 204.912C61.6 201.792 59.752 195.208 59.6 194.688C63.3699 193.638 67.066 192.339 70.664 190.8C72.76 189.912 74.848 188.952 76.936 187.968C76.048 188.56 75.264 189.096 75.16 189.184C72.312 191.584 68.224 197.984 69.824 201.848C70.1055 202.48 70.516 203.046 71.0292 203.509C71.5424 203.973 72.1468 204.324 72.8037 204.54C73.4606 204.756 74.1555 204.833 74.8437 204.765C75.5319 204.696 76.1983 204.485 76.8 204.144C79.408 202.744 80.72 199.344 81.152 196.576C81.584 193.808 80.12 188.12 79.712 186.632C80.512 186.248 81.312 185.872 82.112 185.48C85.92 183.608 89.704 181.728 93.48 179.992C94.808 179.384 96.144 178.832 97.48 178.272C96.68 178.8 96.04 179.248 95.944 179.328C93.096 181.728 89.008 188.128 90.608 191.992C90.8926 192.629 91.3081 193.199 91.8276 193.664C92.347 194.13 92.9587 194.481 93.6228 194.695C94.2869 194.908 94.9886 194.98 95.6821 194.904C96.3756 194.828 97.0455 194.608 97.648 194.256C100.248 192.848 101.56 189.456 101.992 186.68C102.424 183.904 101.104 178.784 100.624 177.008C102.008 176.48 103.384 175.944 104.744 175.496C105.68 175.208 106.56 174.864 107.52 174.624L110.32 173.872C112.112 173.456 113.96 173.016 115.72 172.656C116.944 172.4 118.12 172.176 119.296 171.944C117.968 172.536 115.384 173.752 115.184 173.88C112.444 175.71 110.22 178.214 108.728 181.152C108.413 181.344 108.116 181.564 107.84 181.808C107.308 182.258 106.877 182.815 106.574 183.442C106.271 184.07 106.104 184.754 106.083 185.45C106.062 186.146 106.187 186.839 106.452 187.484C106.716 188.129 107.112 188.711 107.616 189.192C110.728 192 118.096 190.28 121.336 188.392C121.528 188.28 123.464 186.848 124.68 185.928C124.048 186.576 123.432 187.2 122.792 187.88C121.52 189.216 120.288 190.584 118.96 192.048L117.088 194.264C116.448 194.984 115.872 195.864 115.248 196.664C113.848 198.528 112.512 200.488 111.248 202.496C110.08 201.384 105.872 197.496 103.248 196.56C100.624 195.624 96.992 195.168 94.52 196.792C93.9249 197.155 93.4131 197.639 93.0178 198.213C92.6225 198.788 92.3527 199.438 92.2259 200.124C92.0991 200.809 92.1181 201.514 92.2818 202.191C92.4455 202.869 92.7502 203.504 93.176 204.056C95.824 207.312 103.368 206.728 106.856 205.368C107.072 205.28 109.464 204.024 110.768 203.304C109.968 204.512 109.224 205.704 108.488 206.968C106.352 210.576 104.304 214.288 102.248 217.992C101.616 219.128 100.976 220.248 100.336 221.368C99.928 220.968 95.024 216.24 92.056 215.192C89.416 214.256 85.8 213.8 83.328 215.432C82.7329 215.795 82.2211 216.279 81.8258 216.853C81.4305 217.428 81.1607 218.078 81.0339 218.764C80.9071 219.449 80.9261 220.154 81.0898 220.831C81.2535 221.509 81.5582 222.144 81.984 222.696C84.632 225.944 92.176 225.36 95.664 224C95.928 223.896 99.368 222.08 100.216 221.6C98.816 224.08 97.392 226.536 95.888 228.904C93.8768 232.107 91.6587 235.174 89.248 238.088C89.056 237.904 83.96 232.944 80.928 231.872C78.288 230.936 74.672 230.48 72.2 232.104C71.6049 232.467 71.0931 232.951 70.6978 233.525C70.3025 234.1 70.0327 234.75 69.9059 235.436C69.7791 236.121 69.7981 236.826 69.9618 237.503C70.1255 238.181 70.4302 238.816 70.856 239.368C73.504 242.624 81.048 242.04 84.536 240.68C84.808 240.568 88.536 238.616 89.152 238.208C89.016 238.384 88.888 238.568 88.744 238.736C86.2468 241.593 83.4999 244.222 80.536 246.592C78.936 247.928 77.336 249.104 75.688 250.216C74.832 249.2 70.888 244.616 68.248 243.304C65.608 241.992 62.184 241.232 59.552 242.584C58.9229 242.874 58.3616 243.293 57.9042 243.813C57.4468 244.333 57.1034 244.943 56.8962 245.604C56.6889 246.265 56.6224 246.962 56.7009 247.65C56.7794 248.339 57.0012 249.003 57.352 249.6C59.632 253.12 67.192 253.368 70.808 252.4C71.008 252.352 72.944 251.6 74.352 251.016C73.616 251.512 72.872 252.032 72.16 252.488C69.496 254.208 66.952 255.624 64.688 256.856C63.392 257.544 62.208 258.144 61.096 258.696C59.736 258.128 54.224 255.928 51.36 256.008C48.496 256.088 45.024 256.96 43.304 259.376C42.8806 259.929 42.5786 260.565 42.4174 261.243C42.2563 261.921 42.2397 262.625 42.3688 263.309C42.4978 263.994 42.7696 264.643 43.1665 265.216C43.5633 265.788 44.0763 266.271 44.672 266.632C48.312 268.712 55.136 265.448 57.904 262.92C58.144 262.704 61.48 258.856 61.416 258.824H61.328C62.408 258.32 63.568 257.76 64.816 257.128C67.112 255.944 69.696 254.584 72.4 252.912C75.3439 251.145 78.1809 249.206 80.896 247.104C83.9497 244.771 86.7878 242.169 89.376 239.328L89.464 239.224C88.952 240.336 87.632 243.512 87.56 243.768C86.52 247.368 86.624 254.928 90.096 257.272C90.6842 257.645 91.3442 257.89 92.0333 257.991C92.7223 258.092 93.4249 258.048 94.0956 257.86C94.7662 257.672 95.3898 257.345 95.926 256.901C96.4622 256.456 96.899 255.904 97.208 255.28C98.608 252.648 97.824 249.088 96.656 246.544Z" fill="#174153"/>
<path d="M40.968 196.944C40.968 196.864 36.168 198.48 35.848 198.624C32.456 200.224 26.832 205.264 27.352 209.432C27.4636 210.118 27.7177 210.772 28.098 211.354C28.4783 211.935 28.9763 212.43 29.5598 212.807C30.1433 213.184 30.7994 213.434 31.4856 213.542C32.1719 213.65 32.8731 213.612 33.544 213.432C36.424 212.768 38.592 209.832 39.736 207.28C41.072 204.312 40.968 196.952 40.968 196.944Z" fill="#174153"/>
</g>
<g opacity="0.3">
<path d="M251.832 27.792C253.856 30.376 260.416 33.728 260.424 33.728C260.432 33.728 261.32 28.736 261.328 28.416C261.512 24.672 259.664 17.336 255.728 15.856C255.069 15.6284 254.37 15.542 253.675 15.6025C252.981 15.6629 252.307 15.8689 251.697 16.2069C251.087 16.5449 250.556 17.0075 250.136 17.5645C249.717 18.1215 249.42 18.7605 249.264 19.44C248.52 22.304 250.112 25.6 251.832 27.792Z" fill="#174153"/>
<path d="M243.952 47.768C246.48 49.648 253.168 51.088 253.704 51.208C252.873 55.0287 252.303 58.9017 252 62.8C251.8 65.072 251.672 67.36 251.576 69.664C251.464 68.608 251.352 67.664 251.328 67.536C250.528 63.872 246.792 57.288 242.616 56.904C241.921 56.8584 241.224 56.9597 240.571 57.2013C239.918 57.4428 239.323 57.8192 238.825 58.306C238.327 58.7928 237.937 59.379 237.68 60.0264C237.424 60.6739 237.306 61.3682 237.336 62.064C237.336 65.024 239.736 67.776 242 69.44C244.264 71.104 249.952 72.48 251.464 72.816C251.464 73.696 251.392 74.576 251.368 75.464C251.248 79.704 251.136 83.928 250.912 88.072C250.832 89.536 250.696 90.968 250.568 92.408C250.472 91.472 250.376 90.68 250.352 90.56C249.552 86.904 245.824 80.32 241.64 79.928C240.945 79.8824 240.248 79.9837 239.595 80.2253C238.942 80.4668 238.347 80.8432 237.849 81.33C237.351 81.8168 236.961 82.403 236.704 83.0504C236.448 83.6979 236.33 84.3922 236.36 85.088C236.36 88.048 238.76 90.8 241.024 92.472C243.288 94.144 248.432 95.376 250.216 95.776C250.04 97.248 249.872 98.72 249.632 100.128C249.448 101.096 249.344 102.032 249.104 102.984C248.864 103.936 248.672 104.88 248.464 105.816C247.992 107.592 247.52 109.44 247.016 111.16C246.672 112.368 246.32 113.504 245.976 114.656C246.072 113.2 246.2 110.352 246.184 110.112C245.936 106.376 243.256 99.304 239.192 98.288C238.511 98.1365 237.806 98.1303 237.123 98.2698C236.439 98.4093 235.793 98.6913 235.226 99.0974C234.659 99.5036 234.184 100.025 233.832 100.627C233.481 101.229 233.26 101.899 233.184 102.592C232.76 105.52 234.712 108.6 236.68 110.592C238.848 112.784 244.976 115.152 245.744 115.44C245.16 117.344 244.576 119.184 244 120.92C243.573 122.2 243.155 123.427 242.744 124.6L245.048 125.84C245.48 124.52 245.92 123.136 246.368 121.672C246.968 119.744 247.568 117.672 248.16 115.544C250.261 115.782 252.374 115.896 254.488 115.888C255.288 118.952 258.824 123.96 259.288 124.6C257.752 125.872 256.256 127.08 254.816 128.208C254.056 128.808 253.328 129.36 252.608 129.92L255.008 131.224L256.344 130.144C257.904 128.872 259.544 127.472 261.216 126.024C261.832 126.544 266.896 130.76 269.864 131.624C272.56 132.376 276.2 132.584 278.56 130.824C279.128 130.42 279.605 129.901 279.96 129.301C280.314 128.7 280.538 128.032 280.618 127.339C280.697 126.647 280.629 125.945 280.42 125.28C280.21 124.615 279.862 124.002 279.4 123.48C276.536 120.416 269.048 121.512 265.664 123.112C265.464 123.208 263.408 124.472 262.128 125.288C262.808 124.696 263.472 124.12 264.168 123.496C265.552 122.28 266.888 121.016 268.336 119.672C269.008 118.992 269.696 118.312 270.384 117.624C271.072 116.936 271.736 116.152 272.424 115.416C273.976 113.672 275.464 111.832 276.92 109.952C277.992 111.152 281.864 115.376 284.424 116.536C286.984 117.696 290.544 118.448 293.144 117.032C293.766 116.719 294.316 116.278 294.757 115.739C295.198 115.199 295.521 114.573 295.704 113.901C295.888 113.229 295.927 112.526 295.821 111.837C295.715 111.148 295.465 110.49 295.088 109.904C292.688 106.44 285.16 106.392 281.568 107.456C281.344 107.52 278.848 108.576 277.496 109.184C278.36 108.04 279.232 106.904 280.08 105.72C282.48 102.304 284.88 98.776 287.216 95.264L289.4 92.064C289.784 92.504 294.272 97.664 297.136 98.92C299.688 100.072 303.256 100.832 305.856 99.408C306.479 99.0966 307.03 98.6573 307.471 98.1187C307.913 97.5802 308.236 96.9545 308.42 96.2825C308.603 95.6106 308.643 94.9075 308.536 94.2191C308.429 93.5308 308.178 92.8728 307.8 92.288C305.4 88.824 297.872 88.776 294.28 89.84C294.008 89.92 290.424 91.44 289.536 91.872C291.136 89.52 292.736 87.192 294.464 84.96C296.736 81.9363 299.203 79.0636 301.848 76.36C302.024 76.56 306.688 81.96 309.624 83.256C312.176 84.408 315.744 85.168 318.344 83.752C318.966 83.4388 319.516 82.9982 319.957 82.4589C320.398 81.9195 320.721 81.2933 320.904 80.6211C321.088 79.9489 321.127 79.2456 321.021 78.557C320.915 77.8684 320.665 77.2098 320.288 76.624C317.888 73.16 310.352 73.112 306.768 74.176C306.48 74.256 302.632 75.896 301.968 76.248C302.12 76.088 302.264 75.912 302.424 75.76C305.141 73.1236 308.086 70.7329 311.224 68.616C312.952 67.424 314.672 66.384 316.36 65.416C317.16 66.504 320.68 71.44 323.192 72.928C325.704 74.416 329.064 75.496 331.8 74.376C332.454 74.1355 333.05 73.7597 333.549 73.2732C334.048 72.7866 334.439 72.2002 334.695 71.5523C334.952 70.9044 335.069 70.2097 335.039 69.5134C335.009 68.8172 334.832 68.1352 334.52 67.512C332.544 63.808 325.032 62.928 321.352 63.592C321.152 63.592 319.152 64.216 317.704 64.672C318.504 64.24 319.264 63.784 320.008 63.392C322.808 61.896 325.464 60.704 327.824 59.664C329.168 59.08 330.392 58.584 331.552 58.136C332.856 58.808 338.168 61.464 341.032 61.624C343.896 61.784 347.432 61.2 349.336 58.944C349.805 58.429 350.161 57.8207 350.379 57.159C350.597 56.4973 350.673 55.797 350.602 55.1038C350.531 54.4106 350.315 53.7403 349.967 53.1365C349.619 52.5327 349.148 52.0091 348.584 51.6C345.128 49.2 338.056 51.896 335.088 54.184C334.832 54.384 331.184 57.936 331.248 57.976H331.328C330.208 58.392 329.008 58.848 327.712 59.376C325.312 60.36 322.64 61.504 319.8 62.944C316.726 64.4491 313.744 66.1374 310.872 68C307.634 70.0717 304.588 72.4277 301.768 75.04L301.672 75.136C302.272 74.064 303.856 71.016 303.952 70.768C305.296 67.272 305.824 59.72 302.56 57.096C302.005 56.6737 301.368 56.3731 300.689 56.2138C300.01 56.0544 299.306 56.04 298.621 56.1713C297.936 56.3027 297.287 56.5769 296.716 56.976C296.144 57.3752 295.663 57.8904 295.304 58.488C293.704 60.968 294.168 64.584 295.12 67.216C296.192 70.184 300.976 75.072 301.36 75.464C298.557 78.1915 295.938 81.1019 293.52 84.176C292.104 85.968 290.736 87.808 289.384 89.672C289.872 88.728 290.304 87.88 290.352 87.752C291.688 84.256 292.224 76.712 288.952 74.088C288.398 73.6658 287.761 73.3653 287.083 73.2061C286.405 73.0468 285.701 73.0324 285.017 73.1638C284.333 73.2951 283.684 73.5693 283.113 73.9684C282.543 74.3676 282.062 74.8826 281.704 75.48C280.104 77.96 280.568 81.576 281.52 84.208C282.472 86.84 286.48 91.128 287.552 92.208C287.04 92.928 286.52 93.64 286.016 94.36C283.568 97.824 281.152 101.296 278.672 104.624C277.8 105.8 276.896 106.928 276 108.056C276.432 107.256 276.8 106.504 276.84 106.392C278.176 102.896 278.704 95.352 275.44 92.72C274.885 92.2977 274.248 91.9971 273.569 91.8378C272.89 91.6784 272.186 91.664 271.501 91.7953C270.816 91.9267 270.167 92.2009 269.596 92.6C269.024 92.9992 268.543 93.5144 268.184 94.112C266.584 96.592 267.056 100.208 268.008 102.84C268.96 105.472 272.576 109.344 273.848 110.672C272.888 111.8 271.936 112.928 270.96 113.984C270.272 114.68 269.664 115.4 268.936 116.072L266.848 118.072C265.472 119.304 264.056 120.576 262.688 121.736C261.736 122.536 260.816 123.336 259.896 124.08C260.776 122.92 262.456 120.616 262.576 120.408C264.096 117.485 264.845 114.222 264.752 110.928C264.935 110.609 265.087 110.275 265.208 109.928C265.46 109.278 265.572 108.583 265.537 107.887C265.502 107.191 265.321 106.511 265.005 105.89C264.69 105.268 264.247 104.721 263.706 104.282C263.165 103.844 262.537 103.524 261.864 103.344C257.784 102.368 252.144 107.408 250.208 110.608C250.088 110.8 249.072 113.008 248.456 114.376C248.696 113.504 248.936 112.656 249.168 111.76C249.648 109.976 250.072 108.192 250.536 106.264C250.728 105.328 250.92 104.384 251.112 103.424C251.304 102.464 251.432 101.456 251.592 100.464C251.928 98.152 252.16 95.8 252.336 93.416C253.896 93.832 259.448 95.224 262.224 94.776C265 94.328 268.384 92.992 269.768 90.376C270.114 89.7719 270.33 89.1018 270.4 88.4091C270.471 87.7163 270.395 87.0165 270.178 86.355C269.961 85.6934 269.607 85.0849 269.139 84.569C268.672 84.053 268.101 83.6411 267.464 83.36C263.576 81.76 257.24 85.912 254.832 88.776C254.68 88.96 253.184 91.176 252.384 92.464C252.48 91.032 252.584 89.608 252.632 88.152C252.776 83.968 252.784 79.72 252.816 75.488C252.816 74.192 252.816 72.904 252.872 71.608C253.424 71.76 259.992 73.552 263.104 73.056C265.864 72.608 269.256 71.272 270.64 68.656C270.988 68.0522 271.204 67.382 271.275 66.6889C271.347 65.9959 271.271 65.2956 271.054 64.6337C270.837 63.9718 270.482 63.3631 270.014 62.8473C269.546 62.3315 268.974 61.9201 268.336 61.64C264.448 60.04 258.112 64.192 255.704 67.056C255.528 67.272 253.376 70.52 252.872 71.368C252.92 68.52 252.984 65.688 253.168 62.888C253.397 59.112 253.87 55.3548 254.584 51.64C254.84 51.712 261.688 53.616 264.872 53.104C267.632 52.656 271.032 51.32 272.416 48.704C272.764 48.1002 272.98 47.43 273.051 46.7369C273.123 46.0439 273.047 45.3436 272.83 44.6817C272.613 44.0198 272.258 43.4111 271.79 42.8953C271.322 42.3795 270.75 41.9681 270.112 41.688C266.224 40.088 259.888 44.24 257.48 47.104C257.288 47.336 254.984 50.824 254.608 51.488C254.648 51.272 254.672 51.048 254.72 50.832C255.538 47.1269 256.684 43.502 258.144 40C258.944 38.056 259.784 36.24 260.664 34.496C261.904 34.976 267.592 37.136 270.504 36.984C273.416 36.832 276.816 35.896 278.504 33.448C278.91 32.8863 279.194 32.2459 279.338 31.5679C279.482 30.89 279.482 30.1894 279.339 29.5113C279.196 28.8332 278.912 28.1926 278.507 27.6305C278.101 27.0685 277.582 26.5976 276.984 26.248C273.296 24.256 266.544 27.664 263.84 30.248C263.688 30.392 262.352 31.984 261.392 33.16C261.8 32.36 262.192 31.56 262.608 30.824C264.12 28.032 265.672 25.576 267.072 23.408C267.872 22.176 268.624 21.088 269.336 20.072C270.8 19.912 276.696 19.2 279.168 17.752C281.64 16.304 284.272 13.872 284.616 10.936C284.722 10.2471 284.682 9.54349 284.499 8.87102C284.315 8.19854 283.993 7.5722 283.551 7.03271C283.11 6.49322 282.56 6.05266 281.937 5.73965C281.314 5.42665 280.632 5.24822 279.936 5.21596C275.744 5.14396 271.32 11.28 270.112 14.816C270.008 15.128 268.92 20.104 269 20.096H269.088C268.376 21.056 267.632 22.096 266.84 23.296C265.4 25.432 263.784 27.872 262.208 30.632C260.476 33.5972 258.919 36.6611 257.544 39.808C255.987 43.3203 254.745 46.964 253.832 50.696V50.832C253.744 49.608 253.376 46.192 253.32 45.928C252.52 42.272 248.792 35.688 244.616 35.296C243.92 35.2504 243.222 35.3519 242.568 35.5939C241.914 35.8359 241.318 36.2129 240.819 36.7004C240.32 37.1879 239.93 37.7749 239.673 38.4234C239.416 39.0718 239.298 39.7671 239.328 40.464C239.304 43.352 241.704 46.096 243.952 47.768Z" fill="#174153"/>
<path d="M316.608 64.56C316.648 64.624 320.104 60.888 320.296 60.632C322.512 57.608 325.016 50.472 322.56 47.032C322.136 46.4796 321.601 46.0226 320.988 45.6908C320.376 45.359 319.701 45.1598 319.007 45.1063C318.313 45.0527 317.615 45.1459 316.959 45.3798C316.303 45.6137 315.704 45.9831 315.2 46.464C312.984 48.432 312.496 52.064 312.72 54.832C312.984 58.144 316.608 64.552 316.608 64.56Z" fill="#174153"/>
</g>
<path d="M271.184 221.68L205.296 188.416L272.312 54.856L338.2 88.12L271.184 221.68Z" fill="#B9FA02" stroke="#174153" stroke-miterlimit="10"/>
<path d="M323.576 101.2C322.528 100.672 321.594 99.9427 320.829 99.0534C320.064 98.164 319.481 97.1323 319.116 96.0173C318.75 94.9024 318.608 93.7262 318.698 92.5563C318.788 91.3864 319.108 90.2457 319.64 89.1998C319.809 88.8753 319.996 88.5601 320.2 88.2558L282.4 69.1838C282.282 69.5318 282.14 69.8713 281.976 70.1998C280.912 72.3076 279.054 73.9064 276.811 74.6445C274.568 75.3826 272.124 75.1997 270.016 74.1358C269.851 74.0547 269.69 73.9639 269.536 73.8638L218.928 174.864L219.432 175.088C221.54 176.152 223.139 178.01 223.877 180.253C224.615 182.496 224.432 184.94 223.368 187.048C223.201 187.378 223.011 187.696 222.8 188L260.632 207.096C260.753 206.749 260.894 206.41 261.056 206.08C261.584 205.033 262.314 204.1 263.204 203.335C264.093 202.57 265.125 201.988 266.239 201.623C267.354 201.257 268.53 201.115 269.7 201.204C270.869 201.294 272.01 201.613 273.056 202.144C273.383 202.311 273.699 202.501 274 202.712L324.592 101.6C324.245 101.49 323.905 101.356 323.576 101.2ZM264.544 151.344C261.968 150.042 259.837 148.006 258.418 145.493C257 142.98 256.358 140.103 256.575 137.225C256.791 134.348 257.856 131.599 259.635 129.327C261.413 127.054 263.826 125.36 266.567 124.459C269.308 123.557 272.255 123.489 275.036 124.262C277.816 125.035 280.304 126.616 282.187 128.803C284.069 130.991 285.26 133.687 285.61 136.551C285.96 139.416 285.452 142.32 284.152 144.896C282.406 148.35 279.36 150.97 275.683 152.179C272.006 153.388 267.999 153.088 264.544 151.344Z" fill="white" stroke="#174153" stroke-linecap="round" stroke-linejoin="round"/>
<path d="M270.264 221.968L208.368 181.768L289.448 56.24L351.344 96.44L270.264 221.968Z" fill="#B9FA02" stroke="#174153" stroke-miterlimit="10"/>
<path d="M335.392 107.864C333.411 106.577 332.023 104.557 331.531 102.247C331.039 99.9369 331.484 97.526 332.768 95.5439C332.974 95.2392 333.195 94.9455 333.432 94.6639L297.896 71.5759C297.736 71.9087 297.557 72.2319 297.36 72.5439C296.726 73.5281 295.904 74.3775 294.942 75.0438C293.979 75.71 292.895 76.1799 291.751 76.4266C290.606 76.6733 289.425 76.6919 288.273 76.4814C287.122 76.271 286.023 75.8355 285.04 75.1999C284.888 75.1039 284.744 74.9839 284.592 74.8799L223.384 169.768C223.544 169.856 223.704 169.944 223.856 170.048C224.842 170.684 225.692 171.51 226.358 172.476C227.024 173.442 227.493 174.53 227.736 175.678C227.98 176.826 227.995 178.011 227.779 179.165C227.564 180.318 227.122 181.418 226.48 182.4C226.276 182.709 226.054 183.005 225.816 183.288L261.352 206.368C261.514 206.036 261.692 205.713 261.888 205.4C263.176 203.421 265.197 202.033 267.507 201.543C269.817 201.052 272.227 201.499 274.208 202.784C274.513 202.99 274.806 203.211 275.088 203.448L336.352 108.4C336.022 108.24 335.701 108.061 335.392 107.864ZM271.28 151.328C268.858 149.756 266.956 147.501 265.815 144.848C264.674 142.195 264.346 139.263 264.871 136.424C265.396 133.584 266.752 130.964 268.767 128.895C270.781 126.826 273.364 125.401 276.189 124.8C279.014 124.199 281.953 124.449 284.635 125.519C287.318 126.589 289.623 128.43 291.259 130.81C292.895 133.189 293.788 136.001 293.826 138.888C293.864 141.776 293.045 144.61 291.472 147.032C289.364 150.279 286.052 152.555 282.266 153.361C278.479 154.166 274.528 153.435 271.28 151.328Z" fill="white" stroke="#174153" stroke-linecap="round" stroke-linejoin="round"/>
<path d="M269.056 222.184L213.312 173.8L310.992 60.7119L366.728 109.088L269.056 222.184Z" fill="#B9FA02" stroke="#174153" stroke-miterlimit="10"/>
<path d="M349.344 118.192C348.387 117.367 347.617 116.348 347.086 115.201C346.554 114.055 346.274 112.809 346.264 111.545C346.253 110.282 346.512 109.031 347.024 107.876C347.536 106.721 348.289 105.689 349.232 104.848L317.232 77.072C317.028 77.3781 316.806 77.6719 316.568 77.952C315.801 78.8361 314.868 79.5605 313.821 80.0837C312.775 80.6068 311.635 80.9186 310.468 81.001C309.301 81.0835 308.129 80.9351 307.019 80.5643C305.909 80.1935 304.883 79.6076 304 78.84C303.856 78.712 303.728 78.584 303.6 78.456L229.848 164C229.992 164.112 230.144 164.216 230.28 164.344C231.237 165.169 232.007 166.188 232.538 167.335C233.069 168.481 233.35 169.727 233.36 170.991C233.371 172.254 233.112 173.505 232.6 174.66C232.088 175.815 231.335 176.847 230.392 177.688L262.392 205.464C262.597 205.159 262.819 204.865 263.056 204.584C263.874 203.616 264.891 202.837 266.038 202.299C267.185 201.761 268.435 201.476 269.702 201.466C270.969 201.455 272.224 201.718 273.38 202.237C274.535 202.756 275.566 203.518 276.4 204.472L350.224 118.872C349.915 118.667 349.62 118.44 349.344 118.192ZM279.84 152.368C277.659 150.476 276.087 147.979 275.325 145.193C274.563 142.408 274.644 139.459 275.558 136.719C276.472 133.98 278.178 131.573 280.46 129.803C282.742 128.033 285.497 126.98 288.378 126.776C291.259 126.573 294.135 127.228 296.643 128.659C299.151 130.09 301.179 132.233 302.469 134.817C303.76 137.4 304.255 140.308 303.892 143.173C303.529 146.038 302.325 148.731 300.432 150.912C299.176 152.36 297.647 153.547 295.932 154.404C294.217 155.261 292.35 155.772 290.438 155.907C288.525 156.042 286.605 155.799 284.787 155.192C282.968 154.585 281.287 153.625 279.84 152.368Z" fill="white" stroke="#174153" stroke-linecap="round" stroke-linejoin="round"/>
<path d="M268.888 225.816L220.12 170.424L332.04 71.3999L380.808 126.8L268.888 225.816Z" fill="#B9FA02" stroke="#174153" stroke-miterlimit="10"/>
<path d="M362.4 133.496C360.841 131.722 360.05 129.403 360.2 127.046C360.35 124.69 361.429 122.489 363.2 120.928C363.478 120.685 363.772 120.461 364.08 120.256L336.08 88.4479C335.249 89.4014 334.224 90.1658 333.073 90.6897C331.922 91.2135 330.672 91.4845 329.408 91.4845C328.143 91.4845 326.893 91.2135 325.743 90.6897C324.592 90.1658 323.566 89.4014 322.736 88.4479C322.608 88.3039 322.504 88.1599 322.392 88.0159L237.816 162.912C237.944 163.048 238.08 163.168 238.2 163.312C238.973 164.19 239.565 165.211 239.943 166.318C240.321 167.424 240.477 168.594 240.403 169.762C240.329 170.929 240.025 172.07 239.51 173.119C238.995 174.169 238.278 175.107 237.4 175.88C237.122 176.12 236.831 176.344 236.528 176.552L264.528 208.36C264.775 208.075 265.043 207.807 265.328 207.56C266.205 206.786 267.226 206.193 268.333 205.814C269.44 205.436 270.61 205.279 271.778 205.353C272.945 205.428 274.086 205.731 275.136 206.247C276.186 206.763 277.124 207.481 277.896 208.36C278.138 208.636 278.362 208.927 278.568 209.232L363.176 134.256C362.902 134.018 362.643 133.764 362.4 133.496ZM288.952 158.064C287.046 155.897 285.825 153.214 285.443 150.354C285.062 147.493 285.537 144.584 286.809 141.994C288.081 139.404 290.093 137.249 292.589 135.801C295.086 134.354 297.955 133.679 300.835 133.863C303.715 134.046 306.476 135.079 308.768 136.832C311.061 138.584 312.783 140.977 313.716 143.708C314.649 146.438 314.751 149.384 314.01 152.173C313.269 154.962 311.717 157.469 309.552 159.376C308.112 160.648 306.435 161.623 304.617 162.246C302.8 162.869 300.877 163.126 298.959 163.005C297.042 162.883 295.167 162.384 293.443 161.536C291.719 160.688 290.179 159.508 288.912 158.064H288.952Z" fill="white" stroke="#174153" stroke-linecap="round" stroke-linejoin="round"/>
<path d="M254.592 286.984L391.864 229.6C393.029 229.107 393.952 228.174 394.433 227.004C394.914 225.834 394.914 224.522 394.432 223.352L360.24 141.544C359.747 140.377 358.813 139.452 357.641 138.971C356.469 138.49 355.155 138.492 353.984 138.976L216.712 196.344C215.547 196.837 214.624 197.77 214.143 198.94C213.662 200.11 213.662 201.422 214.144 202.592L248.336 284.416C248.829 285.583 249.763 286.508 250.935 286.989C252.107 287.47 253.421 287.468 254.592 286.984Z" fill="#174153" stroke="#263238" stroke-linecap="round" stroke-linejoin="round"/>
<path d="M231.233 213.314L239.498 216.908C241.53 217.792 243.894 216.86 244.778 214.828L248.372 206.563C249.255 204.53 248.324 202.166 246.292 201.283L238.026 197.689C235.994 196.806 233.63 197.737 232.746 199.769L229.153 208.034C228.269 210.067 229.2 212.431 231.233 213.314Z" fill="white" stroke="#263238" stroke-width="1.00319" stroke-miterlimit="10"/>
<path d="M364.266 226.12L379.729 219.657L377.055 213.258L361.591 219.72L364.266 226.12Z" fill="white" stroke="#263238" stroke-miterlimit="10"/>
<path d="M343.739 234.708L359.203 228.245L356.529 221.846L341.065 228.308L343.739 234.708Z" fill="white" stroke="#263238" stroke-miterlimit="10"/>
<path d="M323.21 243.28L338.674 236.818L336 230.418L320.536 236.881L323.21 243.28Z" fill="white" stroke="#263238" stroke-miterlimit="10"/>
<path d="M302.684 251.86L318.148 245.398L315.474 238.998L300.01 245.46L302.684 251.86Z" fill="white" stroke="#263238" stroke-miterlimit="10"/>
<path d="M282.158 260.44L297.622 253.978L294.947 247.578L279.483 254.04L282.158 260.44Z" fill="white" stroke="#263238" stroke-miterlimit="10"/>
<path d="M261.624 269.02L277.088 262.558L274.413 256.158L258.949 262.62L261.624 269.02Z" fill="white" stroke="#263238" stroke-miterlimit="10"/>
<path d="M339.67 211.353L368.376 199.357C369.725 198.793 370.362 197.242 369.798 195.893L361.368 175.72C360.804 174.37 359.253 173.734 357.903 174.297L329.197 186.294C327.848 186.858 327.211 188.409 327.775 189.758L336.205 209.931C336.769 211.281 338.32 211.917 339.67 211.353Z" fill="white" stroke="#263238" stroke-miterlimit="10"/>
<path d="M279.631 186.962L353.216 156.211L351.655 152.476L278.07 183.227L279.631 186.962Z" fill="white" stroke="#263238" stroke-miterlimit="10"/>
<path d="M256.944 52.528V301.728C256.942 305.012 255.637 308.161 253.315 310.483C250.993 312.805 247.844 314.11 244.56 314.112H136.888C133.604 314.11 130.456 312.805 128.134 310.483C125.812 308.161 124.506 305.012 124.504 301.728V52.52C124.504 49.2377 125.808 46.0898 128.129 43.7689C130.45 41.4479 133.598 40.144 136.88 40.144H183.096V40.288C184.248 44.432 186.896 47.128 189.84 47.128H191.528C194.472 47.128 197.128 44.432 198.272 40.288L198.32 40.144H244.56C246.186 40.144 247.797 40.4644 249.299 41.0867C250.802 41.7091 252.167 42.6213 253.317 43.7712C254.467 44.9212 255.379 46.2864 256.001 47.7889C256.624 49.2914 256.944 50.9018 256.944 52.528Z" fill="white" stroke="#263238" stroke-linecap="round" stroke-linejoin="round"/>
<path d="M256.944 113.04V52.528C256.944 50.9018 256.624 49.2914 256.001 47.7889C255.379 46.2864 254.467 44.9212 253.317 43.7712C252.167 42.6213 250.802 41.7091 249.299 41.0867C247.797 40.4644 246.186 40.144 244.56 40.144H198.4L198.352 40.288C197.2 44.432 194.552 47.128 191.608 47.128H189.92C186.976 47.128 184.32 44.432 183.176 40.288V40.144H136.88C133.598 40.144 130.45 41.4479 128.129 43.7689C125.808 46.0898 124.504 49.2377 124.504 52.52V113.04H256.944Z" fill="#B9FA02" stroke="#263238" stroke-miterlimit="10"/>
<path d="M229.456 193.672H151.16C146.919 193.672 143.48 197.11 143.48 201.352V225.712C143.48 229.953 146.919 233.392 151.16 233.392H229.456C233.698 233.392 237.136 229.953 237.136 225.712V201.352C237.136 197.11 233.698 193.672 229.456 193.672Z" fill="#B9FA02" stroke="#174153" stroke-miterlimit="10"/>
<path d="M256.944 64.12V52.528C256.944 50.9018 256.624 49.2914 256.001 47.7889C255.379 46.2864 254.467 44.9212 253.317 43.7712C252.167 42.6213 250.802 41.7091 249.299 41.0867C247.797 40.4644 246.186 40.144 244.56 40.144H198.4L198.352 40.288C197.2 44.432 194.552 47.128 191.608 47.128H189.92C186.976 47.128 184.32 44.432 183.176 40.288V40.144H136.88C133.598 40.144 130.45 41.4479 128.129 43.7689C125.808 46.0898 124.504 49.2377 124.504 52.52V64.12H256.944Z" fill="#DBDBDB" stroke="#263238" stroke-linecap="round" stroke-linejoin="round"/>
<path d="M124.504 299.776V301.728C124.506 305.012 125.812 308.16 128.134 310.482C130.456 312.804 133.604 314.11 136.888 314.112H244.56C247.844 314.11 250.993 312.804 253.315 310.482C255.637 308.16 256.942 305.012 256.944 301.728V299.776H124.504Z" fill="#DBDBDB" stroke="#263238" stroke-linecap="round" stroke-linejoin="round"/>
<path d="M265.368 112.048V87.2H263.12V55.296C263.118 50.0864 261.047 45.0909 257.363 41.4079C253.678 37.725 248.682 35.656 243.472 35.656H137.976C132.767 35.656 127.77 37.725 124.086 41.4079C120.401 45.0909 118.33 50.0864 118.328 55.296V308.496C118.33 313.706 120.401 318.701 124.086 322.384C127.77 326.067 132.767 328.136 137.976 328.136H243.472C248.682 328.136 253.678 326.067 257.363 322.384C261.047 318.701 263.118 313.706 263.12 308.496V133.296H265.368V118.552H263.12V112.048H265.368ZM256.944 294.448C256.944 299.658 254.875 304.654 251.192 308.338C247.509 312.023 242.514 314.094 237.304 314.096H144.144C138.935 314.094 133.939 312.023 130.256 308.338C126.573 304.654 124.504 299.658 124.504 294.448V59.784C124.504 54.5752 126.573 49.5796 130.257 45.8964C133.94 42.2132 138.935 40.144 144.144 40.144H183.096V40.288C184.248 44.432 186.896 47.128 189.84 47.128H191.528C194.472 47.128 197.128 44.432 198.272 40.288L198.32 40.144H237.264C242.473 40.144 247.468 42.2132 251.152 45.8964C254.835 49.5796 256.904 54.5752 256.904 59.784L256.944 294.448Z" fill="#B9FA02" stroke="#263238" stroke-linecap="round" stroke-linejoin="round"/>
<path d="M241.896 38.3999H139.552C134.528 38.3999 129.709 40.3958 126.157 43.9485C122.604 47.5012 120.608 52.3196 120.608 57.3439V306.488C120.608 311.512 122.604 316.331 126.157 319.883C129.709 323.436 134.528 325.432 139.552 325.432H241.896C246.92 325.432 251.739 323.436 255.292 319.883C258.844 316.331 260.84 311.512 260.84 306.488V57.3039C260.83 52.2866 258.829 47.4784 255.277 43.9343C251.726 40.3903 246.913 38.3999 241.896 38.3999ZM256.944 295.2C256.944 300.225 254.949 305.044 251.396 308.598C247.844 312.152 243.025 314.15 238 314.152H143.448C138.423 314.15 133.605 312.152 130.052 308.598C126.5 305.044 124.504 300.225 124.504 295.2V59.0799C124.504 56.5932 124.994 54.1308 125.946 51.8334C126.897 49.536 128.292 47.4485 130.05 45.6901C131.809 43.9318 133.896 42.5369 136.194 41.5853C138.491 40.6337 140.953 40.1439 143.44 40.1439H183.096V40.2879C184.248 44.4319 186.896 47.1279 189.84 47.1279H191.528C194.472 47.1279 197.128 44.4319 198.272 40.2879L198.32 40.1439H238C243.024 40.1439 247.843 42.1398 251.396 45.6925C254.948 49.2452 256.944 54.0636 256.944 59.0879V295.2Z" fill="#174153" stroke="#174153" stroke-linecap="round" stroke-linejoin="round"/>
<path d="M192.496 42.648C192.496 42.2822 192.388 41.9246 192.184 41.6205C191.981 41.3164 191.692 41.0796 191.354 40.94C191.015 40.8003 190.644 40.7642 190.285 40.8361C189.926 40.9081 189.597 41.0849 189.339 41.3442C189.081 41.6034 188.905 41.9334 188.835 42.2924C188.764 42.6514 188.802 43.0233 188.943 43.3608C189.084 43.6983 189.322 43.9864 189.627 44.1885C189.932 44.3906 190.29 44.4976 190.656 44.496C190.899 44.496 191.139 44.4482 191.362 44.3552C191.586 44.2622 191.789 44.126 191.96 43.9543C192.131 43.7826 192.267 43.5788 192.359 43.3546C192.451 43.1305 192.497 42.8903 192.496 42.648Z" fill="white"/>
<path d="M136.272 48.1521C136.272 50.0161 134.176 50.6881 134.168 52.1521V52.2481H136.2V52.8001H133.488V52.2721C133.488 50.2721 135.584 49.8721 135.584 48.1441C135.584 47.5041 135.376 47.1681 134.864 47.1681C134.352 47.1681 134.136 47.5361 134.136 48.0801V48.6321H133.488V48.1601C133.488 47.2161 133.92 46.5601 134.88 46.5601C135.84 46.5601 136.272 47.2001 136.272 48.1521Z" fill="#174153"/>
<path d="M139.664 48.1439V48.2959C139.694 48.5619 139.636 48.8302 139.501 49.0609C139.365 49.2916 139.159 49.4723 138.912 49.5759C139.159 49.6785 139.367 49.859 139.502 50.09C139.638 50.3209 139.695 50.5898 139.664 50.8559V51.3359C139.664 52.2799 139.216 52.9359 138.264 52.9359C137.312 52.9359 136.88 52.3199 136.88 51.3359V50.9039H137.52V51.3759C137.52 51.9359 137.752 52.2719 138.248 52.2719C138.744 52.2719 138.976 51.9439 138.976 51.3119V50.8399C138.976 50.2239 138.712 49.9359 138.176 49.9199H137.808V49.2959H138.216C138.323 49.297 138.429 49.2749 138.527 49.2312C138.625 49.1875 138.712 49.1232 138.783 49.0427C138.853 48.9621 138.906 48.8673 138.936 48.7647C138.967 48.662 138.975 48.554 138.96 48.4479V48.1679C138.96 47.5279 138.736 47.1999 138.232 47.1999C137.728 47.1999 137.504 47.5519 137.504 48.1039V48.4239H136.864V48.1439C136.864 47.1919 137.304 46.5439 138.248 46.5439C139.192 46.5439 139.664 47.1999 139.664 48.1439Z" fill="#174153"/>
<path d="M141 48.6079V49.4639H140.336V48.6079H141ZM141 51.9759V52.7999H140.336V51.9999L141 51.9759Z" fill="#174153"/>
<path d="M142.4 49.1679C142.491 49.0055 142.625 48.8715 142.787 48.7811C142.95 48.6906 143.134 48.6473 143.32 48.6559C144.12 48.6559 144.472 49.2399 144.472 50.1199V51.3359C144.472 52.2799 144.024 52.9359 143.072 52.9359C142.12 52.9359 141.688 52.3199 141.688 51.3359V50.9199H142.328V51.3759C142.328 51.9359 142.56 52.2719 143.056 52.2719C143.552 52.2719 143.784 51.9359 143.784 51.3759V50.1759C143.784 49.6159 143.552 49.2799 143.056 49.2799C142.967 49.2767 142.877 49.2915 142.794 49.3233C142.71 49.3551 142.633 49.4034 142.568 49.4653C142.503 49.5272 142.452 49.6014 142.416 49.6836C142.38 49.7658 142.361 49.8543 142.36 49.9439V50.0879H141.712L141.88 46.6479H144.28V47.2639H142.456L142.4 49.1679Z" fill="#174153"/>
<path d="M147.904 48.1279V48.2479H147.256V48.0879C147.256 47.5279 147.032 47.1999 146.528 47.1999C146.024 47.1999 145.776 47.5359 145.776 48.1999V49.5999C145.847 49.3966 145.982 49.2218 146.161 49.102C146.34 48.9822 146.553 48.9239 146.768 48.9359C147.568 48.9359 147.92 49.5119 147.92 50.3999V51.3439C147.92 52.2879 147.456 52.9439 146.504 52.9439C145.552 52.9439 145.08 52.3279 145.08 51.3439V48.1439C145.08 47.1599 145.528 46.5439 146.504 46.5439C147.48 46.5439 147.904 47.1999 147.904 48.1279ZM145.776 50.4479V51.3759C145.776 51.9359 146 52.2719 146.504 52.2719C147.008 52.2719 147.24 51.9359 147.24 51.3759V50.4479C147.24 49.8879 147 49.5519 146.504 49.5519C146.008 49.5519 145.776 49.8879 145.776 50.4479Z" fill="#174153"/>
<path d="M215.464 48.3999H213.72V52.7679H215.464V48.3999Z" fill="#174153"/>
<path d="M217.792 47.5281H216.048V52.7681H217.792V47.5281Z" fill="#174153"/>
<path d="M220.12 46.9041H218.376V52.7681H220.12V46.9041Z" fill="#174153"/>
<path d="M222.456 45.824H220.712V52.768H222.456V45.824Z" fill="#174153"/>
<path d="M244.08 52.6561H233.6V46.2561H244.08V52.6561ZM234.176 52.0721H243.496V46.8241H234.176V52.0721Z" fill="#174153"/>
<path d="M240.584 47.4641H235.048V51.4401H240.584V47.4641Z" fill="#174153"/>
<path d="M245.032 48.696H243.712V50.208H245.032V48.696Z" fill="#174153"/>
<path d="M229.752 51.2561C229.681 51.2575 229.612 51.238 229.552 51.2001C227.416 49.9361 226.008 51.1121 225.944 51.2001C225.906 51.2344 225.862 51.2607 225.814 51.2774C225.765 51.294 225.714 51.3007 225.663 51.2969C225.613 51.2932 225.563 51.2791 225.518 51.2556C225.472 51.2321 225.432 51.1996 225.4 51.1601C225.364 51.1244 225.336 51.082 225.316 51.0353C225.297 50.9887 225.287 50.9386 225.287 50.8881C225.287 50.8376 225.297 50.7875 225.316 50.7408C225.336 50.6942 225.364 50.6518 225.4 50.6161C225.48 50.5441 227.28 49.0161 229.92 50.5681C230.009 50.6213 230.073 50.7076 230.099 50.808C230.124 50.9085 230.109 51.0149 230.056 51.1041C230.021 51.1515 229.975 51.19 229.922 51.2164C229.869 51.2428 229.811 51.2564 229.752 51.2561Z" fill="#174153"/>
<path d="M230.544 49.9439C230.473 49.9463 230.403 49.9268 230.344 49.8879C227.256 48.0559 225.184 49.8239 225.16 49.8879C225.121 49.9221 225.076 49.9482 225.027 49.9649C224.978 49.9816 224.926 49.9884 224.875 49.9851C224.823 49.9817 224.773 49.9683 224.726 49.9454C224.68 49.9226 224.638 49.8908 224.604 49.8519C224.57 49.8131 224.544 49.7679 224.527 49.7189C224.51 49.6699 224.504 49.6181 224.507 49.5665C224.51 49.5149 224.524 49.4644 224.547 49.418C224.569 49.3715 224.601 49.3301 224.64 49.2959C224.64 49.2959 227.168 47.1359 230.744 49.2959C230.831 49.3506 230.894 49.4368 230.92 49.5367C230.945 49.6365 230.931 49.7423 230.88 49.8319C230.836 49.8742 230.783 49.9061 230.725 49.9255C230.666 49.9448 230.605 49.9511 230.544 49.9439Z" fill="#174153"/>
<path d="M231.256 48.4161C231.185 48.4166 231.116 48.3972 231.056 48.3601C227.152 46.0401 224.552 48.2241 224.44 48.3201C224.404 48.3571 224.361 48.3866 224.314 48.4067C224.267 48.4268 224.216 48.4371 224.164 48.4371C224.113 48.4371 224.062 48.4268 224.014 48.4067C223.967 48.3866 223.924 48.3571 223.888 48.3201C223.823 48.242 223.79 48.1416 223.798 48.04C223.805 47.9385 223.852 47.8439 223.928 47.7761C223.928 47.7761 227.04 45.1041 231.456 47.7281C231.545 47.7814 231.609 47.8676 231.635 47.9681C231.66 48.0685 231.645 48.1749 231.592 48.2641C231.554 48.3162 231.503 48.3575 231.444 48.3841C231.385 48.4108 231.32 48.4218 231.256 48.4161Z" fill="#174153"/>
<path d="M228.576 51.912C228.578 52.107 228.521 52.298 228.414 52.4609C228.307 52.6237 228.154 52.7511 227.974 52.8268C227.795 52.9025 227.597 52.9232 227.405 52.8861C227.214 52.849 227.038 52.756 226.899 52.6187C226.761 52.4814 226.666 52.3061 226.628 52.115C226.589 51.9239 226.608 51.7256 226.682 51.5453C226.757 51.3651 226.883 51.2109 227.045 51.1024C227.207 50.994 227.397 50.936 227.592 50.936C227.852 50.936 228.101 51.0386 228.285 51.2214C228.469 51.4042 228.574 51.6525 228.576 51.912Z" fill="#174153"/>
<path d="M158.971 171V151H160.252V171H158.971ZM162.666 157.398C162.593 156.716 162.286 156.185 161.744 155.805C161.208 155.424 160.51 155.234 159.65 155.234C159.046 155.234 158.528 155.326 158.096 155.508C157.663 155.69 157.333 155.937 157.104 156.25C156.874 156.562 156.757 156.919 156.752 157.32C156.752 157.654 156.827 157.943 156.979 158.187C157.135 158.432 157.346 158.641 157.611 158.812C157.877 158.979 158.171 159.12 158.494 159.234C158.817 159.349 159.143 159.445 159.471 159.523L160.971 159.898C161.575 160.039 162.156 160.229 162.713 160.469C163.275 160.708 163.778 161.01 164.221 161.375C164.669 161.74 165.023 162.18 165.283 162.695C165.544 163.211 165.674 163.815 165.674 164.508C165.674 165.445 165.434 166.271 164.955 166.984C164.476 167.693 163.783 168.247 162.877 168.648C161.976 169.044 160.885 169.242 159.604 169.242C158.359 169.242 157.278 169.049 156.361 168.664C155.45 168.279 154.736 167.716 154.221 166.977C153.71 166.237 153.434 165.336 153.393 164.273H156.244C156.286 164.831 156.458 165.294 156.76 165.664C157.062 166.034 157.455 166.31 157.939 166.492C158.429 166.674 158.976 166.766 159.58 166.766C160.21 166.766 160.762 166.672 161.236 166.484C161.715 166.292 162.09 166.026 162.361 165.687C162.632 165.344 162.77 164.943 162.775 164.484C162.77 164.068 162.648 163.724 162.408 163.453C162.169 163.177 161.833 162.948 161.4 162.766C160.973 162.578 160.473 162.411 159.9 162.266L158.08 161.797C156.762 161.458 155.721 160.945 154.955 160.258C154.195 159.565 153.814 158.646 153.814 157.5C153.814 156.557 154.07 155.732 154.58 155.023C155.096 154.315 155.796 153.766 156.682 153.375C157.567 152.979 158.57 152.781 159.689 152.781C160.825 152.781 161.82 152.979 162.674 153.375C163.533 153.766 164.208 154.31 164.697 155.008C165.187 155.701 165.439 156.497 165.455 157.398H162.666ZM173.789 169.219C172.628 169.219 171.596 169.023 170.695 168.633C169.799 168.242 169.096 167.708 168.586 167.031C168.081 166.349 167.831 165.576 167.836 164.711C167.831 164.039 167.977 163.422 168.273 162.859C168.57 162.297 168.971 161.828 169.477 161.453C169.987 161.073 170.555 160.831 171.18 160.727V160.617C170.357 160.435 169.69 160.016 169.18 159.359C168.674 158.698 168.424 157.935 168.43 157.07C168.424 156.247 168.654 155.513 169.117 154.867C169.581 154.221 170.216 153.714 171.023 153.344C171.831 152.969 172.753 152.781 173.789 152.781C174.815 152.781 175.729 152.969 176.531 153.344C177.339 153.714 177.974 154.221 178.438 154.867C178.906 155.513 179.141 156.247 179.141 157.07C179.141 157.935 178.883 158.698 178.367 159.359C177.857 160.016 177.198 160.435 176.391 160.617V160.727C177.016 160.831 177.578 161.073 178.078 161.453C178.583 161.828 178.984 162.297 179.281 162.859C179.583 163.422 179.734 164.039 179.734 164.711C179.734 165.576 179.479 166.349 178.969 167.031C178.458 167.708 177.755 168.242 176.859 168.633C175.969 169.023 174.945 169.219 173.789 169.219ZM173.789 166.984C174.388 166.984 174.909 166.883 175.352 166.68C175.794 166.471 176.138 166.18 176.383 165.805C176.628 165.43 176.753 164.997 176.758 164.508C176.753 163.997 176.62 163.547 176.359 163.156C176.104 162.76 175.753 162.451 175.305 162.227C174.862 162.003 174.357 161.891 173.789 161.891C173.216 161.891 172.706 162.003 172.258 162.227C171.81 162.451 171.456 162.76 171.195 163.156C170.94 163.547 170.815 163.997 170.82 164.508C170.815 164.997 170.935 165.43 171.18 165.805C171.424 166.174 171.768 166.464 172.211 166.672C172.659 166.88 173.185 166.984 173.789 166.984ZM173.789 159.695C174.279 159.695 174.711 159.596 175.086 159.398C175.466 159.201 175.766 158.924 175.984 158.57C176.203 158.216 176.315 157.807 176.32 157.344C176.315 156.885 176.206 156.484 175.992 156.141C175.779 155.792 175.482 155.523 175.102 155.336C174.721 155.143 174.284 155.047 173.789 155.047C173.284 155.047 172.839 155.143 172.453 155.336C172.073 155.523 171.776 155.792 171.563 156.141C171.354 156.484 171.253 156.885 171.258 157.344C171.253 157.807 171.357 158.216 171.57 158.57C171.789 158.919 172.089 159.195 172.469 159.398C172.854 159.596 173.294 159.695 173.789 159.695ZM188.217 169.305C186.93 169.305 185.826 168.979 184.904 168.328C183.988 167.672 183.282 166.727 182.787 165.492C182.298 164.253 182.053 162.76 182.053 161.016C182.058 159.271 182.305 157.786 182.795 156.562C183.29 155.333 183.995 154.396 184.912 153.75C185.834 153.104 186.936 152.781 188.217 152.781C189.498 152.781 190.6 153.104 191.521 153.75C192.443 154.396 193.149 155.333 193.639 156.562C194.133 157.792 194.381 159.276 194.381 161.016C194.381 162.766 194.133 164.26 193.639 165.5C193.149 166.734 192.443 167.677 191.521 168.328C190.605 168.979 189.503 169.305 188.217 169.305ZM188.217 166.859C189.217 166.859 190.006 166.367 190.584 165.383C191.167 164.393 191.459 162.937 191.459 161.016C191.459 159.745 191.326 158.677 191.061 157.812C190.795 156.948 190.42 156.297 189.936 155.859C189.451 155.417 188.878 155.195 188.217 155.195C187.222 155.195 186.436 155.69 185.857 156.68C185.279 157.664 184.988 159.109 184.982 161.016C184.977 162.292 185.105 163.365 185.365 164.234C185.631 165.104 186.006 165.76 186.49 166.203C186.975 166.641 187.55 166.859 188.217 166.859ZM198.127 169.172C197.653 169.172 197.247 169.005 196.908 168.672C196.57 168.339 196.403 167.932 196.408 167.453C196.403 166.984 196.57 166.583 196.908 166.25C197.247 165.917 197.653 165.75 198.127 165.75C198.585 165.75 198.984 165.917 199.322 166.25C199.666 166.583 199.84 166.984 199.846 167.453C199.84 167.771 199.757 168.06 199.596 168.32C199.439 168.581 199.231 168.789 198.971 168.945C198.715 169.096 198.434 169.172 198.127 169.172ZM208.053 152.781C208.818 152.786 209.563 152.922 210.287 153.188C211.016 153.448 211.673 153.875 212.256 154.469C212.839 155.057 213.303 155.846 213.646 156.836C213.99 157.826 214.162 159.049 214.162 160.508C214.167 161.883 214.021 163.112 213.725 164.195C213.433 165.273 213.014 166.185 212.467 166.93C211.92 167.674 211.261 168.242 210.49 168.633C209.719 169.023 208.852 169.219 207.889 169.219C206.878 169.219 205.982 169.021 205.201 168.625C204.425 168.229 203.798 167.687 203.318 167C202.839 166.312 202.545 165.526 202.436 164.641H205.287C205.433 165.276 205.73 165.781 206.178 166.156C206.631 166.526 207.201 166.711 207.889 166.711C208.998 166.711 209.852 166.229 210.451 165.266C211.05 164.302 211.35 162.964 211.35 161.25H211.24C210.985 161.708 210.654 162.104 210.248 162.437C209.842 162.766 209.381 163.018 208.865 163.195C208.355 163.372 207.813 163.461 207.24 163.461C206.303 163.461 205.459 163.237 204.709 162.789C203.964 162.341 203.373 161.727 202.936 160.945C202.503 160.164 202.285 159.271 202.279 158.266C202.279 157.224 202.519 156.289 202.998 155.461C203.482 154.628 204.157 153.971 205.021 153.492C205.886 153.008 206.896 152.771 208.053 152.781ZM208.061 155.125C207.498 155.125 206.99 155.263 206.537 155.539C206.089 155.81 205.735 156.18 205.475 156.648C205.219 157.112 205.092 157.63 205.092 158.203C205.097 158.771 205.225 159.286 205.475 159.75C205.73 160.214 206.076 160.581 206.514 160.852C206.956 161.122 207.462 161.258 208.029 161.258C208.451 161.258 208.844 161.177 209.209 161.016C209.574 160.854 209.891 160.63 210.162 160.344C210.438 160.052 210.652 159.721 210.803 159.352C210.959 158.982 211.035 158.591 211.029 158.18C211.029 157.633 210.899 157.128 210.639 156.664C210.383 156.201 210.032 155.828 209.584 155.547C209.141 155.266 208.633 155.125 208.061 155.125ZM222.318 152.781C223.084 152.786 223.829 152.922 224.553 153.188C225.282 153.448 225.938 153.875 226.521 154.469C227.105 155.057 227.568 155.846 227.912 156.836C228.256 157.826 228.428 159.049 228.428 160.508C228.433 161.883 228.287 163.112 227.99 164.195C227.699 165.273 227.279 166.185 226.732 166.93C226.186 167.674 225.527 168.242 224.756 168.633C223.985 169.023 223.118 169.219 222.154 169.219C221.144 169.219 220.248 169.021 219.467 168.625C218.691 168.229 218.063 167.687 217.584 167C217.105 166.312 216.811 165.526 216.701 164.641H219.553C219.699 165.276 219.995 165.781 220.443 166.156C220.896 166.526 221.467 166.711 222.154 166.711C223.264 166.711 224.118 166.229 224.717 165.266C225.316 164.302 225.615 162.964 225.615 161.25H225.506C225.251 161.708 224.92 162.104 224.514 162.437C224.107 162.766 223.646 163.018 223.131 163.195C222.62 163.372 222.079 163.461 221.506 163.461C220.568 163.461 219.725 163.237 218.975 162.789C218.23 162.341 217.639 161.727 217.201 160.945C216.769 160.164 216.55 159.271 216.545 158.266C216.545 157.224 216.785 156.289 217.264 155.461C217.748 154.628 218.423 153.971 219.287 153.492C220.152 153.008 221.162 152.771 222.318 152.781ZM222.326 155.125C221.764 155.125 221.256 155.263 220.803 155.539C220.355 155.81 220.001 156.18 219.74 156.648C219.485 157.112 219.357 157.63 219.357 158.203C219.363 158.771 219.49 159.286 219.74 159.75C219.995 160.214 220.342 160.581 220.779 160.852C221.222 161.122 221.727 161.258 222.295 161.258C222.717 161.258 223.11 161.177 223.475 161.016C223.839 160.854 224.157 160.63 224.428 160.344C224.704 160.052 224.917 159.721 225.068 159.352C225.225 158.982 225.3 158.591 225.295 158.18C225.295 157.633 225.165 157.128 224.904 156.664C224.649 156.201 224.298 155.828 223.85 155.547C223.407 155.266 222.899 155.125 222.326 155.125Z" fill="black"/>
<path d="M162.328 96.064V82.584H167.2V83.56H163.608V88.624H166.536V89.6H163.608V95.2H167.232V96.144L162.328 96.064Z" fill="#174153"/>
<path d="M168.512 91.1199V90.1599H172.04V91.1199H168.512Z" fill="#174153"/>
<path d="M175.6 96.064L173.32 82.584H174.4L176.184 93.536L178.216 82.784H179.264L181.344 93.552L182.992 82.584H184.056L181.88 96.064H180.896L178.744 84.944L176.632 96.064H175.6Z" fill="#174153"/>
<path d="M184.576 96.064L187.424 82.584H188.752L191.616 96.064H190.4L189.736 92.456H186.536L185.856 96.064H184.576ZM186.672 91.536H189.536L188.088 84.264L186.672 91.536Z" fill="#174153"/>
<path d="M193.248 96.064V82.584H194.512V95.12H198.344V96.064H193.248Z" fill="#174153"/>
<path d="M199.608 96.064V82.584H200.872V95.12H204.704V96.064H199.608Z" fill="#174153"/>
<path d="M205.952 96.064V82.584H210.832V83.56H207.2V88.624H210.128V89.6H207.2V95.2H210.832V96.144L205.952 96.064Z" fill="#174153"/>
<path d="M214.256 96.064V83.56H211.712V82.584H217.984V83.56H215.52V96.064H214.256Z" fill="#174153"/>
<path d="M177.368 220V205.6H182.168C182.909 205.571 183.644 205.743 184.296 206.096C184.855 206.418 185.291 206.916 185.536 207.512C185.826 208.228 185.965 208.996 185.944 209.768C185.996 210.65 185.808 211.529 185.4 212.312C185.059 212.876 184.533 213.306 183.912 213.528C183.233 213.76 182.518 213.873 181.8 213.864H180.52V220H177.368ZM180.568 211.68H181.6C181.91 211.698 182.219 211.626 182.488 211.472C182.696 211.316 182.839 211.088 182.888 210.832C182.959 210.476 182.991 210.114 182.984 209.752C182.989 209.428 182.962 209.103 182.904 208.784C182.864 208.522 182.727 208.285 182.52 208.12C182.246 207.932 181.915 207.844 181.584 207.872H180.536L180.568 211.68Z" fill="#174153"/>
<path d="M185.96 220L188.672 205.6H192.288L194.968 220H192.04L191.568 216.968H189.456L188.96 220H185.96ZM189.736 215.064H191.264L190.464 209.464L189.736 215.064Z" fill="#174153"/>
<path d="M197.52 220V214.16L194.792 205.664H197.784L199.152 210.208L200.376 205.664H203.248L200.568 214.16V220H197.52Z" fill="#174153"/>
<path d="M117 55.136C102.936 48.8 88.5281 40.8 80.0881 27.376C78.2321 24.432 76.7921 21.528 75.8721 20.176C74.9521 21.568 73.5201 24.472 71.6641 27.376C63.2001 40.8 48.8001 48.8 34.7441 55.136C34.1201 55.424 24.0721 58.928 24.0801 59.032C24.0881 59.136 26.2001 111.032 42.1921 133.8C55.8481 153.224 71.5681 160.128 75.8721 161.728C80.1761 160.128 95.8721 153.224 109.552 133.8C125.552 111.056 127.664 59.04 127.664 59.032C127.664 59.024 117.6 55.424 117 55.136Z" fill="#B9FA02"/>
<path d="M112.576 58.992C100.024 53.344 87.1681 46.192 79.6321 34.192C77.9761 31.56 76.6881 28.968 75.8721 27.728C75.0721 28.968 73.7681 31.56 72.1121 34.192C64.5841 46.176 51.7201 53.344 39.2001 58.992C38.6401 59.24 29.6721 62.368 29.6721 62.464C29.6721 62.56 31.5681 108.864 45.8401 129.192C58.0001 146.52 72.0001 152.68 75.8721 154.112C79.7121 152.68 93.7441 146.52 105.928 129.192C120.2 108.896 122.096 62.472 122.096 62.464C122.096 62.456 113.128 59.24 112.576 58.992Z" fill="white"/>
<path d="M76.2081 127.4C94.0624 127.4 108.536 112.926 108.536 95.0721C108.536 77.2179 94.0624 62.7441 76.2081 62.7441C58.3539 62.7441 43.8801 77.2179 43.8801 95.0721C43.8801 112.926 58.3539 127.4 76.2081 127.4Z" fill="#174153" stroke="#174153" stroke-linecap="round" stroke-linejoin="round"/>
<path d="M74.2081 105.224H73.9121C73.3761 105.18 72.8577 105.012 72.397 104.735C71.9363 104.457 71.5459 104.077 71.2561 103.624L61.6001 88.272C61.3359 87.885 61.1524 87.4486 61.0605 86.9891C60.9687 86.5295 60.9704 86.0562 61.0656 85.5973C61.1608 85.1384 61.3474 84.7034 61.6145 84.3183C61.8815 83.9331 62.2234 83.6058 62.6197 83.3557C63.0161 83.1056 63.4587 82.938 63.9213 82.8628C64.3839 82.7876 64.8569 82.8064 65.312 82.9181C65.7672 83.0297 66.1951 83.232 66.5704 83.5127C66.9456 83.7934 67.2605 84.1469 67.4961 84.552L74.6961 95.976L94.6081 73.752C94.9061 73.3865 95.2751 73.0852 95.6929 72.8663C96.1106 72.6475 96.5684 72.5156 97.0386 72.4787C97.5088 72.4418 97.9815 72.5006 98.4283 72.6516C98.8751 72.8026 99.2866 73.0427 99.638 73.3572C99.9894 73.6718 100.273 74.0544 100.473 74.4818C100.672 74.9092 100.783 75.3726 100.798 75.844C100.813 76.3153 100.732 76.7849 100.561 77.2242C100.389 77.6636 100.131 78.0636 99.8001 78.4L76.8001 104.064C76.4742 104.429 76.0748 104.721 75.6281 104.921C75.1814 105.121 74.6975 105.224 74.2081 105.224Z" fill="#B9FA02" stroke="#174153" stroke-miterlimit="10"/>
<path opacity="0.18" d="M86.208 98.4C67.9611 104.436 52.0515 116.014 40.696 131.52C41.184 132.32 41.68 133.064 42.192 133.792C55.848 153.216 71.568 160.12 75.872 161.72C80.176 160.12 95.872 153.216 109.552 133.792C118.64 120.872 123.248 98.496 125.552 81.584C116.464 86.744 103.728 92.656 86.208 98.4Z" fill="black"/>
<path d="M117 55.136C102.936 48.8 88.5281 40.8 80.0881 27.376C78.2321 24.432 76.7921 21.528 75.8721 20.176C74.9521 21.568 73.5201 24.472 71.6641 27.376C63.2001 40.8 48.8001 48.8 34.7441 55.136C34.1201 55.424 24.0721 58.928 24.0801 59.032C24.0881 59.136 26.2001 111.032 42.1921 133.8C55.8481 153.224 71.5681 160.128 75.8721 161.728C80.1761 160.128 95.8721 153.224 109.552 133.8C125.552 111.056 127.664 59.04 127.664 59.032C127.664 59.024 117.6 55.424 117 55.136Z" stroke="#174153" stroke-miterlimit="10"/>
<path d="M89.6518 375.044C105.173 359.523 105.173 334.359 89.6518 318.838C74.1308 303.317 48.9663 303.317 33.4453 318.838C17.9243 334.359 17.9243 359.523 33.4453 375.044C48.9663 390.565 74.1308 390.565 89.6518 375.044Z" fill="white" stroke="#174153" stroke-miterlimit="10"/>
<path d="M69.1516 379.437C87.0998 375.237 98.2451 357.283 94.0453 339.334C89.8455 321.386 71.891 310.241 53.9427 314.441C35.9945 318.641 24.8492 336.595 29.049 354.543C33.2488 372.492 51.2033 383.637 69.1516 379.437Z" fill="white" stroke="#174153" stroke-miterlimit="10"/>
<path d="M68.408 377.312L67.28 372C63.3227 372.688 60.1227 372.056 57.68 370.104C55.2373 368.152 53.4427 364.851 52.296 360.2L60.056 357.12C60.4312 358.717 60.9673 360.271 61.656 361.76C62.0969 362.782 62.8111 363.662 63.72 364.304C64.1224 364.552 64.5708 364.716 65.0383 364.786C65.5057 364.856 65.9825 364.831 66.44 364.712C66.9216 364.665 67.3807 364.485 67.7662 364.193C68.1518 363.9 68.4487 363.507 68.624 363.056C68.8979 362.158 68.931 361.203 68.72 360.288C68.4087 358.545 67.5711 356.94 66.32 355.688C64.9582 354.426 63.4357 353.35 61.792 352.488L56.048 349.344C54.7795 348.592 53.5634 347.756 52.408 346.84C51.2833 345.939 50.3156 344.857 49.544 343.64C48.6655 342.195 48.0531 340.605 47.736 338.944C46.9947 335.381 47.4293 332.373 49.04 329.92C50.8322 327.369 53.4857 325.55 56.512 324.8L55.432 319.712L58.176 319.128L59.256 324.216C61.0411 323.87 62.8847 323.98 64.616 324.536C66.0236 325.027 67.2821 325.869 68.272 326.984C69.2352 328.108 70.0253 329.37 70.616 330.728C71.2122 332.068 71.707 333.45 72.096 334.864L64.176 337.8C63.888 336.55 63.5083 335.322 63.04 334.128C62.711 333.232 62.1605 332.434 61.44 331.808C61.0887 331.551 60.6804 331.383 60.2501 331.317C59.8197 331.252 59.3799 331.291 58.968 331.432C58.4903 331.529 58.0436 331.742 57.6671 332.051C57.2905 332.361 56.9956 332.758 56.808 333.208C56.4279 334.113 56.3385 335.114 56.552 336.072C56.8023 337.599 57.5639 338.995 58.712 340.032C59.8167 340.948 60.9909 341.777 62.224 342.512L67.824 345.616C69.3262 346.492 70.7572 347.484 72.104 348.584C73.4588 349.701 74.6421 351.011 75.616 352.472C76.6683 354.105 77.3987 355.924 77.768 357.832C78.1986 359.735 78.1794 361.713 77.712 363.608C77.2654 365.419 76.3397 367.077 75.032 368.408C73.6196 369.814 71.875 370.84 69.96 371.392L71.104 376.768L68.408 377.312Z" fill="#174153"/>
<path d="M317.568 363.679C326.834 343.781 318.215 320.139 298.317 310.873C278.418 301.607 254.776 310.226 245.51 330.124C236.244 350.022 244.863 373.665 264.761 382.931C284.66 392.197 308.302 383.578 317.568 363.679Z" fill="white" stroke="#174153" stroke-miterlimit="10"/>
<path d="M289.484 379.339C307.391 374.964 318.36 356.901 313.985 338.995C309.61 321.089 291.547 310.12 273.641 314.495C255.735 318.87 244.765 336.932 249.14 354.839C253.515 372.745 271.578 383.714 289.484 379.339Z" fill="white" stroke="#174153" stroke-miterlimit="10"/>
<path d="M288.408 377.312L287.272 372C283.32 372.688 280.12 372.056 277.672 370.104C275.224 368.152 273.427 364.851 272.28 360.2L280.048 357.12C280.42 358.718 280.956 360.273 281.648 361.76C282.086 362.783 282.801 363.664 283.712 364.304C284.113 364.552 284.56 364.716 285.026 364.786C285.492 364.857 285.968 364.831 286.424 364.712C286.906 364.668 287.367 364.489 287.753 364.196C288.139 363.904 288.435 363.509 288.608 363.056C288.888 362.159 288.924 361.204 288.712 360.288C288.397 358.547 287.56 356.942 286.312 355.688C284.949 354.428 283.426 353.353 281.784 352.488L276.032 349.344C274.766 348.593 273.553 347.756 272.4 346.84C271.273 345.941 270.305 344.859 269.536 343.64C268.657 342.195 268.045 340.605 267.728 338.944C266.965 335.365 267.389 332.36 269 329.928C270.792 327.368 273.448 325.541 276.48 324.784L275.4 319.696L278.144 319.112L279.224 324.2C281.006 323.854 282.847 323.965 284.576 324.52C285.985 325.009 287.244 325.852 288.232 326.968C289.2 328.09 289.993 329.353 290.584 330.712C291.178 332.052 291.67 333.434 292.056 334.848L284.144 337.784C283.852 336.535 283.473 335.308 283.008 334.112C282.679 333.216 282.128 332.418 281.408 331.792C281.058 331.535 280.651 331.367 280.222 331.301C279.793 331.236 279.355 331.275 278.944 331.416C278.466 331.513 278.02 331.726 277.643 332.035C277.267 332.345 276.972 332.742 276.784 333.192C276.4 334.096 276.31 335.098 276.528 336.056C276.772 337.583 277.532 338.98 278.68 340.016C279.786 340.931 280.96 341.76 282.192 342.496L287.792 345.6C289.295 346.474 290.727 347.466 292.072 348.568C293.429 349.683 294.612 350.993 295.584 352.456C296.639 354.089 297.372 355.908 297.744 357.816C298.171 359.72 298.151 361.697 297.688 363.592C297.237 365.403 296.309 367.061 295 368.392C293.59 369.798 291.849 370.824 289.936 371.376L291.072 376.752L288.408 377.312Z" fill="#174153"/>
<path d="M381.984 290.248V288.064" stroke="#174153" stroke-miterlimit="10"/>
<path d="M383.888 285.544H317.072V290.424H383.888V285.544Z" fill="white" stroke="#174153" stroke-miterlimit="10"/>
<path d="M320.024 290.856V287.824" stroke="#174153" stroke-miterlimit="10"/>
<path d="M322.088 285.76V288.792" stroke="#174153" stroke-miterlimit="10"/>
<path d="M379.56 286.008V288.912" stroke="#174153" stroke-miterlimit="10"/>
<path d="M376.408 286.008V288.792" stroke="#174153" stroke-miterlimit="10"/>
<path d="M368.648 285.88V289.4" stroke="#174153" stroke-miterlimit="10"/>
<path d="M327.056 286.248V287.824" stroke="#174153" stroke-miterlimit="10"/>
<path d="M328.272 289.88V287.096" stroke="#174153" stroke-miterlimit="10"/>
<path d="M336.88 285.88V289.4" stroke="#174153" stroke-miterlimit="10"/>
<path d="M352.032 286.248V288.672" stroke="#174153" stroke-miterlimit="10"/>
<path d="M386.816 295.048V292.864" stroke="#174153" stroke-miterlimit="10"/>
<path d="M388.72 290.344H321.904V295.224H388.72V290.344Z" fill="white" stroke="#174153" stroke-miterlimit="10"/>
<path d="M324.856 295.648V292.616" stroke="#174153" stroke-miterlimit="10"/>
<path d="M326.92 290.56V293.592" stroke="#174153" stroke-miterlimit="10"/>
<path d="M384.384 290.8V293.712" stroke="#174153" stroke-miterlimit="10"/>
<path d="M381.232 290.8V293.592" stroke="#174153" stroke-miterlimit="10"/>
<path d="M373.472 290.68V294.2" stroke="#174153" stroke-miterlimit="10"/>
<path d="M331.888 291.04V292.616" stroke="#174153" stroke-miterlimit="10"/>
<path d="M333.104 294.68V291.896" stroke="#174153" stroke-miterlimit="10"/>
<path d="M341.712 290.68V294.2" stroke="#174153" stroke-miterlimit="10"/>
<path d="M356.864 291.04V293.472" stroke="#174153" stroke-miterlimit="10"/>
<path d="M385.12 299.84V297.656" stroke="#174153" stroke-miterlimit="10"/>
<path d="M387.024 295.136H320.208V300.016H387.024V295.136Z" fill="white" stroke="#174153" stroke-miterlimit="10"/>
<path d="M323.16 300.448V297.416" stroke="#174153" stroke-miterlimit="10"/>
<path d="M325.224 295.36V298.384" stroke="#174153" stroke-miterlimit="10"/>
<path d="M382.696 295.6V298.512" stroke="#174153" stroke-miterlimit="10"/>
<path d="M379.536 295.6V298.384" stroke="#174153" stroke-miterlimit="10"/>
<path d="M371.784 295.48V298.992" stroke="#174153" stroke-miterlimit="10"/>
<path d="M330.192 295.84V297.416" stroke="#174153" stroke-miterlimit="10"/>
<path d="M331.408 299.48V296.688" stroke="#174153" stroke-miterlimit="10"/>
<path d="M340.016 295.48V298.992" stroke="#174153" stroke-miterlimit="10"/>
<path d="M355.168 295.84V298.264" stroke="#174153" stroke-miterlimit="10"/>
<path d="M386.816 304.64V302.456" stroke="#174153" stroke-miterlimit="10"/>
<path d="M388.728 299.936H321.912V304.816H388.728V299.936Z" fill="white" stroke="#174153" stroke-miterlimit="10"/>
<path d="M324.864 305.248V302.216" stroke="#174153" stroke-miterlimit="10"/>
<path d="M326.928 300.152V303.184" stroke="#174153" stroke-miterlimit="10"/>
<path d="M384.392 300.4V303.304" stroke="#174153" stroke-miterlimit="10"/>
<path d="M381.24 300.4V303.184" stroke="#174153" stroke-miterlimit="10"/>
<path d="M373.48 300.272V303.792" stroke="#174153" stroke-miterlimit="10"/>
<path d="M331.896 300.64V302.216" stroke="#174153" stroke-miterlimit="10"/>
<path d="M333.112 304.272V301.488" stroke="#174153" stroke-miterlimit="10"/>
<path d="M341.72 300.272V303.792" stroke="#174153" stroke-miterlimit="10"/>
<path d="M356.872 300.64V303.064" stroke="#174153" stroke-miterlimit="10"/>
<path d="M381.984 309.44V307.256" stroke="#174153" stroke-miterlimit="10"/>
<path d="M383.888 304.736H317.072V309.616H383.888V304.736Z" fill="white" stroke="#174153" stroke-miterlimit="10"/>
<path d="M320.024 310.04V307.008" stroke="#174153" stroke-miterlimit="10"/>
<path d="M322.088 304.952V307.984" stroke="#174153" stroke-miterlimit="10"/>
<path d="M379.56 305.192V308.104" stroke="#174153" stroke-miterlimit="10"/>
<path d="M376.408 305.192V307.984" stroke="#174153" stroke-miterlimit="10"/>
<path d="M368.648 305.072V308.592" stroke="#174153" stroke-miterlimit="10"/>
<path d="M327.056 305.432V307.008" stroke="#174153" stroke-miterlimit="10"/>
<path d="M328.272 309.072V306.288" stroke="#174153" stroke-miterlimit="10"/>
<path d="M336.88 305.072V308.592" stroke="#174153" stroke-miterlimit="10"/>
<path d="M352.032 305.432V307.864" stroke="#174153" stroke-miterlimit="10"/>
<path d="M381.984 314.232V312.048" stroke="#174153" stroke-miterlimit="10"/>
<path d="M383.888 309.528H317.072V314.408H383.888V309.528Z" fill="white" stroke="#174153" stroke-miterlimit="10"/>
<path d="M320.024 314.84V311.808" stroke="#174153" stroke-miterlimit="10"/>
<path d="M322.088 309.744V312.776" stroke="#174153" stroke-miterlimit="10"/>
<path d="M379.56 309.992V312.904" stroke="#174153" stroke-miterlimit="10"/>
<path d="M376.408 309.992V312.776" stroke="#174153" stroke-miterlimit="10"/>
<path d="M368.648 309.872V313.384" stroke="#174153" stroke-miterlimit="10"/>
<path d="M327.056 310.232V311.808" stroke="#174153" stroke-miterlimit="10"/>
<path d="M328.272 313.872V311.08" stroke="#174153" stroke-miterlimit="10"/>
<path d="M336.88 309.872V313.384" stroke="#174153" stroke-miterlimit="10"/>
<path d="M352.032 310.232V312.656" stroke="#174153" stroke-miterlimit="10"/>
<path d="M381.984 319.032V316.848" stroke="#174153" stroke-miterlimit="10"/>
<path d="M383.888 314.328H317.072V319.208H383.888V314.328Z" fill="white" stroke="#174153" stroke-miterlimit="10"/>
<path d="M320.024 319.64V316.608" stroke="#174153" stroke-miterlimit="10"/>
<path d="M322.088 314.544V317.576" stroke="#174153" stroke-miterlimit="10"/>
<path d="M379.56 314.784V317.696" stroke="#174153" stroke-miterlimit="10"/>
<path d="M376.408 314.784V317.576" stroke="#174153" stroke-miterlimit="10"/>
<path d="M368.648 314.664V318.184" stroke="#174153" stroke-miterlimit="10"/>
<path d="M327.056 315.032V316.608" stroke="#174153" stroke-miterlimit="10"/>
<path d="M328.272 318.664V315.88" stroke="#174153" stroke-miterlimit="10"/>
<path d="M336.88 314.664V318.184" stroke="#174153" stroke-miterlimit="10"/>
<path d="M352.032 315.032V317.456" stroke="#174153" stroke-miterlimit="10"/>
<path d="M387.208 323.832V321.648" stroke="#174153" stroke-miterlimit="10"/>
<path d="M389.112 319.128H322.296V324.008H389.112V319.128Z" fill="white" stroke="#174153" stroke-miterlimit="10"/>
<path d="M325.256 324.432V321.4" stroke="#174153" stroke-miterlimit="10"/>
<path d="M327.312 319.344V322.376" stroke="#174153" stroke-miterlimit="10"/>
<path d="M384.784 319.584V322.496" stroke="#174153" stroke-miterlimit="10"/>
<path d="M381.632 319.584V322.376" stroke="#174153" stroke-miterlimit="10"/>
<path d="M373.872 319.464V322.976" stroke="#174153" stroke-miterlimit="10"/>
<path d="M332.288 319.824V321.4" stroke="#174153" stroke-miterlimit="10"/>
<path d="M333.496 323.464V320.68" stroke="#174153" stroke-miterlimit="10"/>
<path d="M342.104 319.464V322.976" stroke="#174153" stroke-miterlimit="10"/>
<path d="M357.264 319.824V322.256" stroke="#174153" stroke-miterlimit="10"/>
<path d="M389.032 328.624V326.44" stroke="#174153" stroke-miterlimit="10"/>
<path d="M390.944 323.92H324.128V328.8H390.944V323.92Z" fill="white" stroke="#174153" stroke-miterlimit="10"/>
<path d="M327.08 329.232V326.2" stroke="#174153" stroke-miterlimit="10"/>
<path d="M329.144 324.136V327.168" stroke="#174153" stroke-miterlimit="10"/>
<path d="M386.608 324.384V327.296" stroke="#174153" stroke-miterlimit="10"/>
<path d="M383.456 324.384V327.168" stroke="#174153" stroke-miterlimit="10"/>
<path d="M375.696 324.264V327.776" stroke="#174153" stroke-miterlimit="10"/>
<path d="M334.112 324.624V326.2" stroke="#174153" stroke-miterlimit="10"/>
<path d="M335.328 328.264V325.472" stroke="#174153" stroke-miterlimit="10"/>
<path d="M343.936 324.264V327.776" stroke="#174153" stroke-miterlimit="10"/>
<path d="M359.088 324.624V327.048" stroke="#174153" stroke-miterlimit="10"/>
<path d="M386.824 333.424V331.24" stroke="#174153" stroke-miterlimit="10"/>
<path d="M388.728 328.72H321.912V333.6H388.728V328.72Z" fill="white" stroke="#174153" stroke-miterlimit="10"/>
<path d="M324.872 334.032V331" stroke="#174153" stroke-miterlimit="10"/>
<path d="M326.928 328.936V331.968" stroke="#174153" stroke-miterlimit="10"/>
<path d="M384.4 329.176V332.088" stroke="#174153" stroke-miterlimit="10"/>
<path d="M381.248 329.176V331.968" stroke="#174153" stroke-miterlimit="10"/>
<path d="M373.488 329.056V332.576" stroke="#174153" stroke-miterlimit="10"/>
<path d="M331.904 329.424V331" stroke="#174153" stroke-miterlimit="10"/>
<path d="M333.112 333.056V330.272" stroke="#174153" stroke-miterlimit="10"/>
<path d="M341.72 329.056V332.576" stroke="#174153" stroke-miterlimit="10"/>
<path d="M356.88 329.424V331.848" stroke="#174153" stroke-miterlimit="10"/>
<path d="M381.984 338.224V336.04" stroke="#174153" stroke-miterlimit="10"/>
<path d="M383.888 333.52H317.072V338.4H383.888V333.52Z" fill="white" stroke="#174153" stroke-miterlimit="10"/>
<path d="M320.024 338.824V335.792" stroke="#174153" stroke-miterlimit="10"/>
<path d="M322.088 333.736V336.768" stroke="#174153" stroke-miterlimit="10"/>
<path d="M379.56 333.976V336.888" stroke="#174153" stroke-miterlimit="10"/>
<path d="M376.408 333.976V336.768" stroke="#174153" stroke-miterlimit="10"/>
<path d="M368.648 333.856V337.368" stroke="#174153" stroke-miterlimit="10"/>
<path d="M327.056 334.216V335.792" stroke="#174153" stroke-miterlimit="10"/>
<path d="M328.272 337.856V335.072" stroke="#174153" stroke-miterlimit="10"/>
<path d="M336.88 333.856V337.368" stroke="#174153" stroke-miterlimit="10"/>
<path d="M352.032 334.216V336.648" stroke="#174153" stroke-miterlimit="10"/>
<path d="M380.368 343.016V340.832" stroke="#174153" stroke-miterlimit="10"/>
<path d="M382.272 338.312H315.456V343.192H382.272V338.312Z" fill="white" stroke="#174153" stroke-miterlimit="10"/>
<path d="M318.416 343.624V340.592" stroke="#174153" stroke-miterlimit="10"/>
<path d="M320.472 338.528V341.56" stroke="#174153" stroke-miterlimit="10"/>
<path d="M377.944 338.776V341.68" stroke="#174153" stroke-miterlimit="10"/>
<path d="M374.792 338.776V341.56" stroke="#174153" stroke-miterlimit="10"/>
<path d="M367.032 338.656V342.168" stroke="#174153" stroke-miterlimit="10"/>
<path d="M325.448 339.016V340.592" stroke="#174153" stroke-miterlimit="10"/>
<path d="M326.656 342.656V339.864" stroke="#174153" stroke-miterlimit="10"/>
<path d="M335.264 338.656V342.168" stroke="#174153" stroke-miterlimit="10"/>
<path d="M350.424 339.016V341.44" stroke="#174153" stroke-miterlimit="10"/>
<path d="M380.048 347.816V345.632" stroke="#174153" stroke-miterlimit="10"/>
<path d="M381.952 343.112H315.136V347.992H381.952V343.112Z" fill="white" stroke="#174153" stroke-miterlimit="10"/>
<path d="M318.088 348.424V345.392" stroke="#174153" stroke-miterlimit="10"/>
<path d="M320.152 343.328V346.36" stroke="#174153" stroke-miterlimit="10"/>
<path d="M377.624 343.568V346.48" stroke="#174153" stroke-miterlimit="10"/>
<path d="M374.472 343.568V346.36" stroke="#174153" stroke-miterlimit="10"/>
<path d="M366.712 343.448V346.968" stroke="#174153" stroke-miterlimit="10"/>
<path d="M325.12 343.816V345.392" stroke="#174153" stroke-miterlimit="10"/>
<path d="M326.336 347.448V344.664" stroke="#174153" stroke-miterlimit="10"/>
<path d="M334.944 343.448V346.968" stroke="#174153" stroke-miterlimit="10"/>
<path d="M350.096 343.816V346.24" stroke="#174153" stroke-miterlimit="10"/>
<path d="M380.208 352.616V350.432" stroke="#174153" stroke-miterlimit="10"/>
<path d="M382.112 347.912H315.296V352.792H382.112V347.912Z" fill="white" stroke="#174153" stroke-miterlimit="10"/>
<path d="M318.256 353.216V350.184" stroke="#174153" stroke-miterlimit="10"/>
<path d="M320.312 348.128V351.16" stroke="#174153" stroke-miterlimit="10"/>
<path d="M377.784 348.368V351.28" stroke="#174153" stroke-miterlimit="10"/>
<path d="M374.632 348.368V351.16" stroke="#174153" stroke-miterlimit="10"/>
<path d="M366.872 348.248V351.76" stroke="#174153" stroke-miterlimit="10"/>
<path d="M325.288 348.608V350.184" stroke="#174153" stroke-miterlimit="10"/>
<path d="M326.496 352.248V349.456" stroke="#174153" stroke-miterlimit="10"/>
<path d="M335.104 348.248V351.76" stroke="#174153" stroke-miterlimit="10"/>
<path d="M350.264 348.608V351.04" stroke="#174153" stroke-miterlimit="10"/>
<path d="M379.24 357.408V355.224" stroke="#174153" stroke-miterlimit="10"/>
<path d="M381.144 352.704H314.328V357.584H381.144V352.704Z" fill="white" stroke="#174153" stroke-miterlimit="10"/>
<path d="M317.288 358.016V354.984" stroke="#174153" stroke-miterlimit="10"/>
<path d="M319.344 352.92V355.952" stroke="#174153" stroke-miterlimit="10"/>
<path d="M376.816 353.168V356.072" stroke="#174153" stroke-miterlimit="10"/>
<path d="M373.664 353.168V355.952" stroke="#174153" stroke-miterlimit="10"/>
<path d="M365.904 353.048V356.56" stroke="#174153" stroke-miterlimit="10"/>
<path d="M324.32 353.408V354.984" stroke="#174153" stroke-miterlimit="10"/>
<path d="M325.528 357.048V354.256" stroke="#174153" stroke-miterlimit="10"/>
<path d="M334.136 353.048V356.56" stroke="#174153" stroke-miterlimit="10"/>
<path d="M349.296 353.408V355.832" stroke="#174153" stroke-miterlimit="10"/>
<path d="M379.4 362.208V360.024" stroke="#174153" stroke-miterlimit="10"/>
<path d="M381.304 357.504H314.488V362.384H381.304V357.504Z" fill="white" stroke="#174153" stroke-miterlimit="10"/>
<path d="M317.448 362.816V359.784" stroke="#174153" stroke-miterlimit="10"/>
<path d="M319.504 357.72V360.752" stroke="#174153" stroke-miterlimit="10"/>
<path d="M376.976 357.96V360.872" stroke="#174153" stroke-miterlimit="10"/>
<path d="M373.824 357.96V360.752" stroke="#174153" stroke-miterlimit="10"/>
<path d="M366.064 357.84V361.36" stroke="#174153" stroke-miterlimit="10"/>
<path d="M324.48 358.208V359.784" stroke="#174153" stroke-miterlimit="10"/>
<path d="M325.688 361.84V359.056" stroke="#174153" stroke-miterlimit="10"/>
<path d="M334.296 357.84V361.36" stroke="#174153" stroke-miterlimit="10"/>
<path d="M349.456 358.208V360.632" stroke="#174153" stroke-miterlimit="10"/>
<path d="M380.048 367V364.824" stroke="#174153" stroke-miterlimit="10"/>
<path d="M381.952 362.304H315.136V367.184H381.952V362.304Z" fill="white" stroke="#174153" stroke-miterlimit="10"/>
<path d="M318.088 367.608V364.576" stroke="#174153" stroke-miterlimit="10"/>
<path d="M320.152 362.52V365.552" stroke="#174153" stroke-miterlimit="10"/>
<path d="M377.624 362.76V365.672" stroke="#174153" stroke-miterlimit="10"/>
<path d="M374.472 362.76V365.552" stroke="#174153" stroke-miterlimit="10"/>
<path d="M366.712 362.64V366.152" stroke="#174153" stroke-miterlimit="10"/>
<path d="M325.12 363V364.576" stroke="#174153" stroke-miterlimit="10"/>
<path d="M326.336 366.64V363.848" stroke="#174153" stroke-miterlimit="10"/>
<path d="M334.944 362.64V366.152" stroke="#174153" stroke-miterlimit="10"/>
<path d="M350.096 363V365.424" stroke="#174153" stroke-miterlimit="10"/>
<path d="M380.208 371.8V369.616" stroke="#174153" stroke-miterlimit="10"/>
<path d="M382.112 367.096H315.296V371.976H382.112V367.096Z" fill="white" stroke="#174153" stroke-miterlimit="10"/>
<path d="M318.256 372.408V369.376" stroke="#174153" stroke-miterlimit="10"/>
<path d="M320.312 367.312V370.344" stroke="#174153" stroke-miterlimit="10"/>
<path d="M377.784 367.56V370.464" stroke="#174153" stroke-miterlimit="10"/>
<path d="M374.632 367.56V370.344" stroke="#174153" stroke-miterlimit="10"/>
<path d="M366.872 367.44V370.952" stroke="#174153" stroke-miterlimit="10"/>
<path d="M325.288 367.8V369.376" stroke="#174153" stroke-miterlimit="10"/>
<path d="M326.496 371.44V368.648" stroke="#174153" stroke-miterlimit="10"/>
<path d="M335.104 367.44V370.952" stroke="#174153" stroke-miterlimit="10"/>
<path d="M350.264 367.8V370.224" stroke="#174153" stroke-miterlimit="10"/>
<path d="M381.984 376.6V374.416" stroke="#174153" stroke-miterlimit="10"/>
<path d="M383.888 371.896H317.072V376.776H383.888V371.896Z" fill="white" stroke="#174153" stroke-miterlimit="10"/>
<path d="M320.024 377.208V374.176" stroke="#174153" stroke-miterlimit="10"/>
<path d="M322.088 372.112V375.144" stroke="#174153" stroke-miterlimit="10"/>
<path d="M379.56 372.352V375.264" stroke="#174153" stroke-miterlimit="10"/>
<path d="M376.408 372.352V375.144" stroke="#174153" stroke-miterlimit="10"/>
<path d="M368.648 372.232V375.752" stroke="#174153" stroke-miterlimit="10"/>
<path d="M327.056 372.6V374.176" stroke="#174153" stroke-miterlimit="10"/>
<path d="M328.272 376.232V373.448" stroke="#174153" stroke-miterlimit="10"/>
<path d="M336.88 372.232V375.752" stroke="#174153" stroke-miterlimit="10"/>
<path d="M352.032 372.6V375.024" stroke="#174153" stroke-miterlimit="10"/>
<path d="M381.984 381.392V379.216" stroke="#174153" stroke-miterlimit="10"/>
<path d="M383.888 376.688H317.072V381.56H383.888V376.688Z" fill="white" stroke="#174153" stroke-miterlimit="10"/>
<path d="M320.024 382V378.968" stroke="#174153" stroke-miterlimit="10"/>
<path d="M322.088 376.912V379.944" stroke="#174153" stroke-miterlimit="10"/>
<path d="M379.56 377.152V380.064" stroke="#174153" stroke-miterlimit="10"/>
<path d="M376.408 377.152V379.944" stroke="#174153" stroke-miterlimit="10"/>
<path d="M368.648 377.032V380.544" stroke="#174153" stroke-miterlimit="10"/>
<path d="M327.056 377.392V378.968" stroke="#174153" stroke-miterlimit="10"/>
<path d="M328.272 381.032V378.24" stroke="#174153" stroke-miterlimit="10"/>
<path d="M336.88 377.032V380.544" stroke="#174153" stroke-miterlimit="10"/>
<path d="M352.032 377.392V379.816" stroke="#174153" stroke-miterlimit="10"/>
<path d="M381.984 386.192V384.008" stroke="#174153" stroke-miterlimit="10"/>
<path d="M383.888 381.488H317.072V386.36H383.888V381.488Z" fill="white" stroke="#174153" stroke-miterlimit="10"/>
<path d="M320.024 386.8V383.768" stroke="#174153" stroke-miterlimit="10"/>
<path d="M322.088 381.704V384.736" stroke="#174153" stroke-miterlimit="10"/>
<path d="M379.56 381.952V384.856" stroke="#174153" stroke-miterlimit="10"/>
<path d="M376.408 381.952V384.736" stroke="#174153" stroke-miterlimit="10"/>
<path d="M368.648 381.832V385.344" stroke="#174153" stroke-miterlimit="10"/>
<path d="M327.056 382.192V383.768" stroke="#174153" stroke-miterlimit="10"/>
<path d="M328.272 385.832V383.04" stroke="#174153" stroke-miterlimit="10"/>
<path d="M336.88 381.832V385.344" stroke="#174153" stroke-miterlimit="10"/>
<path d="M352.032 382.192V384.616" stroke="#174153" stroke-miterlimit="10"/>
<path d="M177.768 246.136H151.536V313.992H177.768V246.136Z" fill="#174153" stroke="#174153" stroke-linecap="round" stroke-linejoin="round"/>
<path d="M239.04 256.864V256.064C239.04 253.429 237.993 250.901 236.13 249.038C234.266 247.175 231.739 246.128 229.104 246.128H151.504V246.224C153.895 246.533 156.092 247.702 157.683 249.513C159.275 251.324 160.152 253.653 160.152 256.064V273.344H160.328V374.544C160.328 376.112 160.637 377.666 161.237 379.115C161.837 380.564 162.717 381.88 163.826 382.99C164.935 384.099 166.252 384.978 167.701 385.579C169.15 386.179 170.703 386.488 172.272 386.488H239.024V256.888L239.04 256.864Z" fill="#DBDBDB" stroke="#174153" stroke-linecap="round" stroke-linejoin="round"/>
<path d="M186.496 368.744V376.56C186.494 378.787 185.743 380.949 184.365 382.699C182.987 384.448 181.061 385.684 178.896 386.208V386.496H213.176V368.744H186.496Z" fill="#174153" stroke="#174153" stroke-linecap="round" stroke-linejoin="round"/>
<path d="M191.84 359.28V376.56C191.837 378.969 190.96 381.295 189.37 383.105C187.781 384.915 185.588 386.086 183.2 386.4V386.488H252C253.305 386.488 254.597 386.231 255.802 385.732C257.008 385.232 258.103 384.5 259.026 383.578C259.948 382.655 260.68 381.56 261.18 380.354C261.679 379.149 261.936 377.857 261.936 376.552V359.28H191.84Z" fill="#DBDBDB" stroke="#174153" stroke-linecap="round" stroke-linejoin="round"/>
<path d="M175.624 259.648H227.328" stroke="#174153" stroke-miterlimit="10"/>
<path d="M175.624 269.072H227.328" stroke="#174153" stroke-miterlimit="10"/>
<path d="M175.624 277.072H227.328" stroke="#174153" stroke-miterlimit="10"/>
<path d="M175.624 332.776H227.328" stroke="#174153" stroke-miterlimit="10"/>
<path d="M175.624 346.496H227.328" stroke="#174153" stroke-miterlimit="10"/>
<path d="M175.624 285.36H206.48" stroke="#174153" stroke-miterlimit="10"/>
<path d="M175.624 292.784H206.48" stroke="#174153" stroke-miterlimit="10"/>
<path d="M175.624 300.208H206.48" stroke="#174153" stroke-miterlimit="10"/>
<path d="M175.624 307.64H206.48" stroke="#174153" stroke-miterlimit="10"/>
<path d="M175.624 315.064H206.48" stroke="#174153" stroke-miterlimit="10"/>
<path d="M175.624 322.496H206.48" stroke="#174153" stroke-miterlimit="10"/>
<path d="M102.936 374.712C102.936 374.712 106.488 379.6 108.04 380.264C109.592 380.928 112.48 381.376 113.368 383.376C113.861 384.347 114.165 385.403 114.264 386.488H92.2721C92.2721 386.488 91.3841 383.6 92.2721 381.824C92.8196 380.703 93.1945 379.505 93.3841 378.272L102.936 374.712Z" fill="white" stroke="#263238" stroke-linecap="round" stroke-linejoin="round"/>
<path d="M91.896 384.264H113.728C114.02 384.973 114.201 385.724 114.264 386.488H92.272C92.0669 385.763 91.9408 385.017 91.896 384.264Z" fill="white" stroke="#263238" stroke-linecap="round" stroke-linejoin="round"/>
<path d="M79.3921 379.6L78.9521 386.704H68.2881C68.0391 385.372 68.1159 384 68.5121 382.704C69.1761 380.704 69.8481 378.928 69.8481 378.928L79.3921 379.6Z" fill="white" stroke="#263238" stroke-linecap="round" stroke-linejoin="round"/>
<path d="M78.952 386.704H68.288C68.1247 385.825 68.1004 384.926 68.216 384.04H79.12L78.952 386.704Z" fill="white" stroke="#263238" stroke-linecap="round" stroke-linejoin="round"/>
<path d="M111.592 271.2C111.592 271.2 109.816 294.296 109.376 302.512C108.936 310.728 102.936 374.696 102.936 374.696C102.936 374.696 94.2721 380.032 93.1601 380.032C92.0481 380.032 90.7601 302.96 90.7601 302.96L79.3921 379.6C78.1695 379.992 76.8991 380.215 75.6161 380.264C73.8401 380.264 69.8481 378.936 69.8481 378.936L73.6001 286.544V271.2C73.6001 271.2 96.0001 274.312 102.024 273.424C105.278 272.992 108.482 272.248 111.592 271.2Z" fill="#174153" stroke="#174153" stroke-linecap="round" stroke-linejoin="round"/>
<path d="M84.5042 285.208L89.3842 288.984L90.7202 302.976" stroke="#808080" stroke-linecap="round" stroke-linejoin="round"/>
<path d="M82.4881 177.376C82.4881 177.376 91.5441 176.24 94.2081 179.336C96.8721 182.432 97.4081 188.432 99.2561 189.872C101.104 191.312 102.136 189.52 102.96 191.392C103.784 193.264 102.44 195.576 102.44 195.576C102.44 195.576 102.664 204.592 101.64 205.024C100.616 205.456 96.0401 205.464 96.0401 205.464L96.7841 209.168L85.3281 209.648L84.3281 205.776C84.3281 205.776 75.6161 200.72 73.2641 196.888C70.9121 193.056 71.4721 184.568 73.8241 181.6C76.1761 178.632 82.4881 177.376 82.4881 177.376Z" fill="white" stroke="#263238" stroke-linecap="round" stroke-linejoin="round"/>
<path d="M102.44 195.576C102.44 195.576 97.128 193.904 96.84 194.696C96.552 195.488 97.472 205.6 97.472 205.6C97.472 205.6 101.224 206.032 101.64 205.024C102.056 204.016 102.856 202.776 102.44 195.576ZM101.32 204.064C101.016 204.864 98.328 204.528 98.328 204.528C98.328 204.528 97.648 196.384 97.872 195.728C98.096 195.072 101.872 196.44 101.872 196.44C102.2 202.256 101.6 203.256 101.32 204.064Z" fill="#263238"/>
<path d="M96.52 189.432C96.8 190.112 97.248 190.568 97.52 190.456C97.792 190.344 97.784 189.704 97.52 189.024C97.256 188.344 96.792 187.888 96.52 188C96.248 188.112 96.24 188.752 96.52 189.432Z" fill="#263238"/>
<path d="M101.528 197.032C101.051 197.274 100.5 197.326 99.9864 197.177C99.4727 197.029 99.0344 196.691 98.76 196.232" stroke="#263238" stroke-linecap="round" stroke-linejoin="round"/>
<path d="M96.4239 186.28C96.4239 186.28 95.2639 185.648 95.1279 187.576" stroke="#263238" stroke-linecap="round" stroke-linejoin="round"/>
<path d="M73.8239 181.6C76.1759 178.64 82.4879 177.376 82.4879 177.376C82.4879 177.376 91.5439 176.24 94.2079 179.336C94.2079 179.336 89.1999 178.072 89.8479 180.208C90.4959 182.344 95.6879 185.608 93.9039 186.872C92.1199 188.136 90.1119 187.176 90.9439 189.048C91.7759 190.92 92.8159 192.752 91.9439 192.92C91.0719 193.088 88.6319 191.096 87.5919 191.528C86.5519 191.96 85.3679 195.144 86.3679 196.76C87.0404 197.75 88.0745 198.437 89.2479 198.672C89.2479 198.672 87.4639 203.336 85.8959 204.552C85.2165 205.09 84.3599 205.352 83.4959 205.288C81.2799 203.936 75.1519 200.008 73.2399 196.888C70.9119 193.056 71.4719 184.568 73.8239 181.6Z" fill="#263238" stroke="#263238" stroke-linecap="round" stroke-linejoin="round"/>
<path d="M73.256 215.704C73.256 215.704 66.8 219.928 65.064 223.152C63.328 226.376 59.1041 256.656 58.6081 259.888C58.1121 263.12 65.688 285.832 65.688 285.832C65.688 285.832 65.064 291.032 65.688 293.832C66.312 296.632 68.1601 298.264 69.0961 298.424C70.0321 298.584 70.824 295.76 70.824 295.76C71.448 296.384 72.232 295.6 72.232 294.824C72.232 294.048 72.704 288.424 72.544 287.624C72.384 286.824 71.688 284.24 71.688 284.24L73.288 264.336L73.256 215.704Z" fill="white" stroke="#263238" stroke-linecap="round" stroke-linejoin="round"/>
<path d="M59.2 257.072C61.8143 258.136 64.5953 258.732 67.4159 258.832C71.5279 258.832 72.696 258.248 72.696 258.248L72.896 252.968C72.896 252.968 63.504 252.968 62.496 252.576C61.488 252.184 59.752 251.6 59.752 251.6L59.2 257.072Z" fill="#B9FA02" stroke="#263238" stroke-linecap="round" stroke-linejoin="round"/>
<path d="M65.0641 223.152C63.7281 225.624 60.9441 243.952 59.4641 253.88C63.9033 255.315 68.5822 255.859 73.2321 255.48V215.704C73.2321 215.704 66.8001 219.928 65.0641 223.152Z" fill="#B9FA02" stroke="#263238" stroke-linecap="round" stroke-linejoin="round"/>
<path d="M69.264 242.48L63.656 239.024" stroke="#263238" stroke-linecap="round" stroke-linejoin="round"/>
<path d="M65.8 244.464L69.7521 243.968" stroke="#263238" stroke-linecap="round" stroke-linejoin="round"/>
<path d="M70.504 288.264C70.3351 289.033 69.9556 289.739 69.408 290.304L68.608 290.928L68.144 293.752C68.144 293.752 68.456 295.472 68.608 296.408" stroke="#263238" stroke-linecap="round" stroke-linejoin="round"/>
<path d="M70.8241 295.784L70.6641 291.712" stroke="#263238" stroke-linecap="round" stroke-linejoin="round"/>
<path d="M70.3521 251.928C70.0481 240.952 67.6401 231.728 67.4561 229.928C67.2481 227.808 66.7041 222.416 70.7041 217.72C72.7386 215.738 75.0642 214.079 77.6001 212.8C79.0161 212.376 80.1041 212.176 80.1041 212.176L79.3921 211.952C80.6313 211.42 81.9064 210.977 83.2081 210.624C86.5441 209.736 95.4241 209.288 98.0881 211.736C98.0881 211.736 105.784 214.136 109.568 216.888C111.474 219.268 112.666 222.139 113.008 225.168C113.408 229.576 114.192 250.888 114.48 258.936C114.544 260.76 114.688 262.56 114.912 264.368C115.416 268.368 116.064 282.096 116.064 282.096C116.064 282.096 107.64 285.008 94.0881 284.568C80.5361 284.128 72.2721 280.648 72.2721 280.648L70.2801 279.592C70.2801 279.592 70.2801 266.576 70.2801 264.392C70.3041 260.128 70.4001 252 70.3521 251.928Z" fill="#B9FA02" stroke="#263238" stroke-linecap="round" stroke-linejoin="round"/>
<path d="M94.4001 243.448C94.9969 244.54 95.7017 245.569 96.5041 246.52Z" fill="#B9FA02"/>
<path d="M94.4001 243.448C94.9969 244.54 95.7017 245.569 96.5041 246.52" stroke="#263238" stroke-linecap="round" stroke-linejoin="round"/>
<path d="M88.208 226.048C89.4166 231.263 91.1148 236.352 93.28 241.248Z" fill="#B9FA02"/>
<path d="M88.208 226.048C89.4166 231.263 91.1148 236.352 93.28 241.248" stroke="#263238" stroke-linecap="round" stroke-linejoin="round"/>
<path d="M88.7122 235.552C89.2482 236.576 89.7442 237.504 90.1362 238.216Z" fill="#B9FA02"/>
<path d="M88.7122 235.552C89.2482 236.576 89.7442 237.504 90.1362 238.216" stroke="#263238" stroke-linecap="round" stroke-linejoin="round"/>
<path d="M83.9521 226.24C83.9521 226.24 85.6481 229.632 87.3841 233.008Z" fill="#B9FA02"/>
<path d="M83.9521 226.24C83.9521 226.24 85.6481 229.632 87.3841 233.008" stroke="#263238" stroke-linecap="round" stroke-linejoin="round"/>
<path d="M103.448 213.648C103.448 213.648 100.2 209 99.5361 208.56C98.8721 208.12 85.4001 206.688 82.5121 207.576C79.6241 208.464 77.6001 212.8 77.6001 212.8C77.6001 212.8 91.8961 211.864 103.448 213.648Z" fill="white" stroke="#263238" stroke-linecap="round" stroke-linejoin="round"/>
<path d="M106.296 237.48L119.2 248.896C119.2 248.896 126.144 253.856 128.88 252.896C131.28 252.016 152.768 233.048 157.76 228.624L159.704 227.52C159.704 227.52 162.48 227.52 163.288 227.008C164.096 226.496 165.304 225.528 165.304 225.528H165.976C166.648 225.528 167.056 224.584 167.328 223.64C167.6 222.696 168.4 220.008 168.128 219.336C167.856 218.664 164.352 216.368 164.352 216.368C164.352 216.368 165.296 215.024 165.704 214.488C166.112 213.952 167.448 212.464 167.304 211.12C167.16 209.776 165.704 209.096 164.472 210.584C163.24 212.072 157.2 216.64 156.392 218.256C155.824 219.384 155 221.208 154.544 222.2L130.096 235.744C130.096 235.744 115.944 219.12 114.456 218.144C112.968 217.168 101.912 213.824 101.912 213.824" fill="white"/>
<path d="M106.296 237.48L119.2 248.896C119.2 248.896 126.144 253.856 128.88 252.896C131.28 252.016 152.768 233.048 157.76 228.624L159.704 227.52C159.704 227.52 162.48 227.52 163.288 227.008C164.096 226.496 165.304 225.528 165.304 225.528H165.976C166.648 225.528 167.056 224.584 167.328 223.64C167.6 222.696 168.4 220.008 168.128 219.336C167.856 218.664 164.352 216.368 164.352 216.368C164.352 216.368 165.296 215.024 165.704 214.488C166.112 213.952 167.448 212.464 167.304 211.12C167.16 209.776 165.704 209.096 164.472 210.584C163.24 212.072 157.2 216.64 156.392 218.256C155.824 219.384 155 221.208 154.544 222.2L130.096 235.744C130.096 235.744 115.944 219.12 114.456 218.144C112.968 217.168 101.912 213.824 101.912 213.824" stroke="#263238" stroke-linecap="round" stroke-linejoin="round"/>
<path d="M106.296 237.48L119.2 248.896C119.2 248.896 126.144 253.856 128.88 252.896C129.84 252.544 133.864 249.296 138.656 245.24C138.597 243.052 138.172 240.889 137.4 238.84C136.741 236.839 135.595 235.032 134.064 233.584L130.12 235.768C130.12 235.768 115.968 219.144 114.48 218.168C112.992 217.192 101.936 213.848 101.936 213.848" fill="#B9FA02"/>
<path d="M106.296 237.48L119.2 248.896C119.2 248.896 126.144 253.856 128.88 252.896C129.84 252.544 133.864 249.296 138.656 245.24C138.597 243.052 138.172 240.889 137.4 238.84C136.741 236.839 135.595 235.032 134.064 233.584L130.12 235.768C130.12 235.768 115.968 219.144 114.48 218.168C112.992 217.192 101.936 213.848 101.936 213.848" stroke="#263238" stroke-linecap="round" stroke-linejoin="round"/>
<path d="M131.664 234.08C131.664 234.08 132.4 233.088 134.528 235.736C136.656 238.384 137.728 244.584 137.728 245.464C137.728 246.344 139.144 245.992 140.024 244.936C140.904 243.88 143.736 243.52 144.096 240.688C144.456 237.856 143.208 233.968 141.616 231.496C140.024 229.024 140.2 229.016 138.608 229.368C137.016 229.72 132.168 232.8 131.664 234.08Z" fill="#B9FA02" stroke="#263238" stroke-linecap="round" stroke-linejoin="round"/>
<path d="M130.128 235.736C130.128 235.736 131.768 238.032 131.112 242.48Z" fill="#B9FA02"/>
<path d="M130.128 235.736C130.128 235.736 131.768 238.032 131.112 242.48" stroke="#263238" stroke-linecap="round" stroke-linejoin="round"/>
<path d="M132.8 240.176C132.8 240.176 133.456 241.824 132.136 245.456Z" fill="#B9FA02"/>
<path d="M132.8 240.176C132.8 240.176 133.456 241.824 132.136 245.456" stroke="#263238" stroke-linecap="round" stroke-linejoin="round"/>
<path d="M164.8 225.344C165.148 224.535 165.33 223.665 165.336 222.784Z" fill="white"/>
<path d="M164.8 225.344C165.148 224.535 165.33 223.665 165.336 222.784" stroke="#263238" stroke-linecap="round" stroke-linejoin="round"/>
<path d="M16.6321 386.704H386.104" stroke="#263238" stroke-miterlimit="10"/>
</g>
<defs>
<clipPath id="clip0_128_2">
<rect width="400" height="400" fill="white"/>
</clipPath>
</defs>
</svg>
