<svg width="64" height="23" viewBox="0 0 64 23" fill="none" xmlns="http://www.w3.org/2000/svg">
<path d="M4.93428 3.76492C3.69921 4.28514 2.34146 5.75481 1.91264 7.59956C1.36957 9.93694 3.62954 10.9253 3.8149 10.6013C4.03307 10.2204 3.40994 10.0917 3.28167 8.87894C3.1159 7.31258 3.83957 5.56236 4.75034 4.79441C4.91963 4.65174 4.91158 4.85032 4.91158 5.21763C4.91158 5.87448 4.87551 11.7711 4.87551 13.0017C4.87551 14.6669 4.80716 15.1927 4.6844 15.7123C4.56002 16.2389 4.36006 16.5946 4.51158 16.7317C4.68087 16.885 5.40366 16.5203 5.8221 15.9327C6.32387 15.2279 6.49951 14.3814 6.53105 13.4622C6.56913 12.3542 6.56751 10.5959 6.56913 9.59295C6.57066 8.67313 6.58453 5.97969 6.55311 4.36049C6.54541 3.96333 5.45079 3.54665 4.93422 3.76444M48.7915 11.5579C48.7517 12.4236 48.5613 13.1002 48.3249 13.5775C47.8674 14.5015 46.9179 14.7884 46.5148 13.4601C46.2951 12.7361 46.2848 11.5269 46.4428 10.5165C46.6036 9.4872 47.0525 8.70985 47.7959 8.77996C48.5291 8.84926 48.8723 9.79999 48.7915 11.5579ZM36.4307 16.9288C36.4208 18.3672 36.1958 19.6284 35.7134 19.9947C35.0291 20.5141 34.1094 20.1245 34.2999 19.0749C34.4684 18.1461 35.2653 17.1975 36.4327 16.0385C36.4327 16.0385 36.4351 16.3028 36.4307 16.9288ZM36.2439 11.5495C36.202 12.338 35.9989 13.13 35.7773 13.5776C35.3198 14.5016 34.3634 14.7904 33.9671 13.4602C33.6961 12.5514 33.761 11.3751 33.8951 10.6339C34.0691 9.67229 34.4908 8.78017 35.2482 8.78017C35.9846 8.78017 36.3477 9.59302 36.2439 11.5495ZM29.0832 11.5374C29.0383 12.3725 28.8764 13.0706 28.6166 13.5776C28.1466 14.4952 27.2166 14.7862 26.8065 13.4602C26.5108 12.5041 26.6115 11.2003 26.7345 10.496C26.917 9.45092 27.374 8.70995 28.0876 8.78017C28.8205 8.85222 29.1768 9.79999 29.0832 11.5374ZM61.8988 12.5128C61.7196 12.5128 61.6378 12.6987 61.5702 13.0115C61.3356 14.0991 61.089 14.3447 60.7709 14.3447C60.4157 14.3447 60.0964 13.8061 60.0144 12.7281C59.9499 11.8803 59.9602 10.3197 60.0427 8.76719C60.0596 8.44822 59.9721 8.13262 59.1219 7.82182C58.756 7.68814 58.2242 7.4913 57.9595 8.13446C57.2113 9.95152 56.9186 11.3941 56.8497 11.9801C56.8461 12.0105 56.8092 12.0167 56.8027 11.9458C56.7588 11.4764 56.6607 10.6235 56.6485 8.83149C56.6462 8.48185 56.5725 8.18424 56.189 7.94058C55.9402 7.78248 55.1845 7.50285 54.9124 7.83552C54.6767 8.10758 54.4037 8.83976 54.12 9.70766C53.8894 10.4131 53.7289 10.8903 53.7289 10.8903C53.7289 10.8903 53.7319 8.98694 53.7346 8.26497C53.7359 7.99261 53.5502 7.90185 53.4942 7.8854C53.2422 7.8118 52.7458 7.68886 52.535 7.68886C52.275 7.68886 52.2113 7.83511 52.2113 8.04821C52.2113 8.0761 52.1703 10.5541 52.1703 12.2868C52.1703 12.3621 52.1703 12.4442 52.1711 12.5315C52.0272 13.3278 51.5608 14.4089 51.0536 14.4089C50.5458 14.4089 50.3062 13.957 50.3062 11.8913C50.3062 10.6862 50.3421 10.1622 50.3598 9.29062C50.3701 8.7886 50.3899 8.40309 50.3887 8.3156C50.385 8.04732 49.924 7.91211 49.7095 7.86214C49.4939 7.81174 49.3066 7.79222 49.1604 7.8006C48.9534 7.81236 48.8069 7.94901 48.8069 8.13695C48.8069 8.23773 48.8081 8.42935 48.8081 8.42935C48.5415 8.00777 48.1126 7.71435 47.8273 7.62931C47.0589 7.39967 46.257 7.60315 45.6522 8.45481C45.1714 9.13149 44.8817 9.8979 44.7676 10.999C44.6842 11.804 44.7114 12.6204 44.8596 13.3108C44.6806 14.0898 44.3481 14.4089 43.9841 14.4089C43.4557 14.4089 43.0725 13.541 43.117 12.0399C43.1464 11.0525 43.3427 10.3597 43.5573 9.35725C43.6488 8.92994 43.5745 8.70622 43.388 8.4918C43.217 8.29516 42.8526 8.1947 42.3287 8.31826C41.9555 8.40636 41.422 8.5011 40.9338 8.57387C40.9338 8.57387 40.9633 8.45562 40.9875 8.24713C41.1144 7.15377 39.9337 7.24248 39.557 7.5917C39.3321 7.8002 39.1791 8.0461 39.121 8.48823C39.0288 9.18985 39.5975 9.52078 39.5975 9.52078C39.4109 10.3802 38.9536 11.5029 38.4814 12.3146C38.2285 12.7495 38.035 13.0717 37.7852 13.4143C37.7843 13.2867 37.7836 13.1592 37.7832 13.0322C37.7775 11.2254 37.8014 9.80334 37.8119 9.29079C37.8222 8.78878 37.8422 8.41348 37.8411 8.326C37.8382 8.12977 37.7244 8.05567 37.4875 7.96185C37.2781 7.87886 37.0305 7.82143 36.7736 7.80139C36.4494 7.77595 36.2541 7.94898 36.2591 8.15358C36.2601 8.19222 36.2601 8.42943 36.2601 8.42943C35.9935 8.00784 35.5647 7.71442 35.2794 7.62938C34.5109 7.39984 33.7091 7.60332 33.1042 8.45488C32.6236 9.13156 32.3088 10.0811 32.2197 10.9907C32.1366 11.8385 32.1519 12.5589 32.2652 13.1658C32.143 13.7735 31.7917 14.409 31.3944 14.409C30.8866 14.409 30.5976 13.957 30.5976 11.8913C30.5976 10.6863 30.6336 10.1623 30.6513 9.29079C30.6615 8.78878 30.6813 8.40316 30.6802 8.31578C30.6765 8.0475 30.2154 7.91228 30.0009 7.8622C29.7765 7.80998 29.5827 7.79077 29.4339 7.8018C29.2375 7.81652 29.0995 7.99343 29.0995 8.12538V8.42943C28.8329 8.00784 28.4041 7.71442 28.1188 7.62938C27.3503 7.39984 26.5529 7.6066 25.9436 8.45488C25.5463 9.008 25.2246 9.62121 25.059 10.9787C25.0112 11.3709 24.9901 11.7383 24.9928 12.0816C24.8344 13.0567 24.1346 14.1805 23.5621 14.1805C23.2272 14.1805 22.9081 13.5267 22.9081 12.1334C22.9081 10.2774 23.0223 7.6348 23.0416 7.38012C23.0416 7.38012 23.7649 7.36775 23.9049 7.36611C24.2657 7.36212 24.5924 7.37071 25.073 7.34598C25.314 7.33361 25.5462 6.46325 25.2974 6.35554C25.1847 6.30678 24.3879 6.26407 24.072 6.25732C23.8064 6.25126 23.067 6.1962 23.067 6.1962C23.067 6.1962 23.1333 4.4422 23.1488 4.25691C23.1619 4.10248 22.9633 4.02297 22.8494 3.97472C22.5726 3.85689 22.3248 3.80047 22.0312 3.73955C21.6255 3.65534 21.4415 3.73772 21.4055 4.08224C21.3514 4.60511 21.3234 6.13661 21.3234 6.13661C21.0257 6.13661 20.0088 6.07806 19.711 6.07806C19.4343 6.07806 19.1357 7.27536 19.5182 7.29007C19.9583 7.30725 20.7252 7.32207 21.2337 7.3375C21.2337 7.3375 21.211 10.0236 21.211 10.8529C21.211 10.9411 21.2118 11.026 21.212 11.1085C20.9321 12.5761 19.9465 13.3689 19.9465 13.3689C20.1582 12.398 19.7258 11.6689 18.947 11.0517C18.6601 10.8242 18.0936 10.3936 17.4598 9.92181C17.4598 9.92181 17.8269 9.55776 18.1524 8.82538C18.3831 8.3066 18.3931 7.7129 17.8269 7.58199C16.8915 7.36552 16.1202 8.05682 15.8901 8.79482C15.7119 9.36654 15.8069 9.79079 16.1561 10.2315C16.1816 10.2637 16.2092 10.2966 16.2378 10.3297C16.0266 10.7392 15.7365 11.2906 15.4908 11.7182C14.8089 12.9054 14.2938 13.8444 13.9045 13.8444C13.5933 13.8444 13.5974 12.8911 13.5974 11.9985C13.5974 11.229 13.6539 10.072 13.699 8.87424C13.7139 8.4781 13.5171 8.25243 13.1871 8.04803C12.9866 7.92385 12.5587 7.67969 12.3109 7.67969C11.9399 7.67969 10.8697 7.73048 9.85851 10.6738C9.73108 11.0448 9.48072 11.7208 9.48072 11.7208L9.50227 8.1813C9.50227 8.09831 9.45835 8.01808 9.35777 7.9632C9.18737 7.87009 8.73226 7.67969 8.32757 7.67969C8.13476 7.67969 8.03854 7.76994 8.03854 7.94981L8.00324 13.4874C8.00324 13.9081 8.01414 14.3989 8.05548 14.6136C8.09667 14.8286 8.1634 15.0034 8.24604 15.1075C8.32856 15.2113 8.42402 15.2905 8.58141 15.3232C8.72789 15.3536 9.53 15.4572 9.57169 15.1488C9.62164 14.7791 9.62356 14.3793 10.0447 12.8881C10.7004 10.5666 11.5554 9.43389 11.9573 9.03162C12.0275 8.96131 12.1078 8.95712 12.1039 9.0722C12.0867 9.58117 12.0264 10.853 11.9858 11.9335C11.8769 14.825 12.3997 15.3609 13.1467 15.3609C13.7182 15.3609 14.5239 14.7895 15.3875 13.343C15.9259 12.4416 16.4487 11.5578 16.8243 10.9207C17.086 11.1646 17.3798 11.427 17.6733 11.7073C18.3554 12.3588 18.5794 12.9778 18.4308 13.565C18.3171 14.014 17.8891 14.4766 17.1274 14.0269C16.9053 13.8957 16.8106 13.7944 16.5873 13.6465C16.4674 13.567 16.2842 13.5433 16.1745 13.6265C15.8892 13.8429 15.7261 14.1181 15.633 14.4589C15.5424 14.7904 15.8724 14.9657 16.2145 15.119C16.509 15.2509 17.1421 15.3705 17.5458 15.3841C19.1189 15.4371 20.3791 14.6198 21.2563 12.5118C21.4133 14.3324 22.0816 15.3626 23.2428 15.3626C24.019 15.3626 24.7973 14.3529 25.1377 13.3596C25.2354 13.7645 25.38 14.1166 25.5668 14.4143C26.4615 15.8408 28.1972 15.5337 29.0691 14.3225C29.3387 13.9482 29.3797 13.8137 29.3797 13.8137C29.5068 14.9574 30.4222 15.357 30.9463 15.357C31.5332 15.357 32.1393 15.0778 32.564 14.1156C32.6138 14.22 32.6681 14.3197 32.7275 14.4143C33.6222 15.8407 35.3579 15.5337 36.2297 14.3224C36.2708 14.2656 36.3065 14.2141 36.3377 14.1678L36.3633 14.9191C36.3633 14.9191 35.8659 15.3782 35.5606 15.6598C34.2168 16.9004 33.1951 17.8416 33.1199 18.9376C33.0234 20.3351 34.1498 20.8545 35.002 20.9226C35.9069 20.9948 36.6819 20.4918 37.1582 19.7878C37.5772 19.1682 37.8515 17.8345 37.8313 16.5173C37.8233 15.9899 37.8101 15.3192 37.7998 14.6003C38.272 14.0484 38.8042 13.3509 39.2941 12.5344C39.8281 11.6446 40.4003 10.4497 40.6933 9.51972C40.6933 9.51972 41.1905 9.52401 41.7211 9.48906C41.8908 9.47792 41.9396 9.51276 41.9082 9.63797C41.8703 9.78922 41.2378 12.2439 41.815 13.8792C42.2101 14.9986 43.1008 15.3587 43.6288 15.3587C44.247 15.3587 44.8383 14.889 45.1552 14.1915C45.1934 14.2693 45.2333 14.3445 45.2769 14.414C46.1716 15.8404 47.9012 15.5316 48.7791 14.3221C48.9773 14.0493 49.0897 13.8133 49.0897 13.8133C49.2781 14.9971 50.1929 15.3627 50.7169 15.3627C51.2628 15.3627 51.7808 15.1376 52.201 14.1369C52.2186 14.5775 52.2462 14.9378 52.2899 15.0514C52.3165 15.1208 52.4716 15.208 52.5845 15.2501C53.0838 15.4364 53.593 15.3483 53.7814 15.31C53.9119 15.2834 54.0137 15.1781 54.0276 14.906C54.0642 14.1916 54.0418 12.9913 54.257 12.0993C54.6183 10.6022 54.9553 10.0215 55.1151 9.73404C55.2046 9.57296 55.3056 9.54639 55.3092 9.71686C55.3168 10.0618 55.3338 11.0747 55.4738 12.4357C55.5765 13.4366 55.7139 14.0282 55.8194 14.2154C56.1205 14.7509 56.4925 14.7762 56.7954 14.7762C56.988 14.7762 57.3909 14.7226 57.3549 14.3819C57.3373 14.2158 57.3681 13.1894 57.7243 11.7145C57.9569 10.7514 58.3447 9.88109 58.4845 9.56294C58.5361 9.44561 58.5601 9.5381 58.5593 9.55612C58.5298 10.2194 58.4637 12.389 58.7323 13.5755C59.0963 15.183 60.1493 15.3629 60.5163 15.3629C61.2997 15.3629 61.9404 14.7632 62.1562 13.1854C62.2082 12.8057 62.1312 12.5125 61.9006 12.5125" fill="#262626"/>
</svg>
