<svg width="195" height="158" viewBox="0 0 195 158" fill="none" xmlns="http://www.w3.org/2000/svg">
<path d="M166.057 62.6357C152.721 74.3501 143.965 90.7607 136.244 106.744C125.932 128.091 104.076 142.817 78.7801 142.817C43.5553 142.817 15 114.261 15 79.0365C15 43.8117 43.5553 15.2564 78.7801 15.2564C171.77 12.4507 199.841 32.96 166.057 62.6357Z" fill="url(#paint0_linear_116_12)" stroke="#8EE930" stroke-width="15"/>
<path d="M91.5875 66.6901C89.6132 64.7106 86.9352 63.5983 84.1426 63.5983C81.35 63.5983 78.6721 64.7106 76.6978 66.6901C74.7236 68.6696 73.6147 71.3541 73.6147 74.1529C73.6147 76.9517 74.7236 79.6362 76.6978 81.6157C78.6721 83.5952 81.35 84.7075 84.1426 84.7075C86.9352 84.7075 89.6132 83.5952 91.5875 81.6157C93.5617 79.6362 94.6706 76.9517 94.6706 74.1529C94.6706 71.3541 93.5617 68.6696 91.5875 66.6901ZM119.74 70.3436C113.099 57.3893 99.6607 48.5164 84.1426 48.5164C68.6246 48.5164 55.186 57.3893 48.5456 70.3436C47.3198 72.7348 47.3198 75.571 48.5456 77.9622C55.186 90.9165 68.6246 99.7894 84.1426 99.7894C99.6607 99.7894 113.099 90.9165 119.74 77.9622C120.965 75.571 120.965 72.7348 119.74 70.3436ZM67.0343 87.1795C63.2656 84.8226 60.0366 81.7219 57.5333 78.0838C55.9035 75.7152 55.9035 72.5906 57.5333 70.222C60.0366 66.5839 63.2656 63.4832 67.0343 61.1262C72.1666 57.9165 78.094 56.215 84.1426 56.215C90.1913 56.215 96.1186 57.9165 101.251 61.1262C105.02 63.4832 108.249 66.5839 110.752 70.222C112.382 72.5906 112.382 75.7152 110.752 78.0838C108.249 81.7219 105.02 84.8226 101.251 87.1795C96.1186 90.3893 90.1913 92.0908 84.1426 92.0908C78.094 92.0908 72.1666 90.3893 67.0343 87.1795Z" fill="#8EE930" stroke="#8EE930"/>
<defs>
<linearGradient id="paint0_linear_116_12" x1="78.7801" y1="15.2568" x2="78.7801" y2="142.817" gradientUnits="userSpaceOnUse">
<stop stop-color="#164758"/>
<stop offset="1" stop-color="#143746"/>
</linearGradient>
</defs>
</svg>
