<svg width="563" height="158" viewBox="0 0 563 158" fill="none" xmlns="http://www.w3.org/2000/svg">
<path d="M166.057 62.6357C152.721 74.3501 143.965 90.7607 136.244 106.744C125.932 128.091 104.076 142.817 78.7801 142.817C43.5553 142.817 15 114.261 15 79.0365C15 43.8117 43.5553 15.2564 78.7801 15.2564C171.77 12.4507 199.841 32.96 166.057 62.6357Z" fill="url(#paint0_linear_116_11)" stroke="#B9FA02" stroke-width="15"/>
<path d="M91.5875 66.6901C89.6132 64.7106 86.9352 63.5983 84.1426 63.5983C81.35 63.5983 78.6721 64.7106 76.6978 66.6901C74.7236 68.6696 73.6147 71.3541 73.6147 74.1529C73.6147 76.9517 74.7236 79.6362 76.6978 81.6157C78.6721 83.5952 81.35 84.7075 84.1426 84.7075C86.9352 84.7075 89.6132 83.5952 91.5875 81.6157C93.5617 79.6362 94.6706 76.9517 94.6706 74.1529C94.6706 71.3541 93.5617 68.6696 91.5875 66.6901ZM119.74 70.3436C113.099 57.3893 99.6607 48.5164 84.1426 48.5164C68.6246 48.5164 55.186 57.3893 48.5456 70.3436C47.3198 72.7348 47.3198 75.571 48.5456 77.9622C55.186 90.9165 68.6246 99.7894 84.1426 99.7894C99.6607 99.7894 113.099 90.9165 119.74 77.9622C120.965 75.571 120.965 72.7348 119.74 70.3436ZM67.0343 87.1795C63.2656 84.8226 60.0366 81.7219 57.5333 78.0838C55.9035 75.7152 55.9035 72.5906 57.5333 70.222C60.0366 66.5839 63.2656 63.4832 67.0343 61.1262C72.1666 57.9165 78.094 56.215 84.1426 56.215C90.1913 56.215 96.1186 57.9165 101.251 61.1262C105.02 63.4832 108.249 66.5839 110.752 70.222C112.382 72.5906 112.382 75.7152 110.752 78.0838C108.249 81.7219 105.02 84.8226 101.251 87.1795C96.1186 90.3893 90.1913 92.0908 84.1426 92.0908C78.094 92.0908 72.1666 90.3893 67.0343 87.1795Z" fill="#B9FA02" stroke="#B9FA02"/>
<path d="M215.32 112V53.68H230.08C235.168 53.68 239.128 54.328 241.96 55.624C244.792 56.872 246.784 58.864 247.936 61.6C249.088 64.288 249.664 67.792 249.664 72.112V93.28C249.664 97.648 249.088 101.224 247.936 104.008C246.784 106.744 244.792 108.76 241.96 110.056C239.176 111.352 235.264 112 230.224 112H215.32ZM228.208 103.072H230.224C232.192 103.072 233.608 102.784 234.472 102.208C235.336 101.632 235.864 100.768 236.056 99.616C236.296 98.464 236.416 97.024 236.416 95.296V69.88C236.416 68.152 236.272 66.76 235.984 65.704C235.744 64.648 235.192 63.88 234.328 63.4C233.464 62.92 232.072 62.68 230.152 62.68H228.208V103.072ZM265.428 112.72C263.316 112.72 261.54 112.216 260.1 111.208C258.66 110.2 257.58 108.928 256.86 107.392C256.14 105.808 255.78 104.2 255.78 102.568C255.78 99.976 256.284 97.792 257.292 96.016C258.348 94.24 259.716 92.752 261.396 91.552C263.076 90.352 264.924 89.344 266.94 88.528C268.956 87.664 270.948 86.896 272.916 86.224V82.048C272.916 81.328 272.844 80.704 272.7 80.176C272.556 79.6 272.316 79.168 271.98 78.88C271.644 78.544 271.14 78.376 270.468 78.376C269.796 78.376 269.268 78.52 268.884 78.808C268.548 79.096 268.308 79.504 268.164 80.032C268.02 80.512 267.924 81.064 267.876 81.688L267.588 84.712L256.644 84.28C256.884 79.288 258.204 75.616 260.604 73.264C263.052 70.864 266.7 69.664 271.548 69.664C275.772 69.664 278.916 70.84 280.98 73.192C283.092 75.496 284.148 78.496 284.148 82.192V101.632C284.148 103.36 284.172 104.872 284.22 106.168C284.316 107.464 284.412 108.592 284.508 109.552C284.652 110.512 284.772 111.328 284.868 112H274.355C274.212 110.896 274.044 109.696 273.852 108.4C273.66 107.104 273.516 106.336 273.42 106.096C272.94 107.824 272.028 109.36 270.684 110.704C269.388 112.048 267.636 112.72 265.428 112.72ZM269.604 104.8C270.084 104.8 270.516 104.704 270.9 104.512C271.332 104.32 271.716 104.056 272.052 103.72C272.388 103.384 272.676 103.048 272.916 102.712V91.336C271.956 91.912 271.068 92.512 270.252 93.136C269.436 93.712 268.74 94.36 268.164 95.08C267.588 95.8 267.132 96.592 266.796 97.456C266.508 98.272 266.364 99.208 266.364 100.264C266.364 101.656 266.652 102.76 267.228 103.576C267.804 104.392 268.596 104.8 269.604 104.8ZM291.102 112V70.384H302.838V74.56C304.374 73.024 305.958 71.824 307.59 70.96C309.27 70.096 311.022 69.664 312.846 69.664C314.574 69.664 315.99 70.096 317.094 70.96C318.246 71.776 319.11 72.928 319.686 74.416C320.262 75.856 320.55 77.512 320.55 79.384V112H308.886V81.04C308.886 80.032 308.718 79.264 308.382 78.736C308.046 78.208 307.422 77.944 306.51 77.944C306.03 77.944 305.454 78.088 304.782 78.376C304.158 78.616 303.51 78.976 302.838 79.456V112H291.102ZM341.13 126.4C338.01 126.4 335.298 126.088 332.994 125.464C330.69 124.84 328.89 123.904 327.594 122.656C326.346 121.408 325.722 119.824 325.722 117.904C325.722 116.608 325.986 115.432 326.514 114.376C327.09 113.368 327.858 112.48 328.818 111.712C329.826 110.896 330.954 110.2 332.202 109.624C330.378 109.096 328.962 108.304 327.954 107.248C326.946 106.192 326.442 104.776 326.442 103C326.442 101.32 326.85 99.88 327.666 98.68C328.482 97.432 329.61 96.184 331.05 94.936C329.706 93.736 328.674 92.272 327.954 90.544C327.282 88.768 326.946 86.632 326.946 84.136C326.946 81.016 327.522 78.376 328.674 76.216C329.826 74.056 331.506 72.424 333.714 71.32C335.97 70.216 338.682 69.664 341.85 69.664C344.01 69.664 345.906 69.928 347.538 70.456C349.17 70.984 350.562 71.8 351.714 72.904C352.242 72.088 352.938 71.296 353.802 70.528C354.666 69.76 355.65 69.112 356.754 68.584L358.266 67.864L361.002 73.48C360.57 73.624 359.97 73.864 359.202 74.2C358.434 74.536 357.618 74.896 356.754 75.28C355.938 75.664 355.194 76.048 354.522 76.432C355.05 77.488 355.458 78.688 355.746 80.032C356.034 81.376 356.178 82.768 356.178 84.208C356.178 87.184 355.626 89.752 354.522 91.912C353.466 94.072 351.882 95.728 349.77 96.88C347.658 97.984 345.018 98.536 341.85 98.536C340.506 98.536 339.234 98.44 338.034 98.248C336.834 98.008 335.73 97.72 334.722 97.384C334.434 97.768 334.17 98.176 333.93 98.608C333.738 98.992 333.642 99.424 333.642 99.904C333.642 100.48 333.93 100.936 334.506 101.272C335.082 101.608 336.114 101.872 337.602 102.064L348.546 103.288C352.098 103.672 354.714 104.824 356.394 106.744C358.074 108.616 358.914 111.088 358.914 114.16C358.914 116.8 358.314 119.032 357.114 120.856C355.962 122.68 354.066 124.048 351.426 124.96C348.834 125.92 345.402 126.4 341.13 126.4ZM342.642 117.904C345.282 117.904 347.298 117.688 348.69 117.256C350.13 116.824 350.85 115.936 350.85 114.592C350.85 113.92 350.658 113.368 350.274 112.936C349.89 112.552 349.242 112.24 348.33 112C347.466 111.712 346.218 111.496 344.586 111.352L336.882 110.56C336.402 110.896 335.97 111.28 335.586 111.712C335.25 112.096 334.962 112.504 334.722 112.936C334.53 113.416 334.434 113.92 334.434 114.448C334.434 115.6 335.058 116.464 336.306 117.04C337.554 117.616 339.666 117.904 342.642 117.904ZM341.85 91.552C342.522 91.552 343.074 91.432 343.506 91.192C343.938 90.904 344.25 90.472 344.442 89.896C344.682 89.32 344.85 88.552 344.946 87.592C345.042 86.632 345.09 85.48 345.09 84.136C345.09 82.744 345.042 81.592 344.946 80.68C344.85 79.72 344.682 78.952 344.442 78.376C344.25 77.752 343.938 77.32 343.506 77.08C343.074 76.792 342.522 76.648 341.85 76.648C341.178 76.648 340.626 76.792 340.194 77.08C339.762 77.32 339.426 77.728 339.186 78.304C338.994 78.88 338.85 79.648 338.754 80.608C338.658 81.568 338.61 82.744 338.61 84.136C338.61 85.48 338.658 86.632 338.754 87.592C338.85 88.504 338.994 89.272 339.186 89.896C339.426 90.472 339.762 90.904 340.194 91.192C340.626 91.432 341.178 91.552 341.85 91.552ZM377.202 112.72C374.178 112.72 371.586 112.192 369.426 111.136C367.266 110.032 365.61 108.448 364.458 106.384C363.306 104.272 362.73 101.752 362.73 98.824V83.56C362.73 80.584 363.306 78.064 364.458 76C365.61 73.936 367.266 72.376 369.426 71.32C371.634 70.216 374.226 69.664 377.202 69.664C380.274 69.664 382.818 70.192 384.834 71.248C386.898 72.304 388.434 73.864 389.442 75.928C390.498 77.992 391.026 80.536 391.026 83.56V91.912H374.322V99.904C374.322 100.96 374.442 101.824 374.682 102.496C374.922 103.168 375.258 103.648 375.69 103.936C376.122 104.224 376.626 104.368 377.202 104.368C377.778 104.368 378.282 104.248 378.714 104.008C379.194 103.72 379.554 103.288 379.794 102.712C380.082 102.136 380.226 101.344 380.226 100.336V95.944H391.026V99.976C391.026 104.2 389.802 107.392 387.354 109.552C384.906 111.664 381.522 112.72 377.202 112.72ZM374.322 86.44H380.226V82.264C380.226 81.16 380.082 80.296 379.794 79.672C379.554 79.048 379.194 78.616 378.714 78.376C378.282 78.136 377.754 78.016 377.13 78.016C376.554 78.016 376.05 78.16 375.618 78.448C375.234 78.736 374.922 79.24 374.682 79.96C374.442 80.632 374.322 81.616 374.322 82.912V86.44ZM397.558 112V70.384H409.294V77.296C410.638 74.896 411.982 73.072 413.326 71.824C414.67 70.528 416.302 69.88 418.222 69.88C418.606 69.88 418.942 69.904 419.23 69.952C419.518 69.952 419.782 70 420.022 70.096V81.76C419.494 81.52 418.894 81.328 418.222 81.184C417.598 80.992 416.926 80.896 416.206 80.896C414.862 80.896 413.614 81.256 412.462 81.976C411.31 82.696 410.254 83.68 409.294 84.928V112H397.558ZM444.047 112V53.68H453.119L465.071 81.76V53.68H475.727V112H467.015L455.063 81.76V112H444.047ZM497.366 112.72C494.342 112.72 491.75 112.192 489.59 111.136C487.43 110.032 485.774 108.448 484.622 106.384C483.47 104.272 482.894 101.752 482.894 98.824V83.56C482.894 80.584 483.47 78.064 484.622 76C485.774 73.936 487.43 72.376 489.59 71.32C491.798 70.216 494.39 69.664 497.366 69.664C500.438 69.664 502.982 70.192 504.998 71.248C507.062 72.304 508.598 73.864 509.606 75.928C510.662 77.992 511.19 80.536 511.19 83.56V91.912H494.486V99.904C494.486 100.96 494.606 101.824 494.846 102.496C495.086 103.168 495.422 103.648 495.854 103.936C496.286 104.224 496.79 104.368 497.366 104.368C497.942 104.368 498.446 104.248 498.878 104.008C499.358 103.72 499.718 103.288 499.958 102.712C500.246 102.136 500.39 101.344 500.39 100.336V95.944H511.19V99.976C511.19 104.2 509.966 107.392 507.518 109.552C505.07 111.664 501.686 112.72 497.366 112.72ZM494.486 86.44H500.39V82.264C500.39 81.16 500.246 80.296 499.958 79.672C499.718 79.048 499.358 78.616 498.878 78.376C498.446 78.136 497.918 78.016 497.294 78.016C496.718 78.016 496.214 78.16 495.782 78.448C495.398 78.736 495.086 79.24 494.846 79.96C494.606 80.632 494.486 81.616 494.486 82.912V86.44ZM530.466 112.432C527.346 112.432 524.922 111.976 523.194 111.064C521.514 110.152 520.362 108.832 519.738 107.104C519.114 105.328 518.802 103.192 518.802 100.696V78.088H514.77V70.384H518.802V57.712H530.682V70.384H536.586V78.088H530.682V99.544C530.682 100.744 531.018 101.608 531.69 102.136C532.41 102.664 533.298 102.928 534.354 102.928C534.978 102.928 535.554 102.904 536.082 102.856C536.61 102.76 537.09 102.688 537.522 102.64V111.856C536.898 111.952 535.914 112.072 534.57 112.216C533.226 112.36 531.858 112.432 530.466 112.432Z" fill="white"/>
<defs>
<linearGradient id="paint0_linear_116_11" x1="78.7801" y1="15.2568" x2="78.7801" y2="142.817" gradientUnits="userSpaceOnUse">
<stop stop-color="#164758"/>
<stop offset="1" stop-color="#143746"/>
</linearGradient>
</defs>
</svg>
