<svg width="1440" height="560" viewBox="0 0 1440 560" fill="none" xmlns="http://www.w3.org/2000/svg">
  <g clip-path="url(#clip0_132_396)">
    <mask id="mask0_132_396" style="mask-type:luminance" maskUnits="userSpaceOnUse" x="0" y="0"
      width="1440" height="560">
      <path d="M1440 0H0V560H1440V0Z" fill="white" />
    </mask>
    <g mask="url(#mask0_132_396)">
      <path d="M1440 0H0V560H1440V0Z" fill="url(#paint0_radial_132_396)" />
      <path
        d="M226.67 1.33514e-05C251.96 43.24 205.34 77.04 221.89 140C232 178.47 254.55 202.86 280 202.86C301.51 202.86 293.44 168.17 315.81 140C363.44 80.03 356.21 60.06 420 26.58C478.31 -4.01999 492.12 23.7 560 11.83C568.12 10.41 563.86 0.690013 572 1.33514e-05C633.86 -5.22999 636 1.33514e-05 700 1.33514e-05C770 1.33514e-05 770 1.33514e-05 840 1.33514e-05C854.74 1.33514e-05 862.58 -11.48 869.47 1.33514e-05C904.58 58.52 890.1 73.64 924 140C945.37 181.82 945.95 184.44 980 216.36C1020.62 254.44 1049.8 234.63 1073.33 280C1102.6 336.45 1068 355.81 1085.61 420C1091.34 440.89 1104.12 450.15 1120 450.15C1133.42 450.15 1130.28 433.36 1144.2 420C1200.28 366.17 1193.02 348.77 1260 315.78C1320.92 285.77 1332.47 309.71 1400 294C1409.37 291.82 1413.8 289.33 1413.8 280C1413.8 227.89 1433.47 189.07 1400 171.11C1356.57 147.79 1324.4 206.88 1260 197.44C1218.27 191.32 1226.53 164.35 1187.74 140C1156.53 120.41 1148.72 132.25 1120 109.57C1060.07 62.25 1010.43 32.09 1010.43 1.33514e-05C1010.43 -22.69 1065.22 1.33514e-05 1120 1.33514e-05C1190 1.33514e-05 1190 1.33514e-05 1260 1.33514e-05C1330 1.33514e-05 1330 1.33514e-05 1400 1.33514e-05C1470 1.33514e-05 1499.62 -29.62 1540 1.33514e-05C1569.62 21.72 1567.47 71.77 1540 102.67C1505.25 141.77 1415.56 123.52 1415.56 140C1415.56 156.18 1506.87 130.73 1540 168C1569.09 200.73 1540 224 1540 280C1540 329.78 1552.96 335.19 1540 379.56C1532.51 405.19 1503.98 393.75 1499.1 420C1487.21 483.97 1534.62 520.21 1506.46 560C1485.07 590.21 1453.23 560 1400 560C1330 560 1330 560 1260 560C1190 560 1190 560 1120 560C1071.76 560 1065.24 574.54 1023.51 560C995.24 550.15 1009.16 517.39 980 511.21C917.4 497.94 907.14 505.92 840 521.11C799.3 530.32 804.18 548.93 764.32 560C734.18 568.37 732.16 560 700 560C666 560 653.74 580.6 632 560C583.74 514.28 601.07 427.37 560 427.37C514.67 427.37 515.87 506.32 459.2 560C445.87 572.63 439.6 560 420 560C396.66 560 388.13 575.42 373.33 560C320.93 505.42 328.36 490.56 285.6 420C281.7 413.56 283.42 406 280 406C276.25 406 273.86 412.2 271.25 420C248.07 489.2 269.33 516.36 228.42 560C203.71 586.36 184.21 560 140 560C69.9999 560 34.9999 595 -0.000108719 560C-35.0001 525 -0.000108719 490 -0.000108719 420C-0.000108719 350 -0.000108719 350 -0.000108719 280C-0.000108719 210 -0.000108719 210 -0.000108719 140C-0.000108719 70 -35.0001 35 -0.000108719 1.33514e-05C34.9999 -35 69.9999 1.33514e-05 140 1.33514e-05C183.33 1.33514e-05 211.02 -26.76 226.67 1.33514e-05Z"
        stroke="#2C72BA" stroke-opacity="0.15" stroke-width="2" />
      <path
        d="M560 277.88C548.64 277.88 536.67 271.31 536.67 280C536.67 307.37 553.3 350 560 350C566.36 350 562.8 314.34 562.8 280C562.8 278.28 561.7 277.88 560 277.88Z"
        stroke="#2C72BA" stroke-opacity="0.15" stroke-width="2" />
      <path
        d="M171.11 1.33514e-05C177.6 57.33 132.16 80.34 155.85 140C186.61 217.48 216.41 209.25 280 274.29C284.85 279.25 286.13 277.76 292.73 280C356.13 301.51 365.23 286.93 420 321.79C475.21 356.93 512.68 370.55 512.68 420C512.68 470.27 465.65 521.23 420 521.23C375.45 521.23 366.41 476.54 332.27 420C296.41 360.59 311.97 289.33 280 289.33C245 289.33 234.33 352.11 198.33 420C164.33 484.11 172.68 490.07 140 553.33C136.52 560.07 133.67 559.63 126 560C63.6699 562.97 29.8399 593.16 -0.000108719 560C-33.1601 523.16 -0.000108719 490 -0.000108719 420C-0.000108719 350 -0.000108719 350 -0.000108719 280C-0.000108719 210 -0.000108719 210 -0.000108719 140C-0.000108719 70 -35.0001 35 -0.000108719 1.33514e-05C34.9999 -35 69.9999 1.33514e-05 140 1.33514e-05C155.56 1.33514e-05 169.68 -12.67 171.11 1.33514e-05Z"
        stroke="#2C72BA" stroke-opacity="0.15" stroke-width="2" />
      <path
        d="M356.51 140C356.51 103.19 379.23 86.69 420 70.89C480.97 47.26 497.67 83 560 61.13C598.67 47.56 585.08 16.12 622 -1.90735e-05C655.08 -14.44 661 -1.90735e-05 700 -1.90735e-05C745.5 -1.90735e-05 758.35 -21.42 791 -1.90735e-05C828.35 24.52 815.5 45.94 840 91.88C852.83 115.94 860.08 113.73 865.67 140C880.08 207.79 847.2 231.1 880 280C904.36 316.32 946.15 277.57 980 310.43C1018.26 347.57 1024.21 370.57 1024.21 420C1024.21 444.44 1007.02 450.48 980 458.18C914.91 476.73 906.43 483.21 840 472.5C787.97 464.12 787.49 451.46 743.08 420C717.49 401.87 719.62 398.23 700 373.33C664.48 328.23 671.82 321.38 632.8 280C601.82 247.14 601.97 234.21 560 224.85C495.57 210.48 476.51 256.1 420 232.54C374.77 213.68 356.51 184.02 356.51 140Z"
        stroke="#2C72BA" stroke-opacity="0.15" stroke-width="2" />
      <path
        d="M1120 58.84C1084.8 38.04 1061.16 17.23 1061.16 1.95503e-05C1061.16 -12.19 1090.58 1.95503e-05 1120 1.95503e-05C1190 1.95503e-05 1190 1.95503e-05 1260 1.95503e-05C1330 1.95503e-05 1330 1.95503e-05 1400 1.95503e-05C1470 1.95503e-05 1486.83 -16.83 1540 1.95503e-05C1556.83 5.33002 1556.37 43.65 1540 44.33C1486.37 46.56 1462.69 -10.55 1400 5.83002C1322.69 26.03 1335.77 103.15 1260 117.5C1195.77 129.66 1184.22 96.79 1120 58.84Z"
        stroke="#2C72BA" stroke-opacity="0.15" stroke-width="2" />
      <path
        d="M1187.41 420C1220.7 384.49 1216.4 370.26 1260 354.67C1322.69 332.26 1340.85 324.66 1400 344C1440.74 357.32 1445.5 375.95 1459.78 420C1480.5 483.95 1489.94 513.29 1470 560C1460.05 583.29 1435 560 1400 560C1343.05 560 1338.22 570.82 1286.1 560C1268.22 556.29 1274.72 530.94 1260 530.94C1240.86 530.94 1242.2 555.05 1218.38 560C1172.2 569.58 1169.19 560 1120 560C1095.4 560 1070.81 571.13 1070.81 560C1070.81 543.13 1096.16 532.63 1120 504C1154.46 462.63 1150.7 459.16 1187.41 420Z"
        stroke="#2C72BA" stroke-opacity="0.15" stroke-width="2" />
      <path
        d="M80.7699 2.47955e-05C88.6999 45.6 8.6299 85.19 24.3499 140C38.2399 188.44 87.6999 166.38 140 206.5C178.94 236.38 206.82 239.83 206.82 280C206.82 333.12 180.78 344.21 140 393.08C122.37 414.21 114.85 406.27 89.9999 420C44.8499 444.93 30.2299 470.4 -0.000102043 470.4C-14.7701 470.4 -0.000102043 445.2 -0.000102043 420C-0.000102043 350 -0.000102043 350 -0.000102043 280C-0.000102043 210 -0.000102043 210 -0.000102043 140C-0.000102043 70 -25.6101 44.39 -0.000102043 2.47955e-05C14.7799 -25.61 76.5299 -24.4 80.7699 2.47955e-05Z"
        stroke="#2C72BA" stroke-opacity="0.15" stroke-width="2" />
      <path
        d="M397.21 140C397.21 126.79 404.22 118.06 420 115.19C485.62 103.27 500.64 137.55 560 110.42C626.64 79.96 612.58 46.87 672 -5.24521e-06C682.58 -8.34001 686 -5.24521e-06 700 -5.24521e-06C716.34 -5.24521e-06 730.34 -13.23 732.67 -5.24521e-06C742.69 56.77 733.94 70.76 724.71 140C717.61 193.26 733.42 238.54 700 245C651.06 254.45 634.22 190.85 560 171.82C494.22 154.96 483.21 185.57 420 173.22C401.81 169.66 397.21 155.8 397.21 140Z"
        stroke="#2C72BA" stroke-opacity="0.15" stroke-width="2" />
      <path
        d="M1120 8.12003C1114.66 6.14003 1111.88 2.38003 1111.88 3.14713e-05C1111.88 -1.67997 1115.94 3.14713e-05 1120 3.14713e-05C1190 3.14713e-05 1190 3.14713e-05 1260 3.14713e-05C1293.48 3.14713e-05 1326.96 -11.99 1326.96 3.14713e-05C1326.96 15.51 1298.27 53.5 1260 55C1194.79 57.56 1188.72 33.64 1120 8.12003Z"
        stroke="#2C72BA" stroke-opacity="0.15" stroke-width="2" />
      <path
        d="M378.93 420C378.93 396.86 399.15 374.03 420 374.03C441.38 374.03 463.38 396.85 463.38 420C463.38 443.53 441.37 467.38 420 467.38C399.14 467.38 378.93 443.54 378.93 420Z"
        stroke="#2C72BA" stroke-opacity="0.15" stroke-width="2" />
      <path
        d="M832.82 420C832.82 415.32 834.51 408.8 840 408.8C853.65 408.8 871.11 416.13 871.11 420C871.11 423.67 855.19 423.89 840 423.89C836.04 423.89 832.82 422.87 832.82 420Z"
        stroke="#2C72BA" stroke-opacity="0.15" stroke-width="2" />
      <path
        d="M1230.62 420C1230.62 404.87 1241.35 396.42 1260 393.56C1326.04 383.42 1335.11 383.31 1400 394C1415.33 396.53 1417.26 404.19 1420.45 420C1434.03 487.19 1441.8 503.48 1433.54 560C1431.57 573.48 1416.77 560 1400 560C1372.71 560 1366.37 574.23 1345.42 560C1296.37 526.68 1300.43 514.21 1260 464.91C1243.03 444.21 1230.62 440.54 1230.62 420Z"
        stroke="#2C72BA" stroke-opacity="0.15" stroke-width="2" />
      <path
        d="M1118.11 560C1118.11 559.35 1118.87 557.85 1120 557.85C1121.71 557.85 1123.78 559.42 1123.78 560C1123.78 560.5 1121.89 560 1120 560C1119.05 560 1118.11 560.43 1118.11 560Z"
        stroke="#2C72BA" stroke-opacity="0.15" stroke-width="2" />
    </g>
  </g>
  <defs>
    <radialGradient id="paint0_radial_132_396" cx="0" cy="0" r="1" gradientUnits="userSpaceOnUse"
      gradientTransform="translate(0 100) scale(1545.06 1545.06)">
      <stop stop-color="#0E2A47" />
      <stop offset="1" stop-color="#174153" />
    </radialGradient>
    <clipPath id="clip0_132_396">
      <rect width="1440" height="560" fill="white" />
    </clipPath>
  </defs>
</svg>