<svg width="61" height="16" viewBox="0 0 61 16" fill="none" xmlns="http://www.w3.org/2000/svg">
<g clip-path="url(#clip0_132_383)">
<path d="M16.2494 3.27069C13.5536 3.27069 12.0445 4.98177 11.6125 6.74334C11.1229 5.84573 10.76 4.64517 10.4777 3.52876H6.7509V8.04488C6.7509 9.68303 5.9848 10.8948 4.48716 10.8948C2.98952 10.8948 2.13126 9.68303 2.13126 8.04488L2.14854 3.52876H0V8.04488C0 9.36326 0.437772 10.5582 1.23843 11.4109C2.06213 12.2917 3.18536 12.7518 4.48716 12.7518C7.07923 12.7518 8.88791 10.8163 8.88791 8.04488V5.00982C9.15864 6.00842 9.80378 7.92707 11.0364 9.6101L9.88442 16H12.0675L12.8279 11.4727C13.0755 11.6746 13.3405 11.8541 13.6228 12.0168C14.3543 12.4656 15.1895 12.7181 16.0535 12.7461C16.0535 12.7461 16.186 12.7518 16.2551 12.7518C18.9279 12.7518 21.0534 10.7377 21.0534 8.01683C21.0534 5.29594 18.9221 3.27069 16.2494 3.27069ZM16.2494 10.8892C14.5962 10.8892 13.5018 9.64376 13.1965 9.16129C13.5882 6.1094 14.7345 5.14446 16.2494 5.14446C17.747 5.14446 18.9106 6.31136 18.9106 8.01683C18.9106 9.7223 17.747 10.8892 16.2494 10.8892Z" fill="#14A800"/>
<path d="M47.118 4.49372V3.52879H45.0098V12.4657H47.1468V8.96497C47.1468 6.81069 47.3484 5.26231 50.3149 5.46427V3.42219C48.9324 3.32121 47.8553 3.60172 47.118 4.49372Z" fill="#14A800"/>
<path d="M32.2801 3.52875L30.7307 9.7784L29.0775 3.52875H26.3587L24.6998 9.7784L23.1561 3.52875H20.9902L23.3634 12.4712H25.9324L27.7181 6.12061L29.4865 12.4712H32.0555L34.5669 3.52875H32.2801Z" fill="#14A800"/>
<path d="M39.2728 3.27069C36.5828 3.27069 34.4746 5.30155 34.4746 8.01683C34.4746 10.7321 36.5828 12.7461 39.2728 12.7461C41.9455 12.7461 44.071 10.7321 44.071 8.01683C44.071 5.30155 41.9513 3.27069 39.2728 3.27069ZM39.2728 10.8948C37.7521 10.8948 36.6116 9.72791 36.6116 8.01683C36.6116 6.30575 37.7579 5.14446 39.2728 5.14446C40.7705 5.14446 41.934 6.31136 41.934 8.01683C41.934 9.7223 40.7705 10.8948 39.2728 10.8948Z" fill="#14A800"/>
<path d="M53.3796 8.07293H53.875L56.8587 12.4712H59.2722L55.8392 7.59607C57.5039 6.96213 58.6213 5.30715 58.6213 3.52875H56.4901C56.4901 5.45863 54.9291 6.18794 53.3796 6.18794V0H51.2368V12.4712H53.3738L53.3796 8.07293Z" fill="#14A800"/>
<path d="M59.2261 0V0.179523H59.4853V0.813464H59.6869V0.179523H59.9461V0H59.2261ZM60.7122 0L60.5279 0.5554H60.5221L60.3435 0H60.0613V0.813464H60.2514V0.230014H60.2571L60.4357 0.813464H60.6085L60.7928 0.230014H60.7986V0.813464H60.9944V0H60.7122Z" fill="#14A800"/>
</g>
<defs>
<clipPath id="clip0_132_383">
<rect width="61" height="16" fill="white"/>
</clipPath>
</defs>
</svg>
