<svg width="64" height="16" viewBox="0 0 64 16" fill="none" xmlns="http://www.w3.org/2000/svg">
  <path fill-rule="evenodd" clip-rule="evenodd"
    d="M20.3404 3.19266C20.2284 2.76845 20.009 2.38116 19.7039 2.06898C19.3989 1.75681 19.0188 1.53055 18.601 1.41251C17.0559 1 10.8755 1 10.8755 1C10.8755 1 4.69195 1 3.14685 1.41251C2.72817 1.52766 2.3469 1.75257 2.04151 2.06456C1.73611 2.37655 1.5174 2.76457 1.40743 3.18948C1 4.75385 1 8 1 8C1 8 1 11.262 1.40743 12.8105C1.52079 13.2363 1.74254 13.6245 2.05053 13.9364C2.35853 14.2482 2.74196 14.4727 3.16252 14.5875C4.69195 15 10.8724 15 10.8724 15C10.8724 15 17.0559 15 18.601 14.5875C19.018 14.4707 19.3984 14.2474 19.7058 13.939C20.0131 13.6307 20.237 13.2475 20.3561 12.8264C20.7635 11.262 20.7635 8.01587 20.7635 8.01587C20.7635 8.01587 20.7479 4.75385 20.3404 3.19266ZM8.90416 5.00136V10.9986L14.0441 8L8.90416 5.00136Z"
    fill="#F00000" />
  <path d="M8.90416 10.9986V5.00136L14.0441 8L8.90416 10.9986Z" fill="white" />
  <path
    d="M24.9287 10.107L22.7161 1.98685H24.6529L25.4333 5.66138C25.6276 6.56573 25.7749 7.34315 25.8721 7.98413H25.9348C26.0037 7.52085 26.1479 6.76564 26.3735 5.67724L27.1884 1.98685H29.1253L26.8813 10.1102V14.0131H24.9444V10.1102H24.9287V10.107Z"
    fill="black" />
  <path fill-rule="evenodd" clip-rule="evenodd"
    d="M29.68 13.7498C29.2571 13.4528 28.9605 13.0052 28.8495 12.4964C28.671 11.7638 28.5888 11.0105 28.605 10.2561V8.98685C28.5876 8.21893 28.6859 7.45281 28.8965 6.71487C29.0389 6.20865 29.3487 5.7673 29.774 5.46464C30.2535 5.18537 30.8008 5.04794 31.3536 5.068C31.9898 5.068 32.5101 5.20127 32.8987 5.46464C33.3061 5.77561 33.6164 6.20399 33.7449 6.71487C33.9392 7.45739 34.0395 8.2126 34.005 8.98685V10.2561C34.0207 11.0145 33.9424 11.7729 33.7449 12.5122C33.617 13.0177 33.3174 13.4614 32.8987 13.7656C32.5101 14.029 31.971 14.1591 31.3066 14.1591C30.6234 14.1432 30.0686 14.0131 29.6769 13.7466L29.68 13.7498ZM32.0368 10.9637C32.0368 11.6047 31.9898 12.0839 31.8739 12.3663C31.8439 12.4919 31.7733 12.6038 31.6734 12.6843C31.5735 12.7648 31.4499 12.8092 31.3223 12.8105C31.0465 12.8264 30.8145 12.6455 30.7519 12.3821C30.639 12.0997 30.5889 11.6238 30.5889 10.9796V8.24751C30.5732 7.78423 30.6234 7.30825 30.7519 6.86401C30.782 6.73784 30.853 6.62553 30.9535 6.545C31.0541 6.46448 31.1784 6.42039 31.3066 6.41976C31.4361 6.42083 31.5617 6.46485 31.6642 6.54509C31.7666 6.62532 31.8403 6.73735 31.8739 6.86401C32.001 7.31337 32.056 7.78048 32.0368 8.24751V10.9637Z"
    fill="black" />
  <path
    d="M40.3014 5.233V14.0131H38.772L38.609 12.9406H38.5589C38.1514 13.7498 37.5184 14.1591 36.691 14.1591C36.1206 14.1591 35.6974 13.9624 35.4216 13.5848C35.1427 13.204 35.0142 12.6106 35.0142 11.7888V5.233H36.9668V11.6745C36.9526 11.9597 36.9964 12.2448 37.0953 12.5122C37.1326 12.5922 37.193 12.6587 37.2686 12.7029C37.3442 12.7471 37.4313 12.7669 37.5184 12.7597C37.694 12.7555 37.8643 12.698 38.0073 12.5947C38.1575 12.5012 38.2765 12.3641 38.3489 12.2013V5.233H40.3014Z"
    fill="black" />
  <path d="M45.6043 3.58296H43.6674V14.0131H41.765V3.58613H39.8282V1.98685H45.6043V3.58296Z"
    fill="black" />
  <path
    d="M50.3054 5.233V14.0131H48.776L48.613 12.9406H48.5629C48.1554 13.7498 47.5224 14.1591 46.695 14.1591C46.1246 14.1591 45.7015 13.9624 45.4257 13.5848C45.1467 13.204 45.0182 12.6106 45.0182 11.7888V5.233H46.9708V11.6745C46.9566 11.9597 47.0004 12.2448 47.0993 12.5122C47.1366 12.5922 47.197 12.6587 47.2726 12.7029C47.3482 12.7471 47.4353 12.7669 47.5224 12.7597C47.698 12.7555 47.8683 12.698 48.0113 12.5947C48.1615 12.5012 48.2805 12.3641 48.3529 12.2013V5.233H50.3054Z"
    fill="black" />
  <path fill-rule="evenodd" clip-rule="evenodd"
    d="M56.7616 6.63237C56.6488 6.08976 56.4545 5.68042 56.1944 5.42974C55.8906 5.16922 55.5015 5.03337 55.1037 5.04896C54.7431 5.04725 54.3907 5.15805 54.0945 5.36627C53.7881 5.56387 53.541 5.8426 53.38 6.17226H53.3643V1.54261H51.4932V14.0131H53.1042L53.2985 13.1881H53.3455C53.4981 13.4879 53.7362 13.7344 54.0287 13.8957C54.3389 14.0655 54.6853 14.1559 55.0379 14.1591C55.3438 14.1665 55.6452 14.0833 55.9052 13.9199C56.1651 13.7564 56.3724 13.5198 56.5015 13.2389C56.8118 12.6296 56.9716 11.6555 56.9716 10.3545V8.97099C56.9604 8.18718 56.8902 7.40537 56.7616 6.63237ZM54.8937 11.7063C54.9564 11.2112 54.9752 10.7004 54.9752 10.2085L54.9877 9.05349C54.9877 8.52674 54.9721 8 54.9251 7.47325C54.9094 7.19084 54.8279 6.93064 54.6963 6.68314C54.5991 6.534 54.4205 6.4515 54.2418 6.4515C54.144 6.45126 54.0471 6.47174 53.9575 6.51163C53.8679 6.55152 53.7876 6.60994 53.7216 6.68314C53.559 6.84777 53.4413 7.05219 53.38 7.27652V12.2489C53.4578 12.3904 53.57 12.5094 53.7059 12.5947C53.8384 12.6745 53.9906 12.7142 54.1447 12.709C54.2375 12.7107 54.3294 12.6911 54.4136 12.6515C54.4978 12.6119 54.5719 12.5534 54.6305 12.4805C54.7826 12.2497 54.8733 11.983 54.8937 11.7063Z"
    fill="black" />
  <path fill-rule="evenodd" clip-rule="evenodd"
    d="M59.7045 10.272V10.7162C59.7045 11.1446 59.7233 11.5571 59.7547 11.9855C59.7685 12.2047 59.8423 12.4156 59.9678 12.5947C60.0303 12.6614 60.1065 12.7136 60.1909 12.7476C60.2753 12.7815 60.366 12.7965 60.4567 12.7915C60.5795 12.8 60.702 12.7717 60.809 12.7102C60.916 12.6487 61.0028 12.5567 61.0585 12.4456C61.1713 12.2171 61.2214 11.8364 61.2371 11.2937L62.9107 11.408C62.9263 11.513 62.9326 11.6192 62.9295 11.7253C62.9295 12.5281 62.7164 13.1374 62.2776 13.534C61.8389 13.9306 61.2214 14.1274 60.4222 14.1274C59.4632 14.1274 58.7957 13.8132 58.407 13.2072C58.0184 12.6011 57.821 11.6555 57.821 10.3704V8.84089C57.821 7.52085 58.0153 6.56573 58.4227 5.95648C58.8301 5.34723 59.5134 5.05213 60.4724 5.05213C61.1399 5.05213 61.6602 5.18223 62.0175 5.43291C62.3936 5.71215 62.6663 6.12149 62.7822 6.58477C62.9452 7.29238 63.0267 8.03173 62.9922 8.75839V10.2561L59.7045 10.272ZM59.7547 7.19402C59.7629 6.97623 59.8313 6.76514 59.9521 6.58477C60.008 6.51992 60.0784 6.46963 60.1575 6.43815C60.2366 6.40667 60.3221 6.39492 60.4066 6.4039C60.491 6.39621 60.576 6.40856 60.6549 6.43996C60.7338 6.47135 60.8044 6.52094 60.861 6.58477C60.9865 6.7639 61.0603 6.97485 61.0741 7.19402C61.1211 7.62239 61.1399 8.05077 61.1399 8.47915V9.10426H59.7077V8.47915C59.7077 8.05033 59.7234 7.62166 59.7547 7.19402Z"
    fill="black" />
</svg>